<svg xmlns="http://www.w3.org/2000/svg" xmlns:xlink="http://www.w3.org/1999/xlink" width="656" zoomAndPan="magnify" viewBox="0 0 492 281.999989" height="376" preserveAspectRatio="xMidYMid meet" version="1.0"><defs><g/><clipPath id="801505023b"><path d="M 0 1.65625 L 492 1.65625 L 492 281.484375 L 0 281.484375 Z M 0 1.65625 " clip-rule="nonzero"/></clipPath><clipPath id="c8154c4e63"><path d="M 30 1.65625 L 462 1.65625 C 469.957031 1.65625 477.585938 4.816406 483.214844 10.441406 C 488.839844 16.066406 492 23.699219 492 31.65625 L 492 251.484375 C 492 259.4375 488.839844 267.070312 483.214844 272.695312 C 477.585938 278.320312 469.957031 281.484375 462 281.484375 L 30 281.484375 C 22.042969 281.484375 14.414062 278.320312 8.785156 272.695312 C 3.160156 267.070312 0 259.4375 0 251.484375 L 0 31.65625 C 0 23.699219 3.160156 16.066406 8.785156 10.441406 C 14.414062 4.816406 22.042969 1.65625 30 1.65625 Z M 30 1.65625 " clip-rule="nonzero"/></clipPath><clipPath id="7af3cb012a"><path d="M 41 97.023438 L 148.242188 97.023438 L 148.242188 151 L 41 151 Z M 41 97.023438 " clip-rule="nonzero"/></clipPath><clipPath id="e6dfa54f9a"><path d="M 45.039062 48.304688 L 144 48.304688 L 144 93.304688 L 45.039062 93.304688 Z M 45.039062 48.304688 " clip-rule="nonzero"/></clipPath><clipPath id="91034ba24e"><path d="M 51.503906 54.65625 L 137.324219 54.65625 L 137.324219 140.476562 L 51.503906 140.476562 Z M 51.503906 54.65625 " clip-rule="nonzero"/></clipPath><clipPath id="7f21f965e4"><path d="M 94.414062 54.65625 C 70.714844 54.65625 51.503906 73.867188 51.503906 97.566406 C 51.503906 121.265625 70.714844 140.476562 94.414062 140.476562 C 118.113281 140.476562 137.324219 121.265625 137.324219 97.566406 C 137.324219 73.867188 118.113281 54.65625 94.414062 54.65625 Z M 94.414062 54.65625 " clip-rule="nonzero"/></clipPath><clipPath id="1bd85de5a2"><path d="M 57.652344 60.804688 L 131.175781 60.804688 L 131.175781 134.328125 L 57.652344 134.328125 Z M 57.652344 60.804688 " clip-rule="nonzero"/></clipPath><clipPath id="5beb196976"><path d="M 94.414062 60.804688 C 74.109375 60.804688 57.652344 77.261719 57.652344 97.566406 C 57.652344 117.871094 74.109375 134.328125 94.414062 134.328125 C 114.71875 134.328125 131.175781 117.871094 131.175781 97.566406 C 131.175781 77.261719 114.71875 60.804688 94.414062 60.804688 Z M 94.414062 60.804688 " clip-rule="nonzero"/></clipPath><clipPath id="1875f3c3f3"><path d="M 12 160.441406 L 176.921875 160.441406 L 176.921875 211.304688 L 12 211.304688 Z M 12 160.441406 " clip-rule="nonzero"/></clipPath><clipPath id="f933eb483e"><path d="M 22.5 160.441406 L 166.328125 160.441406 C 172.128906 160.441406 176.828125 165.140625 176.828125 170.941406 L 176.828125 200.804688 C 176.828125 206.605469 172.128906 211.304688 166.328125 211.304688 L 22.5 211.304688 C 16.699219 211.304688 12 206.605469 12 200.804688 L 12 170.941406 C 12 165.140625 16.699219 160.441406 22.5 160.441406 Z M 22.5 160.441406 " clip-rule="nonzero"/></clipPath><clipPath id="b2e3332029"><path d="M 77.144531 151.222656 L 111.714844 151.222656 L 111.714844 169.65625 L 77.144531 169.65625 Z M 77.144531 151.222656 " clip-rule="nonzero"/></clipPath><clipPath id="ec326e2241"><path d="M 94.414062 151.222656 L 111.683594 169.65625 L 77.144531 169.65625 Z M 94.414062 151.222656 " clip-rule="nonzero"/></clipPath><clipPath id="d3617193a2"><path d="M 79 62.386719 L 110 62.386719 L 110 95 L 79 95 Z M 79 62.386719 " clip-rule="nonzero"/></clipPath><clipPath id="2cc056cf9e"><path d="M 66 94 L 122.171875 94 L 122.171875 124.636719 L 66 124.636719 Z M 66 94 " clip-rule="nonzero"/></clipPath><clipPath id="fe016db506"><path d="M 340.757812 92.15625 L 448.007812 92.15625 L 448.007812 146 L 340.757812 146 Z M 340.757812 92.15625 " clip-rule="nonzero"/></clipPath><clipPath id="e959abb24a"><path d="M 345.039062 42.890625 L 444 42.890625 L 444 87.890625 L 345.039062 87.890625 Z M 345.039062 42.890625 " clip-rule="nonzero"/></clipPath><clipPath id="7692a4a5ef"><path d="M 351.738281 48.703125 L 437.558594 48.703125 L 437.558594 134.523438 L 351.738281 134.523438 Z M 351.738281 48.703125 " clip-rule="nonzero"/></clipPath><clipPath id="c10b72d6a9"><path d="M 394.648438 48.703125 C 370.949219 48.703125 351.738281 67.914062 351.738281 91.613281 C 351.738281 115.3125 370.949219 134.523438 394.648438 134.523438 C 418.347656 134.523438 437.558594 115.3125 437.558594 91.613281 C 437.558594 67.914062 418.347656 48.703125 394.648438 48.703125 Z M 394.648438 48.703125 " clip-rule="nonzero"/></clipPath><clipPath id="0614f16be3"><path d="M 357.652344 55.390625 L 431.175781 55.390625 L 431.175781 128.917969 L 357.652344 128.917969 Z M 357.652344 55.390625 " clip-rule="nonzero"/></clipPath><clipPath id="eb3b1059fb"><path d="M 394.414062 55.390625 C 374.109375 55.390625 357.652344 71.851562 357.652344 92.15625 C 357.652344 112.457031 374.109375 128.917969 394.414062 128.917969 C 414.71875 128.917969 431.175781 112.457031 431.175781 92.15625 C 431.175781 71.851562 414.71875 55.390625 394.414062 55.390625 Z M 394.414062 55.390625 " clip-rule="nonzero"/></clipPath><clipPath id="075706a75a"><path d="M 312 155.027344 L 476.921875 155.027344 L 476.921875 205.894531 L 312 205.894531 Z M 312 155.027344 " clip-rule="nonzero"/></clipPath><clipPath id="c7d797578a"><path d="M 322.5 155.027344 L 466.328125 155.027344 C 472.128906 155.027344 476.828125 159.730469 476.828125 165.527344 L 476.828125 195.394531 C 476.828125 201.195312 472.128906 205.894531 466.328125 205.894531 L 322.5 205.894531 C 316.699219 205.894531 312 201.195312 312 195.394531 L 312 165.527344 C 312 159.730469 316.699219 155.027344 322.5 155.027344 Z M 322.5 155.027344 " clip-rule="nonzero"/></clipPath><clipPath id="9733e762a8"><path d="M 377.144531 145.8125 L 411.714844 145.8125 L 411.714844 164.246094 L 377.144531 164.246094 Z M 377.144531 145.8125 " clip-rule="nonzero"/></clipPath><clipPath id="04a5e55b36"><path d="M 394.414062 145.8125 L 411.683594 164.246094 L 377.144531 164.246094 Z M 394.414062 145.8125 " clip-rule="nonzero"/></clipPath><clipPath id="7d4433f279"><path d="M 361.632812 58.976562 L 427.632812 58.976562 L 427.632812 124.976562 L 361.632812 124.976562 Z M 361.632812 58.976562 " clip-rule="nonzero"/></clipPath></defs><g clip-path="url(#801505023b)"><g clip-path="url(#c8154c4e63)"><path fill="#faf6f6" d="M 0 1.65625 L 491.882812 1.65625 L 491.882812 281.484375 L 0 281.484375 Z M 0 1.65625 " fill-opacity="1" fill-rule="nonzero"/></g></g><g clip-path="url(#7af3cb012a)"><path fill="#a1dbf8" d="M 132.300781 97.023438 C 132.300781 117.777344 115.445312 134.632812 94.691406 134.632812 C 73.941406 134.632812 57.085938 117.777344 57.085938 97.023438 L 41.042969 97.023438 C 41.042969 126.65625 65.058594 150.671875 94.691406 150.671875 C 124.328125 150.671875 148.25 126.65625 148.25 97.023438 Z M 132.300781 97.023438 " fill-opacity="1" fill-rule="nonzero"/></g><g clip-path="url(#e6dfa54f9a)"><path fill="#404040" d="M 67.308594 57.765625 C 66.960938 57.234375 67.125 56.519531 67.652344 56.171875 C 68.183594 55.828125 68.898438 55.988281 69.246094 56.519531 C 69.59375 57.050781 69.429688 57.765625 68.898438 58.113281 C 68.714844 58.226562 68.484375 58.296875 68.277344 58.296875 C 67.90625 58.296875 67.539062 58.113281 67.308594 57.765625 Z M 61.976562 133.386719 C 61.5625 133.871094 61.609375 134.585938 62.09375 135.023438 C 62.300781 135.207031 62.578125 135.300781 62.855469 135.300781 C 63.175781 135.300781 63.5 135.164062 63.730469 134.910156 C 64.148438 134.425781 64.101562 133.707031 63.617188 133.292969 C 63.132812 132.855469 62.394531 132.902344 61.976562 133.386719 Z M 68.992188 137.285156 C 68.460938 136.9375 67.746094 137.101562 67.398438 137.632812 C 67.054688 138.164062 67.214844 138.878906 67.746094 139.222656 C 67.929688 139.339844 68.160156 139.410156 68.371094 139.410156 C 68.738281 139.410156 69.109375 139.222656 69.339844 138.878906 C 69.683594 138.347656 69.523438 137.632812 68.992188 137.285156 Z M 57.246094 128.402344 C 56.761719 128.816406 56.714844 129.554688 57.132812 130.039062 C 57.363281 130.292969 57.683594 130.433594 58.007812 130.433594 C 58.285156 130.433594 58.539062 130.339844 58.769531 130.15625 C 59.253906 129.738281 59.300781 129 58.886719 128.515625 C 58.445312 128.03125 57.707031 127.984375 57.246094 128.402344 Z M 62.785156 62.425781 C 63.0625 62.425781 63.316406 62.335938 63.546875 62.148438 C 64.03125 61.734375 64.078125 60.996094 63.660156 60.511719 C 63.246094 60.027344 62.507812 59.980469 62.046875 60.394531 C 61.5625 60.8125 61.515625 61.550781 61.929688 62.035156 C 62.140625 62.289062 62.460938 62.425781 62.785156 62.425781 Z M 87.476562 51.097656 C 87.523438 51.097656 87.59375 51.097656 87.636719 51.074219 C 88.261719 50.980469 88.699219 50.402344 88.605469 49.757812 C 88.515625 49.136719 87.9375 48.695312 87.292969 48.789062 C 86.667969 48.882812 86.230469 49.457031 86.324219 50.105469 C 86.414062 50.679688 86.898438 51.097656 87.476562 51.097656 Z M 81.175781 142.847656 C 80.578125 142.660156 79.929688 143.007812 79.746094 143.632812 C 79.5625 144.253906 79.90625 144.878906 80.53125 145.0625 C 80.644531 145.085938 80.738281 145.109375 80.855469 145.109375 C 81.359375 145.109375 81.824219 144.785156 81.960938 144.277344 C 82.144531 143.675781 81.800781 143.03125 81.175781 142.847656 Z M 74.324219 54.996094 C 74.484375 54.996094 74.644531 54.972656 74.808594 54.882812 C 75.382812 54.605469 75.636719 53.933594 75.382812 53.359375 C 75.109375 52.78125 74.4375 52.527344 73.863281 52.78125 C 73.285156 53.035156 73.03125 53.726562 73.308594 54.304688 C 73.445312 54.742188 73.882812 54.996094 74.324219 54.996094 Z M 74.875 140.515625 C 74.300781 140.261719 73.609375 140.515625 73.355469 141.09375 C 73.101562 141.667969 73.355469 142.363281 73.929688 142.617188 C 74.09375 142.683594 74.253906 142.707031 74.414062 142.707031 C 74.855469 142.707031 75.269531 142.453125 75.453125 142.039062 C 75.730469 141.460938 75.453125 140.769531 74.875 140.515625 Z M 80.761719 52.574219 C 80.875 52.574219 80.96875 52.550781 81.085938 52.527344 C 81.683594 52.34375 82.054688 51.695312 81.867188 51.097656 C 81.683594 50.496094 81.039062 50.128906 80.4375 50.3125 C 79.839844 50.496094 79.46875 51.144531 79.652344 51.742188 C 79.792969 52.25 80.253906 52.574219 80.761719 52.574219 Z M 87.730469 144.277344 C 87.105469 144.183594 86.507812 144.625 86.4375 145.246094 C 86.347656 145.871094 86.785156 146.46875 87.40625 146.5625 C 87.453125 146.5625 87.523438 146.5625 87.570312 146.5625 C 88.144531 146.5625 88.628906 146.144531 88.722656 145.570312 C 88.816406 144.945312 88.375 144.371094 87.730469 144.277344 Z M 46.515625 92.011719 C 46.5625 92.011719 46.632812 92.035156 46.679688 92.035156 C 47.253906 92.035156 47.738281 91.617188 47.808594 91.039062 C 47.902344 90.417969 47.460938 89.816406 46.839844 89.726562 C 46.214844 89.632812 45.617188 90.070312 45.546875 90.695312 C 45.433594 91.339844 45.871094 91.917969 46.515625 92.011719 Z M 47.347656 97.734375 C 47.347656 97.085938 46.839844 96.578125 46.195312 96.578125 C 45.546875 96.578125 45.039062 97.085938 45.039062 97.734375 C 45.039062 98.378906 45.546875 98.886719 46.195312 98.886719 C 46.839844 98.886719 47.347656 98.355469 47.347656 97.734375 Z M 47.832031 104.425781 C 47.738281 103.800781 47.164062 103.363281 46.515625 103.457031 C 45.894531 103.546875 45.453125 104.125 45.546875 104.769531 C 45.640625 105.347656 46.125 105.761719 46.679688 105.761719 C 46.722656 105.761719 46.792969 105.761719 46.839844 105.742188 C 47.484375 105.648438 47.925781 105.046875 47.832031 104.425781 Z M 140.988281 90.878906 C 141.082031 91.457031 141.566406 91.871094 142.121094 91.871094 C 142.167969 91.871094 142.234375 91.871094 142.28125 91.847656 C 142.90625 91.757812 143.34375 91.179688 143.25 90.535156 C 143.160156 89.910156 142.582031 89.472656 141.9375 89.5625 C 141.335938 89.65625 140.898438 90.257812 140.988281 90.878906 Z M 47.785156 85.25 C 47.902344 85.273438 47.992188 85.296875 48.109375 85.296875 C 48.617188 85.296875 49.078125 84.972656 49.214844 84.464844 C 49.402344 83.863281 49.03125 83.21875 48.433594 83.035156 C 47.832031 82.847656 47.1875 83.21875 47 83.816406 C 46.839844 84.441406 47.1875 85.0625 47.785156 85.25 Z M 50.023438 78.742188 C 50.1875 78.8125 50.347656 78.855469 50.507812 78.855469 C 50.945312 78.855469 51.363281 78.601562 51.546875 78.1875 C 51.800781 77.609375 51.546875 76.917969 50.96875 76.664062 C 50.394531 76.410156 49.699219 76.664062 49.445312 77.242188 C 49.191406 77.796875 49.445312 78.488281 50.023438 78.742188 Z M 53.183594 72.625 C 53.371094 72.742188 53.601562 72.8125 53.808594 72.8125 C 54.179688 72.8125 54.546875 72.625 54.777344 72.28125 C 55.125 71.75 54.960938 71.035156 54.429688 70.6875 C 53.902344 70.34375 53.183594 70.503906 52.839844 71.035156 C 52.492188 71.566406 52.65625 72.28125 53.183594 72.625 Z M 47.832031 110.195312 C 47.230469 110.378906 46.863281 111.023438 47.046875 111.625 C 47.1875 112.132812 47.648438 112.457031 48.15625 112.457031 C 48.269531 112.457031 48.386719 112.433594 48.476562 112.410156 C 49.078125 112.226562 49.445312 111.578125 49.261719 110.980469 C 49.078125 110.378906 48.433594 110.03125 47.832031 110.195312 Z M 53.230469 122.816406 C 52.699219 123.164062 52.539062 123.878906 52.886719 124.410156 C 53.117188 124.753906 53.484375 124.941406 53.855469 124.941406 C 54.0625 124.941406 54.292969 124.894531 54.476562 124.753906 C 55.007812 124.410156 55.171875 123.695312 54.824219 123.164062 C 54.476562 122.609375 53.761719 122.46875 53.230469 122.816406 Z M 57.9375 67.296875 C 58.261719 67.296875 58.585938 67.15625 58.816406 66.902344 C 59.230469 66.417969 59.183594 65.703125 58.699219 65.289062 C 58.214844 64.871094 57.5 64.917969 57.0625 65.402344 C 56.648438 65.886719 56.691406 66.601562 57.175781 67.019531 C 57.386719 67.203125 57.664062 67.296875 57.9375 67.296875 Z M 50.070312 116.703125 C 49.492188 116.976562 49.238281 117.648438 49.492188 118.222656 C 49.679688 118.640625 50.09375 118.894531 50.53125 118.894531 C 50.691406 118.894531 50.855469 118.871094 51.015625 118.777344 C 51.59375 118.523438 51.847656 117.832031 51.59375 117.253906 C 51.339844 116.679688 50.648438 116.449219 50.070312 116.703125 Z M 125.230469 133.246094 C 124.746094 133.664062 124.699219 134.402344 125.113281 134.863281 C 125.34375 135.117188 125.667969 135.253906 125.992188 135.253906 C 126.265625 135.253906 126.519531 135.164062 126.75 134.976562 C 127.238281 134.5625 127.28125 133.824219 126.867188 133.363281 C 126.453125 132.878906 125.714844 132.832031 125.230469 133.246094 Z M 135.613281 122.769531 C 135.082031 122.425781 134.367188 122.585938 134.019531 123.117188 C 133.675781 123.648438 133.835938 124.363281 134.367188 124.707031 C 134.550781 124.824219 134.78125 124.894531 134.988281 124.894531 C 135.359375 124.894531 135.726562 124.707031 135.960938 124.363281 C 136.304688 123.832031 136.144531 123.117188 135.613281 122.769531 Z M 94.328125 50.613281 C 94.976562 50.613281 95.484375 50.105469 95.484375 49.457031 C 95.484375 48.8125 94.976562 48.304688 94.328125 48.304688 C 93.683594 48.304688 93.175781 48.8125 93.175781 49.457031 C 93.175781 50.105469 93.707031 50.613281 94.328125 50.613281 Z M 130.789062 67.179688 C 131.066406 67.179688 131.320312 67.089844 131.550781 66.902344 C 132.035156 66.488281 132.082031 65.75 131.667969 65.289062 C 131.25 64.804688 130.511719 64.757812 130.027344 65.171875 C 129.542969 65.589844 129.496094 66.328125 129.914062 66.8125 C 130.144531 67.042969 130.46875 67.179688 130.789062 67.179688 Z M 129.980469 128.492188 C 129.566406 128.976562 129.613281 129.691406 130.097656 130.109375 C 130.304688 130.292969 130.582031 130.386719 130.859375 130.386719 C 131.183594 130.386719 131.503906 130.246094 131.734375 129.992188 C 132.152344 129.507812 132.105469 128.792969 131.621094 128.378906 C 131.136719 127.960938 130.398438 128.007812 129.980469 128.492188 Z M 137.183594 78.027344 C 137.390625 78.441406 137.804688 78.695312 138.242188 78.695312 C 138.40625 78.695312 138.566406 78.648438 138.726562 78.578125 C 139.304688 78.304688 139.558594 77.632812 139.304688 77.058594 C 139.027344 76.480469 138.359375 76.226562 137.78125 76.503906 C 137.183594 76.78125 136.929688 77.449219 137.183594 78.027344 Z M 143.78125 97.570312 C 143.78125 96.925781 143.273438 96.417969 142.628906 96.417969 C 141.980469 96.417969 141.472656 96.925781 141.472656 97.570312 L 141.472656 97.664062 C 141.472656 98.308594 141.980469 98.816406 142.628906 98.816406 C 143.273438 98.816406 143.78125 98.308594 143.78125 97.664062 C 143.78125 97.640625 143.78125 97.640625 143.78125 97.617188 C 143.78125 97.59375 143.78125 97.59375 143.78125 97.570312 Z M 138.773438 116.65625 C 138.199219 116.402344 137.503906 116.65625 137.25 117.230469 C 136.996094 117.808594 137.25 118.5 137.828125 118.753906 C 137.988281 118.824219 138.152344 118.871094 138.3125 118.871094 C 138.75 118.871094 139.167969 118.617188 139.351562 118.203125 C 139.605469 117.601562 139.351562 116.933594 138.773438 116.65625 Z M 142.304688 103.386719 C 141.683594 103.292969 141.082031 103.734375 141.011719 104.355469 C 140.921875 104.980469 141.359375 105.578125 141.980469 105.648438 C 142.027344 105.648438 142.097656 105.671875 142.144531 105.671875 C 142.699219 105.671875 143.203125 105.253906 143.273438 104.679688 C 143.390625 104.054688 142.929688 103.480469 142.304688 103.386719 Z M 140.667969 85.132812 C 140.78125 85.132812 140.898438 85.109375 140.988281 85.085938 C 141.613281 84.902344 141.957031 84.257812 141.773438 83.65625 C 141.589844 83.058594 140.945312 82.6875 140.34375 82.871094 C 139.71875 83.058594 139.375 83.703125 139.558594 84.304688 C 139.699219 84.808594 140.160156 85.132812 140.667969 85.132812 Z M 141.011719 110.148438 C 140.390625 109.964844 139.765625 110.308594 139.582031 110.933594 C 139.398438 111.554688 139.742188 112.179688 140.367188 112.363281 C 140.480469 112.386719 140.574219 112.410156 140.691406 112.410156 C 141.199219 112.410156 141.660156 112.085938 141.796875 111.578125 C 141.980469 110.980469 141.636719 110.332031 141.011719 110.148438 Z M 134.921875 72.671875 C 135.128906 72.671875 135.359375 72.601562 135.542969 72.488281 C 136.074219 72.140625 136.234375 71.425781 135.890625 70.894531 C 135.542969 70.363281 134.828125 70.203125 134.296875 70.550781 C 133.765625 70.894531 133.605469 71.609375 133.953125 72.140625 C 134.183594 72.488281 134.550781 72.671875 134.921875 72.671875 Z M 101.136719 144.253906 C 100.515625 144.347656 100.074219 144.921875 100.167969 145.570312 C 100.261719 146.144531 100.746094 146.5625 101.300781 146.5625 C 101.34375 146.5625 101.414062 146.5625 101.460938 146.5625 C 102.082031 146.46875 102.523438 145.894531 102.429688 145.246094 C 102.359375 144.625 101.761719 144.160156 101.136719 144.253906 Z M 107.597656 52.480469 C 107.714844 52.503906 107.804688 52.527344 107.921875 52.527344 C 108.429688 52.527344 108.890625 52.203125 109.03125 51.695312 C 109.214844 51.097656 108.84375 50.449219 108.246094 50.265625 C 107.621094 50.082031 107 50.449219 106.8125 51.050781 C 106.628906 51.671875 106.976562 52.296875 107.597656 52.480469 Z M 101.023438 51.074219 C 101.066406 51.074219 101.136719 51.074219 101.183594 51.074219 C 101.761719 51.074219 102.246094 50.65625 102.3125 50.082031 C 102.40625 49.457031 101.96875 48.859375 101.34375 48.765625 C 100.722656 48.671875 100.121094 49.113281 100.03125 49.734375 C 99.960938 50.402344 100.398438 50.980469 101.023438 51.074219 Z M 107.691406 142.847656 C 107.089844 143.03125 106.722656 143.652344 106.90625 144.277344 C 107.042969 144.785156 107.507812 145.109375 108.015625 145.109375 C 108.128906 145.109375 108.222656 145.085938 108.335938 145.0625 C 108.9375 144.878906 109.304688 144.230469 109.121094 143.632812 C 108.9375 143.007812 108.3125 142.660156 107.691406 142.847656 Z M 94.445312 144.738281 C 93.800781 144.738281 93.292969 145.246094 93.292969 145.894531 C 93.292969 146.539062 93.800781 147.046875 94.445312 147.046875 C 95.089844 147.046875 95.597656 146.539062 95.597656 145.894531 C 95.597656 145.246094 95.070312 144.738281 94.445312 144.738281 Z M 119.78125 58.042969 C 119.96875 58.15625 120.199219 58.226562 120.40625 58.226562 C 120.773438 58.226562 121.167969 58.042969 121.375 57.695312 C 121.722656 57.164062 121.558594 56.449219 121.027344 56.105469 C 120.5 55.757812 119.78125 55.917969 119.4375 56.449219 C 119.089844 56.980469 119.253906 57.695312 119.78125 58.042969 Z M 125.921875 62.335938 C 126.242188 62.335938 126.566406 62.195312 126.796875 61.941406 C 127.214844 61.457031 127.167969 60.742188 126.683594 60.328125 C 126.199219 59.910156 125.484375 59.957031 125.042969 60.441406 C 124.628906 60.925781 124.675781 61.640625 125.160156 62.082031 C 125.390625 62.242188 125.644531 62.335938 125.921875 62.335938 Z M 119.875 137.261719 C 119.34375 137.609375 119.183594 138.324219 119.527344 138.855469 C 119.757812 139.199219 120.128906 139.386719 120.5 139.386719 C 120.707031 139.386719 120.9375 139.339844 121.121094 139.199219 C 121.652344 138.855469 121.8125 138.140625 121.46875 137.609375 C 121.121094 137.078125 120.40625 136.917969 119.875 137.261719 Z M 113.992188 140.492188 C 113.414062 140.746094 113.160156 141.4375 113.414062 142.015625 C 113.597656 142.429688 114.035156 142.683594 114.453125 142.683594 C 114.613281 142.683594 114.773438 142.660156 114.9375 142.570312 C 115.515625 142.316406 115.769531 141.625 115.515625 141.046875 C 115.238281 140.46875 114.566406 140.238281 113.992188 140.492188 Z M 113.898438 54.8125 C 114.058594 54.882812 114.222656 54.902344 114.382812 54.902344 C 114.820312 54.902344 115.238281 54.648438 115.421875 54.234375 C 115.675781 53.65625 115.421875 52.964844 114.84375 52.710938 C 114.269531 52.457031 113.574219 52.710938 113.320312 53.289062 C 113.066406 53.867188 113.296875 54.558594 113.898438 54.8125 Z M 113.898438 54.8125 " fill-opacity="1" fill-rule="nonzero"/></g><g clip-path="url(#91034ba24e)"><g clip-path="url(#7f21f965e4)"><path fill="#f6ac81" d="M 51.503906 54.65625 L 137.324219 54.65625 L 137.324219 140.476562 L 51.503906 140.476562 Z M 51.503906 54.65625 " fill-opacity="1" fill-rule="nonzero"/></g></g><g clip-path="url(#1bd85de5a2)"><g clip-path="url(#5beb196976)"><path fill="#ffffff" d="M 57.652344 60.804688 L 131.175781 60.804688 L 131.175781 134.328125 L 57.652344 134.328125 Z M 57.652344 60.804688 " fill-opacity="1" fill-rule="nonzero"/></g></g><g clip-path="url(#1875f3c3f3)"><g clip-path="url(#f933eb483e)"><path fill="#e1a4b6" d="M 12 160.441406 L 176.921875 160.441406 L 176.921875 211.304688 L 12 211.304688 Z M 12 160.441406 " fill-opacity="1" fill-rule="nonzero"/></g></g><g clip-path="url(#b2e3332029)"><g clip-path="url(#ec326e2241)"><path fill="#e1a4b6" d="M 77.144531 151.222656 L 111.714844 151.222656 L 111.714844 169.65625 L 77.144531 169.65625 Z M 77.144531 151.222656 " fill-opacity="1" fill-rule="nonzero"/></g></g><g clip-path="url(#d3617193a2)"><path fill="#ba2d53" d="M 94.167969 94.550781 C 102.46875 94.550781 109.222656 85.742188 109.222656 77.441406 C 109.222656 69.140625 102.46875 62.386719 94.167969 62.386719 C 85.871094 62.386719 79.117188 69.140625 79.117188 77.441406 C 79.117188 85.742188 85.871094 94.550781 94.167969 94.550781 Z M 94.167969 94.550781 " fill-opacity="1" fill-rule="nonzero"/></g><g clip-path="url(#2cc056cf9e)"><path fill="#ba2d53" d="M 105.46875 94.703125 C 102.550781 96.929688 98.90625 98.253906 94.960938 98.253906 L 93.378906 98.253906 C 89.429688 98.253906 85.789062 96.929688 82.867188 94.703125 C 73.335938 96.246094 66.054688 104.507812 66.054688 114.476562 C 66.054688 119.953125 78.640625 124.390625 94.167969 124.390625 C 109.695312 124.390625 122.285156 119.953125 122.285156 114.476562 C 122.285156 104.507812 115.003906 96.246094 105.46875 94.703125 Z M 105.46875 94.703125 " fill-opacity="1" fill-rule="nonzero"/></g><g fill="#404040" fill-opacity="1"><g transform="translate(37.834361, 194.757493)"><g><path d="M 9.953125 -19.421875 C 11.390625 -19.421875 12.671875 -19.128906 13.796875 -18.546875 C 14.921875 -17.972656 15.828125 -17.1875 16.515625 -16.1875 C 17.210938 -15.1875 17.625 -14.0625 17.75 -12.8125 L 13.703125 -12.8125 C 13.578125 -13.476562 13.347656 -14.066406 13.015625 -14.578125 C 12.691406 -15.097656 12.265625 -15.503906 11.734375 -15.796875 C 11.203125 -16.097656 10.566406 -16.25 9.828125 -16.25 C 8.941406 -16.25 8.175781 -16.03125 7.53125 -15.59375 C 6.882812 -15.164062 6.390625 -14.46875 6.046875 -13.5 C 5.703125 -12.539062 5.53125 -11.269531 5.53125 -9.6875 C 5.53125 -7.300781 5.910156 -5.578125 6.671875 -4.515625 C 7.429688 -3.453125 8.484375 -2.921875 9.828125 -2.921875 C 10.566406 -2.921875 11.203125 -3.085938 11.734375 -3.421875 C 12.265625 -3.765625 12.691406 -4.21875 13.015625 -4.78125 C 13.347656 -5.34375 13.578125 -5.957031 13.703125 -6.625 L 17.75 -6.625 C 17.632812 -5.71875 17.414062 -4.847656 17.09375 -4.015625 C 16.769531 -3.191406 16.304688 -2.457031 15.703125 -1.8125 C 15.097656 -1.164062 14.320312 -0.65625 13.375 -0.28125 C 12.4375 0.0820312 11.296875 0.265625 9.953125 0.265625 C 8.171875 0.265625 6.628906 -0.144531 5.328125 -0.96875 C 4.023438 -1.800781 3.019531 -2.96875 2.3125 -4.46875 C 1.613281 -5.976562 1.265625 -7.734375 1.265625 -9.734375 C 1.265625 -11.753906 1.613281 -13.484375 2.3125 -14.921875 C 3.007812 -16.367188 4.007812 -17.476562 5.3125 -18.25 C 6.613281 -19.03125 8.160156 -19.421875 9.953125 -19.421875 Z M 9.953125 -19.421875 "/></g></g></g><g fill="#404040" fill-opacity="1"><g transform="translate(56.858446, 194.757493)"><g><path d="M 2.140625 -19.15625 L 6.046875 -19.15625 L 6.046875 -3.265625 L 14.359375 -3.265625 L 14.359375 0 L 2.140625 0 Z M 2.140625 -19.15625 "/></g></g></g><g fill="#404040" fill-opacity="1"><g transform="translate(72.159848, 194.757493)"><g><path d="M 2.140625 -19.15625 L 6 -19.15625 L 6 0 L 2.140625 0 Z M 2.140625 -19.15625 "/></g></g></g><g fill="#404040" fill-opacity="1"><g transform="translate(80.307342, 194.757493)"><g><path d="M 2.140625 0 L 2.140625 -19.15625 L 15.296875 -19.15625 L 15.296875 -15.90625 L 6.03125 -15.90625 L 6.03125 -11.25 L 14.078125 -11.25 L 14.078125 -8.0625 L 6 -8.0625 L 6 -3.296875 L 15.4375 -3.28125 L 15.4375 0 Z M 2.140625 0 "/></g></g></g><g fill="#404040" fill-opacity="1"><g transform="translate(97.119009, 194.757493)"><g><path d="M 14.71875 -19.15625 L 18.59375 -19.15625 L 18.59375 0 L 15.109375 0 L 6 -13.1875 L 6 0 L 2.140625 0 L 2.140625 -19.15625 L 5.96875 -19.15625 L 14.71875 -6.484375 Z M 14.71875 -19.15625 "/></g></g></g><g fill="#404040" fill-opacity="1"><g transform="translate(117.838833, 194.757493)"><g><path d="M 0.5 -15.71875 L 0.5 -19.15625 L 15.828125 -19.15625 L 15.828125 -15.71875 L 10.171875 -15.71875 L 10.171875 0 L 6.296875 0 L 6.296875 -15.71875 Z M 0.5 -15.71875 "/></g></g></g><g fill="#404040" fill-opacity="1"><g transform="translate(134.160326, 194.757493)"><g><path d="M 2.140625 0 L 2.140625 -19.15625 L 15.296875 -19.15625 L 15.296875 -15.90625 L 6.03125 -15.90625 L 6.03125 -11.25 L 14.078125 -11.25 L 14.078125 -8.0625 L 6 -8.0625 L 6 -3.296875 L 15.4375 -3.28125 L 15.4375 0 Z M 2.140625 0 "/></g></g></g><g clip-path="url(#fe016db506)"><path fill="#a1dbf8" d="M 432.066406 92.15625 C 432.066406 112.90625 415.210938 129.761719 394.457031 129.761719 C 373.707031 129.761719 356.851562 112.90625 356.851562 92.15625 L 340.808594 92.15625 C 340.808594 121.789062 364.824219 145.804688 394.457031 145.804688 C 424.089844 145.804688 448.015625 121.789062 448.015625 92.15625 Z M 432.066406 92.15625 " fill-opacity="1" fill-rule="nonzero"/></g><g clip-path="url(#e959abb24a)"><path fill="#404040" d="M 367.308594 52.351562 C 366.960938 51.820312 367.125 51.105469 367.652344 50.761719 C 368.183594 50.414062 368.898438 50.574219 369.246094 51.105469 C 369.59375 51.636719 369.429688 52.351562 368.898438 52.699219 C 368.714844 52.8125 368.484375 52.882812 368.277344 52.882812 C 367.90625 52.882812 367.539062 52.699219 367.308594 52.351562 Z M 361.976562 127.972656 C 361.5625 128.457031 361.609375 129.171875 362.09375 129.609375 C 362.300781 129.796875 362.578125 129.886719 362.855469 129.886719 C 363.175781 129.886719 363.5 129.75 363.730469 129.496094 C 364.148438 129.011719 364.101562 128.296875 363.617188 127.878906 C 363.132812 127.441406 362.394531 127.488281 361.976562 127.972656 Z M 368.992188 131.871094 C 368.460938 131.527344 367.746094 131.6875 367.398438 132.21875 C 367.054688 132.75 367.214844 133.464844 367.746094 133.8125 C 367.929688 133.925781 368.160156 133.996094 368.371094 133.996094 C 368.738281 133.996094 369.109375 133.8125 369.339844 133.464844 C 369.683594 132.933594 369.523438 132.21875 368.992188 131.871094 Z M 357.246094 122.988281 C 356.761719 123.402344 356.714844 124.140625 357.132812 124.625 C 357.363281 124.878906 357.683594 125.019531 358.007812 125.019531 C 358.285156 125.019531 358.539062 124.925781 358.769531 124.742188 C 359.253906 124.328125 359.300781 123.589844 358.886719 123.105469 C 358.445312 122.617188 357.707031 122.574219 357.246094 122.988281 Z M 362.785156 57.015625 C 363.0625 57.015625 363.316406 56.921875 363.546875 56.738281 C 364.03125 56.320312 364.078125 55.582031 363.660156 55.097656 C 363.246094 54.613281 362.507812 54.566406 362.046875 54.984375 C 361.5625 55.398438 361.515625 56.136719 361.929688 56.621094 C 362.140625 56.875 362.460938 57.015625 362.785156 57.015625 Z M 387.476562 45.683594 C 387.523438 45.683594 387.589844 45.683594 387.636719 45.660156 C 388.261719 45.566406 388.699219 44.992188 388.605469 44.34375 C 388.515625 43.722656 387.9375 43.285156 387.292969 43.375 C 386.667969 43.46875 386.230469 44.046875 386.324219 44.691406 C 386.414062 45.269531 386.898438 45.683594 387.476562 45.683594 Z M 381.175781 137.433594 C 380.578125 137.25 379.929688 137.59375 379.746094 138.21875 C 379.5625 138.839844 379.90625 139.464844 380.53125 139.648438 C 380.644531 139.671875 380.738281 139.695312 380.855469 139.695312 C 381.359375 139.695312 381.824219 139.371094 381.960938 138.863281 C 382.144531 138.265625 381.800781 137.617188 381.175781 137.433594 Z M 374.324219 49.582031 C 374.484375 49.582031 374.644531 49.558594 374.808594 49.46875 C 375.382812 49.191406 375.636719 48.523438 375.382812 47.945312 C 375.109375 47.367188 374.4375 47.113281 373.863281 47.367188 C 373.285156 47.621094 373.03125 48.3125 373.308594 48.890625 C 373.445312 49.328125 373.882812 49.582031 374.324219 49.582031 Z M 374.875 135.101562 C 374.300781 134.847656 373.609375 135.101562 373.355469 135.679688 C 373.101562 136.257812 373.355469 136.949219 373.929688 137.203125 C 374.09375 137.273438 374.253906 137.296875 374.414062 137.296875 C 374.855469 137.296875 375.269531 137.042969 375.453125 136.625 C 375.730469 136.050781 375.453125 135.355469 374.875 135.101562 Z M 380.761719 47.160156 C 380.875 47.160156 380.96875 47.136719 381.085938 47.113281 C 381.683594 46.929688 382.054688 46.285156 381.867188 45.683594 C 381.683594 45.082031 381.039062 44.714844 380.4375 44.898438 C 379.839844 45.082031 379.46875 45.730469 379.652344 46.328125 C 379.792969 46.835938 380.253906 47.160156 380.761719 47.160156 Z M 387.730469 138.863281 C 387.105469 138.773438 386.507812 139.210938 386.4375 139.832031 C 386.34375 140.457031 386.785156 141.058594 387.40625 141.148438 C 387.453125 141.148438 387.523438 141.148438 387.570312 141.148438 C 388.144531 141.148438 388.628906 140.734375 388.722656 140.15625 C 388.816406 139.535156 388.375 138.957031 387.730469 138.863281 Z M 346.515625 86.597656 C 346.5625 86.597656 346.632812 86.621094 346.679688 86.621094 C 347.253906 86.621094 347.738281 86.207031 347.808594 85.628906 C 347.902344 85.003906 347.460938 84.40625 346.839844 84.3125 C 346.214844 84.21875 345.617188 84.660156 345.546875 85.28125 C 345.433594 85.929688 345.871094 86.503906 346.515625 86.597656 Z M 347.347656 92.320312 C 347.347656 91.675781 346.839844 91.167969 346.195312 91.167969 C 345.546875 91.167969 345.039062 91.675781 345.039062 92.320312 C 345.039062 92.964844 345.546875 93.472656 346.195312 93.472656 C 346.839844 93.472656 347.347656 92.941406 347.347656 92.320312 Z M 347.832031 99.011719 C 347.738281 98.390625 347.164062 97.949219 346.515625 98.042969 C 345.894531 98.136719 345.453125 98.710938 345.546875 99.359375 C 345.640625 99.933594 346.125 100.351562 346.679688 100.351562 C 346.722656 100.351562 346.792969 100.351562 346.839844 100.328125 C 347.484375 100.234375 347.925781 99.636719 347.832031 99.011719 Z M 440.988281 85.464844 C 441.082031 86.042969 441.566406 86.457031 442.121094 86.457031 C 442.167969 86.457031 442.234375 86.457031 442.28125 86.4375 C 442.90625 86.34375 443.34375 85.765625 443.25 85.121094 C 443.160156 84.496094 442.582031 84.058594 441.9375 84.152344 C 441.335938 84.242188 440.898438 84.84375 440.988281 85.464844 Z M 347.785156 79.835938 C 347.902344 79.859375 347.992188 79.882812 348.109375 79.882812 C 348.617188 79.882812 349.078125 79.558594 349.214844 79.050781 C 349.402344 78.453125 349.03125 77.804688 348.433594 77.621094 C 347.832031 77.4375 347.1875 77.804688 347 78.40625 C 346.839844 79.027344 347.1875 79.652344 347.785156 79.835938 Z M 350.023438 73.328125 C 350.1875 73.398438 350.347656 73.445312 350.507812 73.445312 C 350.945312 73.445312 351.363281 73.191406 351.546875 72.773438 C 351.800781 72.199219 351.546875 71.503906 350.96875 71.25 C 350.394531 70.996094 349.699219 71.25 349.445312 71.828125 C 349.191406 72.382812 349.445312 73.074219 350.023438 73.328125 Z M 353.183594 67.214844 C 353.371094 67.328125 353.601562 67.398438 353.808594 67.398438 C 354.179688 67.398438 354.546875 67.214844 354.777344 66.867188 C 355.125 66.335938 354.960938 65.621094 354.429688 65.273438 C 353.902344 64.929688 353.183594 65.089844 352.839844 65.621094 C 352.492188 66.152344 352.65625 66.867188 353.183594 67.214844 Z M 347.832031 104.78125 C 347.230469 104.964844 346.863281 105.613281 347.046875 106.210938 C 347.1875 106.71875 347.648438 107.042969 348.15625 107.042969 C 348.269531 107.042969 348.386719 107.019531 348.476562 106.996094 C 349.078125 106.8125 349.445312 106.164062 349.261719 105.566406 C 349.078125 104.964844 348.433594 104.621094 347.832031 104.78125 Z M 353.230469 117.402344 C 352.699219 117.75 352.539062 118.464844 352.886719 118.996094 C 353.117188 119.34375 353.484375 119.527344 353.855469 119.527344 C 354.0625 119.527344 354.292969 119.480469 354.476562 119.34375 C 355.007812 118.996094 355.171875 118.28125 354.824219 117.75 C 354.476562 117.195312 353.761719 117.058594 353.230469 117.402344 Z M 357.9375 61.882812 C 358.261719 61.882812 358.585938 61.746094 358.816406 61.492188 C 359.230469 61.007812 359.183594 60.289062 358.699219 59.875 C 358.214844 59.460938 357.5 59.507812 357.0625 59.992188 C 356.648438 60.476562 356.691406 61.191406 357.175781 61.605469 C 357.386719 61.789062 357.664062 61.882812 357.9375 61.882812 Z M 350.070312 111.289062 C 349.492188 111.566406 349.238281 112.234375 349.492188 112.8125 C 349.679688 113.226562 350.09375 113.480469 350.53125 113.480469 C 350.691406 113.480469 350.855469 113.457031 351.015625 113.367188 C 351.59375 113.113281 351.847656 112.417969 351.59375 111.84375 C 351.339844 111.265625 350.648438 111.035156 350.070312 111.289062 Z M 425.230469 127.835938 C 424.742188 128.25 424.699219 128.988281 425.113281 129.449219 C 425.34375 129.703125 425.667969 129.839844 425.992188 129.839844 C 426.265625 129.839844 426.519531 129.75 426.75 129.566406 C 427.238281 129.148438 427.28125 128.410156 426.867188 127.949219 C 426.453125 127.464844 425.714844 127.417969 425.230469 127.835938 Z M 435.613281 117.359375 C 435.082031 117.011719 434.367188 117.171875 434.019531 117.703125 C 433.675781 118.234375 433.835938 118.949219 434.367188 119.296875 C 434.550781 119.410156 434.78125 119.480469 434.988281 119.480469 C 435.359375 119.480469 435.726562 119.296875 435.960938 118.949219 C 436.304688 118.417969 436.144531 117.703125 435.613281 117.359375 Z M 394.328125 45.199219 C 394.976562 45.199219 395.484375 44.691406 395.484375 44.046875 C 395.484375 43.398438 394.976562 42.890625 394.328125 42.890625 C 393.683594 42.890625 393.175781 43.398438 393.175781 44.046875 C 393.175781 44.691406 393.707031 45.199219 394.328125 45.199219 Z M 430.789062 61.769531 C 431.066406 61.769531 431.320312 61.675781 431.550781 61.492188 C 432.035156 61.074219 432.082031 60.335938 431.667969 59.875 C 431.25 59.390625 430.511719 59.34375 430.027344 59.761719 C 429.542969 60.175781 429.496094 60.914062 429.914062 61.398438 C 430.144531 61.628906 430.46875 61.769531 430.789062 61.769531 Z M 429.980469 123.082031 C 429.566406 123.566406 429.613281 124.28125 430.097656 124.695312 C 430.304688 124.878906 430.582031 124.972656 430.859375 124.972656 C 431.183594 124.972656 431.503906 124.835938 431.734375 124.582031 C 432.152344 124.097656 432.105469 123.378906 431.621094 122.964844 C 431.136719 122.550781 430.398438 122.597656 429.980469 123.082031 Z M 437.183594 72.613281 C 437.390625 73.027344 437.804688 73.28125 438.242188 73.28125 C 438.40625 73.28125 438.566406 73.238281 438.726562 73.167969 C 439.304688 72.890625 439.558594 72.222656 439.304688 71.644531 C 439.027344 71.066406 438.359375 70.8125 437.78125 71.089844 C 437.183594 71.367188 436.929688 72.035156 437.183594 72.613281 Z M 443.78125 92.160156 C 443.78125 91.511719 443.273438 91.003906 442.628906 91.003906 C 441.980469 91.003906 441.472656 91.511719 441.472656 92.160156 L 441.472656 92.25 C 441.472656 92.898438 441.980469 93.40625 442.628906 93.40625 C 443.273438 93.40625 443.78125 92.898438 443.78125 92.25 C 443.78125 92.226562 443.78125 92.226562 443.78125 92.203125 C 443.78125 92.183594 443.78125 92.183594 443.78125 92.160156 Z M 438.773438 111.242188 C 438.199219 110.988281 437.503906 111.242188 437.25 111.820312 C 436.996094 112.394531 437.25 113.089844 437.828125 113.34375 C 437.988281 113.410156 438.152344 113.457031 438.3125 113.457031 C 438.75 113.457031 439.167969 113.203125 439.351562 112.789062 C 439.605469 112.1875 439.351562 111.519531 438.773438 111.242188 Z M 442.304688 97.972656 C 441.683594 97.882812 441.082031 98.320312 441.011719 98.941406 C 440.921875 99.566406 441.359375 100.167969 441.980469 100.234375 C 442.027344 100.234375 442.097656 100.257812 442.144531 100.257812 C 442.695312 100.257812 443.203125 99.84375 443.273438 99.265625 C 443.390625 98.644531 442.929688 98.066406 442.304688 97.972656 Z M 440.667969 79.722656 C 440.78125 79.722656 440.898438 79.699219 440.988281 79.675781 C 441.613281 79.488281 441.957031 78.84375 441.773438 78.242188 C 441.589844 77.644531 440.945312 77.273438 440.34375 77.460938 C 439.71875 77.644531 439.375 78.289062 439.558594 78.890625 C 439.699219 79.398438 440.160156 79.722656 440.667969 79.722656 Z M 441.011719 104.734375 C 440.390625 104.550781 439.765625 104.898438 439.582031 105.519531 C 439.398438 106.144531 439.742188 106.765625 440.367188 106.949219 C 440.480469 106.972656 440.574219 106.996094 440.691406 106.996094 C 441.199219 106.996094 441.660156 106.671875 441.796875 106.164062 C 441.980469 105.566406 441.636719 104.917969 441.011719 104.734375 Z M 434.921875 67.257812 C 435.128906 67.257812 435.359375 67.191406 435.542969 67.074219 C 436.074219 66.730469 436.234375 66.011719 435.890625 65.484375 C 435.542969 64.953125 434.828125 64.789062 434.296875 65.136719 C 433.765625 65.484375 433.605469 66.199219 433.953125 66.730469 C 434.183594 67.074219 434.550781 67.257812 434.921875 67.257812 Z M 401.136719 138.839844 C 400.515625 138.933594 400.074219 139.511719 400.167969 140.15625 C 400.261719 140.734375 400.746094 141.148438 401.300781 141.148438 C 401.34375 141.148438 401.414062 141.148438 401.460938 141.148438 C 402.082031 141.058594 402.523438 140.480469 402.429688 139.832031 C 402.359375 139.210938 401.761719 138.75 401.136719 138.839844 Z M 407.597656 47.066406 C 407.714844 47.089844 407.804688 47.113281 407.921875 47.113281 C 408.429688 47.113281 408.890625 46.792969 409.03125 46.285156 C 409.214844 45.683594 408.84375 45.039062 408.246094 44.851562 C 407.621094 44.667969 407 45.039062 406.8125 45.636719 C 406.628906 46.261719 406.976562 46.882812 407.597656 47.066406 Z M 401.023438 45.660156 C 401.066406 45.660156 401.136719 45.660156 401.183594 45.660156 C 401.761719 45.660156 402.246094 45.246094 402.3125 44.667969 C 402.40625 44.046875 401.96875 43.445312 401.34375 43.351562 C 400.722656 43.261719 400.121094 43.699219 400.03125 44.320312 C 399.960938 44.992188 400.398438 45.566406 401.023438 45.660156 Z M 407.691406 137.433594 C 407.089844 137.617188 406.722656 138.242188 406.90625 138.863281 C 407.042969 139.371094 407.507812 139.695312 408.015625 139.695312 C 408.128906 139.695312 408.222656 139.671875 408.335938 139.648438 C 408.9375 139.464844 409.304688 138.816406 409.121094 138.21875 C 408.9375 137.59375 408.3125 137.25 407.691406 137.433594 Z M 394.445312 139.324219 C 393.800781 139.324219 393.292969 139.832031 393.292969 140.480469 C 393.292969 141.125 393.800781 141.632812 394.445312 141.632812 C 395.089844 141.632812 395.597656 141.125 395.597656 140.480469 C 395.597656 139.832031 395.070312 139.324219 394.445312 139.324219 Z M 419.78125 52.628906 C 419.96875 52.746094 420.199219 52.8125 420.40625 52.8125 C 420.773438 52.8125 421.167969 52.628906 421.375 52.285156 C 421.722656 51.753906 421.558594 51.039062 421.027344 50.691406 C 420.5 50.34375 419.78125 50.507812 419.4375 51.039062 C 419.089844 51.566406 419.253906 52.285156 419.78125 52.628906 Z M 425.921875 56.921875 C 426.242188 56.921875 426.566406 56.78125 426.796875 56.53125 C 427.214844 56.042969 427.167969 55.328125 426.683594 54.914062 C 426.199219 54.5 425.484375 54.542969 425.042969 55.03125 C 424.628906 55.515625 424.675781 56.230469 425.160156 56.667969 C 425.390625 56.828125 425.644531 56.921875 425.921875 56.921875 Z M 419.875 131.847656 C 419.34375 132.195312 419.183594 132.910156 419.527344 133.441406 C 419.757812 133.789062 420.128906 133.972656 420.5 133.972656 C 420.707031 133.972656 420.9375 133.925781 421.121094 133.789062 C 421.652344 133.441406 421.8125 132.726562 421.46875 132.195312 C 421.121094 131.664062 420.40625 131.503906 419.875 131.847656 Z M 413.992188 135.078125 C 413.414062 135.332031 413.160156 136.027344 413.414062 136.601562 C 413.597656 137.019531 414.035156 137.273438 414.453125 137.273438 C 414.613281 137.273438 414.773438 137.25 414.9375 137.15625 C 415.515625 136.902344 415.765625 136.210938 415.515625 135.632812 C 415.238281 135.058594 414.566406 134.828125 413.992188 135.078125 Z M 413.898438 49.398438 C 414.058594 49.46875 414.222656 49.492188 414.382812 49.492188 C 414.820312 49.492188 415.238281 49.238281 415.421875 48.820312 C 415.675781 48.246094 415.421875 47.554688 414.84375 47.300781 C 414.269531 47.046875 413.574219 47.300781 413.320312 47.875 C 413.066406 48.453125 413.296875 49.144531 413.898438 49.398438 Z M 413.898438 49.398438 " fill-opacity="1" fill-rule="nonzero"/></g><g clip-path="url(#7692a4a5ef)"><g clip-path="url(#c10b72d6a9)"><path fill="#f6ac81" d="M 351.738281 48.703125 L 437.558594 48.703125 L 437.558594 134.523438 L 351.738281 134.523438 Z M 351.738281 48.703125 " fill-opacity="1" fill-rule="nonzero"/></g></g><g clip-path="url(#0614f16be3)"><g clip-path="url(#eb3b1059fb)"><path fill="#ffffff" d="M 357.652344 55.390625 L 431.175781 55.390625 L 431.175781 128.917969 L 357.652344 128.917969 Z M 357.652344 55.390625 " fill-opacity="1" fill-rule="nonzero"/></g></g><g clip-path="url(#075706a75a)"><g clip-path="url(#c7d797578a)"><path fill="#e1a4b6" d="M 312 155.027344 L 476.921875 155.027344 L 476.921875 205.894531 L 312 205.894531 Z M 312 155.027344 " fill-opacity="1" fill-rule="nonzero"/></g></g><g clip-path="url(#9733e762a8)"><g clip-path="url(#04a5e55b36)"><path fill="#e1a4b6" d="M 377.144531 145.8125 L 411.714844 145.8125 L 411.714844 164.246094 L 377.144531 164.246094 Z M 377.144531 145.8125 " fill-opacity="1" fill-rule="nonzero"/></g></g><path fill="#ba2d53" d="M 377.367188 105.0625 L 377.367188 107.273438 L 412.25 107.273438 L 412.25 105.0625 L 409.574219 105.0625 L 409.574219 86.953125 L 412.25 86.953125 L 412.25 84.738281 L 377.367188 84.738281 L 377.367188 86.953125 L 380.042969 86.953125 L 380.042969 105.0625 Z M 386.96875 105.0625 L 386.96875 86.953125 L 391.34375 86.953125 L 391.34375 105.0625 Z M 398.273438 105.0625 L 398.273438 86.953125 L 402.648438 86.953125 L 402.648438 105.0625 Z M 407.363281 86.953125 L 407.363281 105.0625 L 404.859375 105.0625 L 404.859375 86.953125 Z M 396.0625 86.953125 L 396.0625 105.0625 L 393.558594 105.0625 L 393.558594 86.953125 Z M 382.253906 86.953125 L 384.757812 86.953125 L 384.757812 105.0625 L 382.253906 105.0625 Z M 382.253906 86.953125 " fill-opacity="1" fill-rule="nonzero"/><path fill="#ba2d53" d="M 414.160156 109.476562 L 375.460938 109.476562 C 374.847656 109.476562 374.355469 109.972656 374.355469 110.585938 C 374.355469 111.195312 374.847656 111.691406 375.460938 111.691406 L 414.160156 111.691406 C 414.769531 111.691406 415.265625 111.195312 415.265625 110.585938 C 415.265625 109.972656 414.769531 109.476562 414.160156 109.476562 Z M 414.160156 109.476562 " fill-opacity="1" fill-rule="nonzero"/><path fill="#ba2d53" d="M 415.25 81.28125 C 415.246094 81.253906 415.246094 81.222656 415.238281 81.199219 C 415.230469 81.160156 415.21875 81.125 415.207031 81.089844 C 415.195312 81.058594 415.1875 81.023438 415.175781 80.992188 C 415.160156 80.960938 415.140625 80.929688 415.125 80.898438 C 415.105469 80.867188 415.09375 80.835938 415.074219 80.808594 C 415.054688 80.777344 415.027344 80.753906 415.007812 80.726562 C 414.984375 80.699219 414.960938 80.667969 414.933594 80.644531 C 414.914062 80.621094 414.890625 80.605469 414.867188 80.585938 C 414.835938 80.558594 414.800781 80.53125 414.761719 80.503906 C 414.757812 80.503906 414.757812 80.5 414.753906 80.496094 L 395.402344 68.183594 C 395.042969 67.953125 394.578125 67.953125 394.214844 68.183594 L 374.867188 80.496094 C 374.863281 80.5 374.859375 80.503906 374.855469 80.503906 C 374.816406 80.53125 374.785156 80.558594 374.75 80.585938 C 374.730469 80.605469 374.703125 80.621094 374.683594 80.644531 C 374.65625 80.667969 374.636719 80.699219 374.613281 80.726562 C 374.589844 80.753906 374.566406 80.777344 374.546875 80.808594 C 374.527344 80.835938 374.511719 80.867188 374.496094 80.898438 C 374.480469 80.929688 374.457031 80.960938 374.445312 80.992188 C 374.429688 81.023438 374.425781 81.058594 374.414062 81.089844 C 374.402344 81.125 374.386719 81.160156 374.378906 81.199219 C 374.375 81.222656 374.375 81.253906 374.371094 81.28125 C 374.363281 81.324219 374.355469 81.371094 374.355469 81.417969 C 374.355469 81.421875 374.355469 81.425781 374.355469 81.429688 C 374.355469 81.453125 374.359375 81.476562 374.363281 81.5 C 374.363281 81.542969 374.367188 81.589844 374.375 81.632812 C 374.382812 81.667969 374.394531 81.699219 374.402344 81.734375 C 374.414062 81.769531 374.421875 81.804688 374.433594 81.839844 C 374.449219 81.878906 374.472656 81.914062 374.492188 81.949219 C 374.503906 81.976562 374.511719 82 374.527344 82.023438 C 374.53125 82.027344 374.535156 82.03125 374.535156 82.035156 C 374.558594 82.070312 374.585938 82.097656 374.609375 82.128906 C 374.632812 82.15625 374.652344 82.183594 374.675781 82.207031 C 374.695312 82.226562 374.714844 82.242188 374.734375 82.257812 C 374.769531 82.289062 374.804688 82.320312 374.839844 82.34375 C 374.855469 82.355469 374.875 82.363281 374.890625 82.375 C 374.933594 82.398438 374.980469 82.425781 375.027344 82.445312 C 375.046875 82.453125 375.066406 82.460938 375.089844 82.46875 C 375.136719 82.484375 375.183594 82.5 375.230469 82.511719 C 375.25 82.515625 375.273438 82.515625 375.296875 82.519531 C 375.347656 82.527344 375.398438 82.535156 375.449219 82.535156 C 375.453125 82.535156 375.457031 82.535156 375.460938 82.535156 L 414.160156 82.535156 C 414.246094 82.535156 414.328125 82.523438 414.410156 82.503906 C 414.433594 82.5 414.453125 82.492188 414.472656 82.484375 C 414.535156 82.464844 414.589844 82.445312 414.644531 82.417969 C 414.671875 82.40625 414.695312 82.390625 414.71875 82.378906 C 414.769531 82.347656 414.820312 82.3125 414.863281 82.273438 C 414.882812 82.257812 414.902344 82.246094 414.921875 82.226562 C 414.984375 82.167969 415.039062 82.105469 415.082031 82.03125 C 415.085938 82.027344 415.089844 82.027344 415.09375 82.023438 C 415.105469 82 415.117188 81.972656 415.128906 81.949219 C 415.148438 81.914062 415.167969 81.878906 415.183594 81.839844 C 415.199219 81.804688 415.207031 81.769531 415.21875 81.730469 C 415.226562 81.699219 415.238281 81.667969 415.242188 81.632812 C 415.253906 81.589844 415.253906 81.542969 415.257812 81.5 C 415.257812 81.476562 415.265625 81.453125 415.265625 81.429688 C 415.265625 81.425781 415.261719 81.421875 415.261719 81.414062 C 415.261719 81.371094 415.257812 81.324219 415.25 81.28125 Z M 394.808594 70.425781 L 410.359375 80.324219 L 379.257812 80.324219 Z M 394.808594 70.425781 " fill-opacity="1" fill-rule="nonzero"/><g clip-path="url(#7d4433f279)"><path fill="#ba2d53" d="M 394.808594 58.976562 C 376.515625 58.976562 361.632812 73.859375 361.632812 92.152344 C 361.632812 110.445312 376.515625 125.328125 394.808594 125.328125 C 413.101562 125.328125 427.984375 110.445312 427.984375 92.152344 C 427.984375 73.859375 413.101562 58.976562 394.808594 58.976562 Z M 394.808594 123.117188 C 377.734375 123.117188 363.84375 109.226562 363.84375 92.152344 C 363.84375 75.078125 377.734375 61.1875 394.808594 61.1875 C 411.882812 61.1875 425.773438 75.078125 425.773438 92.152344 C 425.773438 109.226562 411.882812 123.117188 394.808594 123.117188 Z M 394.808594 123.117188 " fill-opacity="1" fill-rule="nonzero"/></g><g fill="#404040" fill-opacity="1"><g transform="translate(349.871293, 189.037753)"><g><path d="M 2.140625 0 L 2.140625 -19.140625 L 9.078125 -19.140625 C 11.585938 -19.140625 13.445312 -18.707031 14.65625 -17.84375 C 15.875 -16.988281 16.484375 -15.75 16.484375 -14.125 C 16.484375 -13.164062 16.238281 -12.335938 15.75 -11.640625 C 15.257812 -10.941406 14.394531 -10.332031 13.15625 -9.8125 C 13.957031 -9.601562 14.601562 -9.328125 15.09375 -8.984375 C 15.59375 -8.640625 15.972656 -8.257812 16.234375 -7.84375 C 16.503906 -7.425781 16.6875 -6.988281 16.78125 -6.53125 C 16.875 -6.070312 16.921875 -5.625 16.921875 -5.1875 C 16.921875 -3.425781 16.320312 -2.117188 15.125 -1.265625 C 13.925781 -0.421875 12.015625 0 9.390625 0 Z M 6 -2.984375 L 9.46875 -2.984375 C 10.632812 -2.984375 11.515625 -3.21875 12.109375 -3.6875 C 12.710938 -4.15625 13.015625 -4.785156 13.015625 -5.578125 C 13.015625 -6.140625 12.867188 -6.609375 12.578125 -6.984375 C 12.285156 -7.367188 11.890625 -7.660156 11.390625 -7.859375 C 10.890625 -8.054688 10.320312 -8.15625 9.6875 -8.15625 L 6 -8.15625 Z M 6 -11.21875 L 9.6875 -11.21875 C 10.082031 -11.21875 10.460938 -11.265625 10.828125 -11.359375 C 11.191406 -11.453125 11.515625 -11.59375 11.796875 -11.78125 C 12.085938 -11.976562 12.316406 -12.226562 12.484375 -12.53125 C 12.660156 -12.84375 12.75 -13.207031 12.75 -13.625 C 12.75 -14.445312 12.4375 -15.070312 11.8125 -15.5 C 11.1875 -15.925781 10.390625 -16.140625 9.421875 -16.140625 L 6 -16.140625 Z M 6 -11.21875 "/></g></g></g><g fill="#404040" fill-opacity="1"><g transform="translate(367.984483, 189.037753)"><g><path d="M 0.734375 0 L 7.578125 -19.140625 L 11.65625 -19.140625 L 18.5 0 L 14.65625 0 L 13.09375 -4.4375 L 6.203125 -4.4375 L 4.609375 0 Z M 7.0625 -7.8125 L 12.15625 -7.8125 L 9.640625 -15.40625 Z M 7.0625 -7.8125 "/></g></g></g><g fill="#404040" fill-opacity="1"><g transform="translate(387.209077, 189.037753)"><g><path d="M 14.703125 -19.140625 L 18.5625 -19.140625 L 18.5625 0 L 15.09375 0 L 6 -13.171875 L 6 0 L 2.140625 0 L 2.140625 -19.140625 L 5.96875 -19.140625 L 14.703125 -6.46875 Z M 14.703125 -19.140625 "/></g></g></g><g fill="#404040" fill-opacity="1"><g transform="translate(407.902315, 189.037753)"><g><path d="M 9.9375 -19.40625 C 11.375 -19.40625 12.65625 -19.113281 13.78125 -18.53125 C 14.90625 -17.957031 15.8125 -17.171875 16.5 -16.171875 C 17.195312 -15.171875 17.609375 -14.046875 17.734375 -12.796875 L 13.6875 -12.796875 C 13.5625 -13.460938 13.332031 -14.050781 13 -14.5625 C 12.675781 -15.082031 12.25 -15.488281 11.71875 -15.78125 C 11.195312 -16.070312 10.5625 -16.21875 9.8125 -16.21875 C 8.925781 -16.21875 8.160156 -16 7.515625 -15.5625 C 6.867188 -15.132812 6.375 -14.441406 6.03125 -13.484375 C 5.6875 -12.523438 5.515625 -11.253906 5.515625 -9.671875 C 5.515625 -7.285156 5.894531 -5.5625 6.65625 -4.5 C 7.425781 -3.4375 8.476562 -2.90625 9.8125 -2.90625 C 10.5625 -2.90625 11.195312 -3.078125 11.71875 -3.421875 C 12.25 -3.765625 12.675781 -4.210938 13 -4.765625 C 13.332031 -5.328125 13.5625 -5.945312 13.6875 -6.625 L 17.734375 -6.625 C 17.617188 -5.707031 17.394531 -4.835938 17.0625 -4.015625 C 16.738281 -3.191406 16.273438 -2.457031 15.671875 -1.8125 C 15.078125 -1.164062 14.304688 -0.65625 13.359375 -0.28125 C 12.421875 0.0820312 11.28125 0.265625 9.9375 0.265625 C 8.15625 0.265625 6.613281 -0.144531 5.3125 -0.96875 C 4.019531 -1.800781 3.019531 -2.96875 2.3125 -4.46875 C 1.613281 -5.96875 1.265625 -7.722656 1.265625 -9.734375 C 1.265625 -11.742188 1.613281 -13.46875 2.3125 -14.90625 C 3.007812 -16.351562 4.003906 -17.460938 5.296875 -18.234375 C 6.597656 -19.015625 8.144531 -19.40625 9.9375 -19.40625 Z M 9.9375 -19.40625 "/></g></g></g><g fill="#404040" fill-opacity="1"><g transform="translate(426.901989, 189.037753)"><g><path d="M 10.09375 0.265625 C 8.289062 0.265625 6.726562 -0.128906 5.40625 -0.921875 C 4.082031 -1.710938 3.0625 -2.835938 2.34375 -4.296875 C 1.625 -5.753906 1.265625 -7.5 1.265625 -9.53125 C 1.265625 -11.5625 1.628906 -13.3125 2.359375 -14.78125 C 3.085938 -16.257812 4.113281 -17.398438 5.4375 -18.203125 C 6.757812 -19.003906 8.3125 -19.40625 10.09375 -19.40625 C 11.875 -19.40625 13.421875 -19.003906 14.734375 -18.203125 C 16.046875 -17.410156 17.0625 -16.273438 17.78125 -14.796875 C 18.5 -13.328125 18.859375 -11.570312 18.859375 -9.53125 C 18.859375 -7.507812 18.503906 -5.765625 17.796875 -4.296875 C 17.085938 -2.835938 16.070312 -1.710938 14.75 -0.921875 C 13.4375 -0.128906 11.882812 0.265625 10.09375 0.265625 Z M 10.09375 -2.90625 C 11.03125 -2.90625 11.835938 -3.128906 12.515625 -3.578125 C 13.203125 -4.023438 13.726562 -4.726562 14.09375 -5.6875 C 14.46875 -6.65625 14.65625 -7.914062 14.65625 -9.46875 C 14.65625 -11.070312 14.46875 -12.363281 14.09375 -13.34375 C 13.71875 -14.332031 13.1875 -15.054688 12.5 -15.515625 C 11.820312 -15.984375 11.019531 -16.21875 10.09375 -16.21875 C 9.164062 -16.21875 8.359375 -15.984375 7.671875 -15.515625 C 6.984375 -15.054688 6.445312 -14.332031 6.0625 -13.34375 C 5.6875 -12.351562 5.5 -11.0625 5.5 -9.46875 C 5.5 -7.914062 5.6875 -6.65625 6.0625 -5.6875 C 6.445312 -4.726562 6.984375 -4.023438 7.671875 -3.578125 C 8.359375 -3.128906 9.164062 -2.90625 10.09375 -2.90625 Z M 10.09375 -2.90625 "/></g></g></g><g fill="#404040" fill-opacity="1"><g transform="translate(447.035055, 189.037753)"><g/></g></g><path stroke-linecap="butt" transform="matrix(0.75, -0.000000000000001488, 0.000000000000001488, 0.75, 158.353855, 96.065771)" fill="none" stroke-linejoin="miter" d="M 0.00215223 2.000847 L 229.496963 2.000847 " stroke="#ba2d53" stroke-width="4" stroke-opacity="1" stroke-miterlimit="4"/><g fill="#ba2d53" fill-opacity="1"><g transform="translate(222.096172, 90.797813)"><g><path d="M 8.25 -4.71875 L 3.4375 -4.71875 L 3.4375 0 L 1.234375 0 L 1.234375 -10.984375 L 3.4375 -10.984375 L 3.4375 -6.578125 L 8.25 -6.578125 L 8.25 -10.984375 L 10.46875 -10.984375 L 10.46875 0 L 8.25 0 Z M 8.25 -4.71875 "/></g></g></g><g fill="#ba2d53" fill-opacity="1"><g transform="translate(233.79954, 90.797813)"><g><path d="M 0.28125 -9.015625 L 0.28125 -10.984375 L 9.078125 -10.984375 L 9.078125 -9.015625 L 5.84375 -9.015625 L 5.84375 0 L 3.609375 0 L 3.609375 -9.015625 Z M 0.28125 -9.015625 "/></g></g></g><g fill="#ba2d53" fill-opacity="1"><g transform="translate(243.162237, 90.797813)"><g><path d="M 0.28125 -9.015625 L 0.28125 -10.984375 L 9.078125 -10.984375 L 9.078125 -9.015625 L 5.84375 -9.015625 L 5.84375 0 L 3.609375 0 L 3.609375 -9.015625 Z M 0.28125 -9.015625 "/></g></g></g><g fill="#ba2d53" fill-opacity="1"><g transform="translate(252.524934, 90.797813)"><g><path d="M 1.234375 0 L 1.234375 -10.984375 L 5.28125 -10.984375 C 6.070312 -10.984375 6.785156 -10.84375 7.421875 -10.5625 C 8.054688 -10.289062 8.554688 -9.882812 8.921875 -9.34375 C 9.296875 -8.8125 9.484375 -8.160156 9.484375 -7.390625 C 9.484375 -6.660156 9.316406 -6.035156 8.984375 -5.515625 C 8.660156 -5.003906 8.207031 -4.609375 7.625 -4.328125 C 7.039062 -4.054688 6.351562 -3.921875 5.5625 -3.921875 L 3.46875 -3.921875 L 3.46875 0 Z M 3.4375 -5.640625 L 5.5 -5.640625 C 6.0625 -5.640625 6.519531 -5.816406 6.875 -6.171875 C 7.226562 -6.535156 7.40625 -6.976562 7.40625 -7.5 C 7.40625 -8.050781 7.21875 -8.484375 6.84375 -8.796875 C 6.46875 -9.117188 6.007812 -9.28125 5.46875 -9.28125 L 3.4375 -9.28125 Z M 3.4375 -5.640625 "/></g></g></g><g fill="#ba2d53" fill-opacity="1"><g transform="translate(197.963474, 111.794816)"><g><path d="M 4.3125 -8.015625 C 4.976562 -8.015625 5.550781 -7.878906 6.03125 -7.609375 C 6.507812 -7.335938 6.882812 -6.972656 7.15625 -6.515625 C 7.4375 -6.066406 7.59375 -5.5625 7.625 -5 L 5.78125 -5 C 5.75 -5.207031 5.675781 -5.410156 5.5625 -5.609375 C 5.445312 -5.816406 5.285156 -5.988281 5.078125 -6.125 C 4.878906 -6.257812 4.628906 -6.328125 4.328125 -6.328125 C 3.816406 -6.328125 3.398438 -6.125 3.078125 -5.71875 C 2.753906 -5.320312 2.59375 -4.722656 2.59375 -3.921875 C 2.59375 -3.148438 2.75 -2.539062 3.0625 -2.09375 C 3.375 -1.644531 3.8125 -1.421875 4.375 -1.421875 C 4.675781 -1.421875 4.925781 -1.492188 5.125 -1.640625 C 5.320312 -1.785156 5.476562 -1.960938 5.59375 -2.171875 C 5.707031 -2.378906 5.78125 -2.570312 5.8125 -2.75 L 7.609375 -2.75 C 7.578125 -2.207031 7.421875 -1.710938 7.140625 -1.265625 C 6.859375 -0.828125 6.476562 -0.476562 6 -0.21875 C 5.519531 0.03125 4.957031 0.15625 4.3125 0.15625 C 3.582031 0.15625 2.929688 -0.00390625 2.359375 -0.328125 C 1.785156 -0.660156 1.335938 -1.128906 1.015625 -1.734375 C 0.691406 -2.335938 0.53125 -3.0625 0.53125 -3.90625 C 0.53125 -4.707031 0.6875 -5.414062 1 -6.03125 C 1.3125 -6.65625 1.75 -7.140625 2.3125 -7.484375 C 2.882812 -7.835938 3.550781 -8.015625 4.3125 -8.015625 Z M 4.3125 -8.015625 "/></g></g></g><g fill="#ba2d53" fill-opacity="1"><g transform="translate(206.171039, 111.794816)"><g><path d="M 0.953125 0 L 0.953125 -7.859375 L 3.09375 -7.859375 L 3.09375 -6 C 3.21875 -6.394531 3.394531 -6.742188 3.625 -7.046875 C 3.851562 -7.347656 4.128906 -7.582031 4.453125 -7.75 C 4.785156 -7.925781 5.160156 -8.015625 5.578125 -8.015625 C 5.648438 -8.015625 5.71875 -8.007812 5.78125 -8 C 5.84375 -7.988281 5.890625 -7.976562 5.921875 -7.96875 L 5.921875 -5.859375 C 5.878906 -5.878906 5.820312 -5.890625 5.75 -5.890625 C 5.6875 -5.898438 5.632812 -5.90625 5.59375 -5.90625 C 5.15625 -5.9375 4.78125 -5.921875 4.46875 -5.859375 C 4.15625 -5.804688 3.898438 -5.707031 3.703125 -5.5625 C 3.515625 -5.414062 3.378906 -5.234375 3.296875 -5.015625 C 3.210938 -4.804688 3.171875 -4.566406 3.171875 -4.296875 L 3.171875 0 Z M 0.953125 0 "/></g></g></g><g fill="#ba2d53" fill-opacity="1"><g transform="translate(212.349509, 111.794816)"><g><path d="M 3.1875 -7.859375 L 3.1875 0 L 1.0625 0 L 1.0625 -7.859375 Z M 3.203125 -10.984375 L 3.203125 -8.984375 L 1.046875 -8.984375 L 1.046875 -10.984375 Z M 3.203125 -10.984375 "/></g></g></g><g fill="#ba2d53" fill-opacity="1"><g transform="translate(216.597681, 111.794816)"><g><path d="M 3.234375 0.15625 C 2.734375 0.15625 2.28125 0.0625 1.875 -0.125 C 1.476562 -0.3125 1.160156 -0.582031 0.921875 -0.9375 C 0.691406 -1.300781 0.578125 -1.738281 0.578125 -2.25 C 0.578125 -3.113281 0.898438 -3.769531 1.546875 -4.21875 C 2.191406 -4.664062 3.207031 -4.894531 4.59375 -4.90625 L 5.578125 -4.921875 L 5.578125 -5.390625 C 5.578125 -5.753906 5.46875 -6.03125 5.25 -6.21875 C 5.039062 -6.414062 4.71875 -6.515625 4.28125 -6.515625 C 3.957031 -6.503906 3.648438 -6.425781 3.359375 -6.28125 C 3.066406 -6.132812 2.867188 -5.878906 2.765625 -5.515625 L 0.90625 -5.515625 C 0.9375 -6.085938 1.101562 -6.554688 1.40625 -6.921875 C 1.707031 -7.285156 2.113281 -7.554688 2.625 -7.734375 C 3.132812 -7.921875 3.71875 -8.015625 4.375 -8.015625 C 5.1875 -8.015625 5.832031 -7.910156 6.3125 -7.703125 C 6.800781 -7.503906 7.15625 -7.21875 7.375 -6.84375 C 7.59375 -6.476562 7.703125 -6.039062 7.703125 -5.53125 L 7.703125 0 L 5.84375 0 L 5.65625 -1.359375 C 5.394531 -0.785156 5.0625 -0.390625 4.65625 -0.171875 C 4.25 0.046875 3.773438 0.15625 3.234375 0.15625 Z M 3.96875 -1.3125 C 4.175781 -1.3125 4.375 -1.347656 4.5625 -1.421875 C 4.75 -1.492188 4.914062 -1.59375 5.0625 -1.71875 C 5.21875 -1.84375 5.34375 -1.984375 5.4375 -2.140625 C 5.53125 -2.296875 5.578125 -2.457031 5.578125 -2.625 L 5.578125 -3.78125 L 4.78125 -3.765625 C 4.40625 -3.765625 4.054688 -3.722656 3.734375 -3.640625 C 3.421875 -3.554688 3.164062 -3.421875 2.96875 -3.234375 C 2.769531 -3.046875 2.671875 -2.789062 2.671875 -2.46875 C 2.671875 -2.101562 2.796875 -1.816406 3.046875 -1.609375 C 3.304688 -1.410156 3.613281 -1.3125 3.96875 -1.3125 Z M 3.96875 -1.3125 "/></g></g></g><g fill="#ba2d53" fill-opacity="1"><g transform="translate(225.314416, 111.794816)"><g><path d="M 0.953125 0 L 0.953125 -7.859375 L 3.09375 -7.859375 L 3.09375 -6 C 3.21875 -6.394531 3.394531 -6.742188 3.625 -7.046875 C 3.851562 -7.347656 4.128906 -7.582031 4.453125 -7.75 C 4.785156 -7.925781 5.160156 -8.015625 5.578125 -8.015625 C 5.648438 -8.015625 5.71875 -8.007812 5.78125 -8 C 5.84375 -7.988281 5.890625 -7.976562 5.921875 -7.96875 L 5.921875 -5.859375 C 5.878906 -5.878906 5.820312 -5.890625 5.75 -5.890625 C 5.6875 -5.898438 5.632812 -5.90625 5.59375 -5.90625 C 5.15625 -5.9375 4.78125 -5.921875 4.46875 -5.859375 C 4.15625 -5.804688 3.898438 -5.707031 3.703125 -5.5625 C 3.515625 -5.414062 3.378906 -5.234375 3.296875 -5.015625 C 3.210938 -4.804688 3.171875 -4.566406 3.171875 -4.296875 L 3.171875 0 Z M 0.953125 0 "/></g></g></g><g fill="#ba2d53" fill-opacity="1"><g transform="translate(231.492886, 111.794816)"><g><path d="M 7.46875 0.484375 L 7.46875 2.09375 L 0.875 2.09375 L 0.875 0.5 Z M 7.46875 0.484375 "/></g></g></g><g fill="#ba2d53" fill-opacity="1"><g transform="translate(239.898033, 111.794816)"><g><path d="M 4.3125 -8.015625 C 4.976562 -8.015625 5.550781 -7.878906 6.03125 -7.609375 C 6.507812 -7.335938 6.882812 -6.972656 7.15625 -6.515625 C 7.4375 -6.066406 7.59375 -5.5625 7.625 -5 L 5.78125 -5 C 5.75 -5.207031 5.675781 -5.410156 5.5625 -5.609375 C 5.445312 -5.816406 5.285156 -5.988281 5.078125 -6.125 C 4.878906 -6.257812 4.628906 -6.328125 4.328125 -6.328125 C 3.816406 -6.328125 3.398438 -6.125 3.078125 -5.71875 C 2.753906 -5.320312 2.59375 -4.722656 2.59375 -3.921875 C 2.59375 -3.148438 2.75 -2.539062 3.0625 -2.09375 C 3.375 -1.644531 3.8125 -1.421875 4.375 -1.421875 C 4.675781 -1.421875 4.925781 -1.492188 5.125 -1.640625 C 5.320312 -1.785156 5.476562 -1.960938 5.59375 -2.171875 C 5.707031 -2.378906 5.78125 -2.570312 5.8125 -2.75 L 7.609375 -2.75 C 7.578125 -2.207031 7.421875 -1.710938 7.140625 -1.265625 C 6.859375 -0.828125 6.476562 -0.476562 6 -0.21875 C 5.519531 0.03125 4.957031 0.15625 4.3125 0.15625 C 3.582031 0.15625 2.929688 -0.00390625 2.359375 -0.328125 C 1.785156 -0.660156 1.335938 -1.128906 1.015625 -1.734375 C 0.691406 -2.335938 0.53125 -3.0625 0.53125 -3.90625 C 0.53125 -4.707031 0.6875 -5.414062 1 -6.03125 C 1.3125 -6.65625 1.75 -7.140625 2.3125 -7.484375 C 2.882812 -7.835938 3.550781 -8.015625 4.3125 -8.015625 Z M 4.3125 -8.015625 "/></g></g></g><g fill="#ba2d53" fill-opacity="1"><g transform="translate(248.105598, 111.794816)"><g><path d="M 4.328125 0.15625 C 3.554688 0.15625 2.882812 -0.0078125 2.3125 -0.34375 C 1.738281 -0.675781 1.296875 -1.140625 0.984375 -1.734375 C 0.679688 -2.335938 0.53125 -3.054688 0.53125 -3.890625 C 0.53125 -4.710938 0.679688 -5.429688 0.984375 -6.046875 C 1.296875 -6.671875 1.738281 -7.15625 2.3125 -7.5 C 2.882812 -7.84375 3.554688 -8.015625 4.328125 -8.015625 C 5.109375 -8.015625 5.78125 -7.84375 6.34375 -7.5 C 6.914062 -7.164062 7.351562 -6.6875 7.65625 -6.0625 C 7.96875 -5.445312 8.125 -4.722656 8.125 -3.890625 C 8.125 -3.097656 7.972656 -2.394531 7.671875 -1.78125 C 7.367188 -1.175781 6.9375 -0.703125 6.375 -0.359375 C 5.8125 -0.015625 5.128906 0.15625 4.328125 0.15625 Z M 4.328125 -1.5 C 4.722656 -1.5 5.035156 -1.613281 5.265625 -1.84375 C 5.503906 -2.070312 5.675781 -2.367188 5.78125 -2.734375 C 5.894531 -3.109375 5.953125 -3.515625 5.953125 -3.953125 C 5.953125 -4.367188 5.898438 -4.757812 5.796875 -5.125 C 5.703125 -5.5 5.535156 -5.800781 5.296875 -6.03125 C 5.066406 -6.257812 4.742188 -6.375 4.328125 -6.375 C 3.941406 -6.375 3.628906 -6.265625 3.390625 -6.046875 C 3.148438 -5.835938 2.972656 -5.546875 2.859375 -5.171875 C 2.742188 -4.804688 2.6875 -4.398438 2.6875 -3.953125 C 2.6875 -3.546875 2.738281 -3.15625 2.84375 -2.78125 C 2.945312 -2.40625 3.113281 -2.097656 3.34375 -1.859375 C 3.582031 -1.617188 3.910156 -1.5 4.328125 -1.5 Z M 4.328125 -1.5 "/></g></g></g><g fill="#ba2d53" fill-opacity="1"><g transform="translate(256.753932, 111.794816)"><g><path d="M 0.953125 0 L 0.953125 -7.859375 L 3.125 -7.859375 L 3.125 -6.75 C 3.25 -6.9375 3.410156 -7.117188 3.609375 -7.296875 C 3.804688 -7.484375 4.050781 -7.632812 4.34375 -7.75 C 4.644531 -7.863281 5 -7.921875 5.40625 -7.921875 C 5.894531 -7.921875 6.347656 -7.828125 6.765625 -7.640625 C 7.179688 -7.453125 7.515625 -7.15625 7.765625 -6.75 C 8.023438 -6.351562 8.15625 -5.832031 8.15625 -5.1875 L 8.15625 0 L 5.9375 0 L 5.9375 -4.90625 C 5.9375 -5.332031 5.8125 -5.648438 5.5625 -5.859375 C 5.3125 -6.078125 5.003906 -6.1875 4.640625 -6.1875 C 4.390625 -6.1875 4.148438 -6.140625 3.921875 -6.046875 C 3.703125 -5.960938 3.519531 -5.832031 3.375 -5.65625 C 3.238281 -5.488281 3.171875 -5.28125 3.171875 -5.03125 L 3.171875 0 Z M 0.953125 0 "/></g></g></g><g fill="#ba2d53" fill-opacity="1"><g transform="translate(265.767046, 111.794816)"><g><path d="M 5.734375 -6.3125 L 3.984375 -6.3125 L 4 -2.125 C 4 -1.9375 4.023438 -1.796875 4.078125 -1.703125 C 4.128906 -1.609375 4.207031 -1.546875 4.3125 -1.515625 C 4.414062 -1.484375 4.546875 -1.46875 4.703125 -1.46875 L 5.765625 -1.46875 L 5.765625 -0.109375 C 5.660156 -0.0546875 5.5 -0.015625 5.28125 0.015625 C 5.070312 0.0546875 4.773438 0.078125 4.390625 0.078125 C 3.703125 0.078125 3.164062 -0.0078125 2.78125 -0.1875 C 2.40625 -0.363281 2.144531 -0.609375 2 -0.921875 C 1.851562 -1.242188 1.78125 -1.613281 1.78125 -2.03125 L 1.78125 -6.3125 L 0.5 -6.3125 L 0.5 -7.859375 L 1.859375 -7.859375 L 2.40625 -10.234375 L 3.984375 -10.234375 L 3.984375 -7.875 L 5.734375 -7.875 Z M 5.734375 -6.3125 "/></g></g></g><g fill="#ba2d53" fill-opacity="1"><g transform="translate(272.188703, 111.794816)"><g><path d="M 3.234375 0.15625 C 2.734375 0.15625 2.28125 0.0625 1.875 -0.125 C 1.476562 -0.3125 1.160156 -0.582031 0.921875 -0.9375 C 0.691406 -1.300781 0.578125 -1.738281 0.578125 -2.25 C 0.578125 -3.113281 0.898438 -3.769531 1.546875 -4.21875 C 2.191406 -4.664062 3.207031 -4.894531 4.59375 -4.90625 L 5.578125 -4.921875 L 5.578125 -5.390625 C 5.578125 -5.753906 5.46875 -6.03125 5.25 -6.21875 C 5.039062 -6.414062 4.71875 -6.515625 4.28125 -6.515625 C 3.957031 -6.503906 3.648438 -6.425781 3.359375 -6.28125 C 3.066406 -6.132812 2.867188 -5.878906 2.765625 -5.515625 L 0.90625 -5.515625 C 0.9375 -6.085938 1.101562 -6.554688 1.40625 -6.921875 C 1.707031 -7.285156 2.113281 -7.554688 2.625 -7.734375 C 3.132812 -7.921875 3.71875 -8.015625 4.375 -8.015625 C 5.1875 -8.015625 5.832031 -7.910156 6.3125 -7.703125 C 6.800781 -7.503906 7.15625 -7.21875 7.375 -6.84375 C 7.59375 -6.476562 7.703125 -6.039062 7.703125 -5.53125 L 7.703125 0 L 5.84375 0 L 5.65625 -1.359375 C 5.394531 -0.785156 5.0625 -0.390625 4.65625 -0.171875 C 4.25 0.046875 3.773438 0.15625 3.234375 0.15625 Z M 3.96875 -1.3125 C 4.175781 -1.3125 4.375 -1.347656 4.5625 -1.421875 C 4.75 -1.492188 4.914062 -1.59375 5.0625 -1.71875 C 5.21875 -1.84375 5.34375 -1.984375 5.4375 -2.140625 C 5.53125 -2.296875 5.578125 -2.457031 5.578125 -2.625 L 5.578125 -3.78125 L 4.78125 -3.765625 C 4.40625 -3.765625 4.054688 -3.722656 3.734375 -3.640625 C 3.421875 -3.554688 3.164062 -3.421875 2.96875 -3.234375 C 2.769531 -3.046875 2.671875 -2.789062 2.671875 -2.46875 C 2.671875 -2.101562 2.796875 -1.816406 3.046875 -1.609375 C 3.304688 -1.410156 3.613281 -1.3125 3.96875 -1.3125 Z M 3.96875 -1.3125 "/></g></g></g><g fill="#ba2d53" fill-opacity="1"><g transform="translate(280.905438, 111.794816)"><g><path d="M 4.640625 -11.265625 C 4.109375 -10.273438 3.679688 -9.195312 3.359375 -8.03125 C 3.046875 -6.875 2.890625 -5.691406 2.890625 -4.484375 C 2.890625 -3.335938 3.03125 -2.226562 3.3125 -1.15625 C 3.601562 -0.0820312 4.023438 1.023438 4.578125 2.171875 L 3.015625 2.171875 C 2.597656 1.460938 2.226562 0.757812 1.90625 0.0625 C 1.582031 -0.625 1.332031 -1.335938 1.15625 -2.078125 C 0.988281 -2.828125 0.90625 -3.632812 0.90625 -4.5 C 0.90625 -5.757812 1.101562 -6.960938 1.5 -8.109375 C 1.894531 -9.265625 2.414062 -10.316406 3.0625 -11.265625 Z M 4.640625 -11.265625 "/></g></g></g><g fill="#ba2d53" fill-opacity="1"><g transform="translate(285.96677, 111.794816)"><g><path d="M 0.171875 -11.265625 C 0.703125 -10.273438 1.125 -9.195312 1.4375 -8.03125 C 1.757812 -6.875 1.921875 -5.691406 1.921875 -4.484375 C 1.921875 -3.335938 1.773438 -2.226562 1.484375 -1.15625 C 1.203125 -0.0820312 0.785156 1.023438 0.234375 2.171875 L 1.796875 2.171875 C 2.210938 1.460938 2.582031 0.757812 2.90625 0.0625 C 3.226562 -0.625 3.472656 -1.335938 3.640625 -2.078125 C 3.816406 -2.828125 3.90625 -3.632812 3.90625 -4.5 C 3.90625 -5.757812 3.707031 -6.960938 3.3125 -8.109375 C 2.914062 -9.265625 2.394531 -10.316406 1.75 -11.265625 Z M 0.171875 -11.265625 "/></g></g></g><path stroke-linecap="butt" transform="matrix(0.75, 0, 0, 0.75, 92.914426, 205.89593)" fill="none" stroke-linejoin="miter" d="M 1.999516 18.211678 L 1.999516 36.711679 C 1.999516 41.623138 3.947433 46.326264 7.416183 49.795014 C 10.890142 53.263764 15.593267 55.211681 20.499518 55.211681 L 377.999547 55.211681 C 391.254756 55.211681 401.999549 44.466888 401.999549 31.211679 L 401.999549 -0.0018653 " stroke="#ba2d53" stroke-width="4" stroke-opacity="1" stroke-miterlimit="4"/><path stroke-linecap="round" transform="matrix(0.75, 0, 0, 0.75, 92.914426, 205.89593)" fill-opacity="1" fill="#ba2d53" fill-rule="nonzero" stroke-linejoin="round" d="M 7.999517 17.211678 L 1.999516 9.211677 L -4.000484 17.211678 Z M 7.999517 17.211678 " stroke="#ba2d53" stroke-width="4" stroke-opacity="1" stroke-miterlimit="4"/><g fill="#ba2d53" fill-opacity="1"><g transform="translate(224.354097, 243.384472)"><g><path d="M 8.25 -4.71875 L 3.4375 -4.71875 L 3.4375 0 L 1.234375 0 L 1.234375 -10.984375 L 3.4375 -10.984375 L 3.4375 -6.578125 L 8.25 -6.578125 L 8.25 -10.984375 L 10.46875 -10.984375 L 10.46875 0 L 8.25 0 Z M 8.25 -4.71875 "/></g></g></g><g fill="#ba2d53" fill-opacity="1"><g transform="translate(236.057465, 243.384472)"><g><path d="M 0.28125 -9.015625 L 0.28125 -10.984375 L 9.078125 -10.984375 L 9.078125 -9.015625 L 5.84375 -9.015625 L 5.84375 0 L 3.609375 0 L 3.609375 -9.015625 Z M 0.28125 -9.015625 "/></g></g></g><g fill="#ba2d53" fill-opacity="1"><g transform="translate(245.420162, 243.384472)"><g><path d="M 0.28125 -9.015625 L 0.28125 -10.984375 L 9.078125 -10.984375 L 9.078125 -9.015625 L 5.84375 -9.015625 L 5.84375 0 L 3.609375 0 L 3.609375 -9.015625 Z M 0.28125 -9.015625 "/></g></g></g><g fill="#ba2d53" fill-opacity="1"><g transform="translate(254.782859, 243.384472)"><g><path d="M 1.234375 0 L 1.234375 -10.984375 L 5.28125 -10.984375 C 6.070312 -10.984375 6.785156 -10.84375 7.421875 -10.5625 C 8.054688 -10.289062 8.554688 -9.882812 8.921875 -9.34375 C 9.296875 -8.8125 9.484375 -8.160156 9.484375 -7.390625 C 9.484375 -6.660156 9.316406 -6.035156 8.984375 -5.515625 C 8.660156 -5.003906 8.207031 -4.609375 7.625 -4.328125 C 7.039062 -4.054688 6.351562 -3.921875 5.5625 -3.921875 L 3.46875 -3.921875 L 3.46875 0 Z M 3.4375 -5.640625 L 5.5 -5.640625 C 6.0625 -5.640625 6.519531 -5.816406 6.875 -6.171875 C 7.226562 -6.535156 7.40625 -6.976562 7.40625 -7.5 C 7.40625 -8.050781 7.21875 -8.484375 6.84375 -8.796875 C 6.46875 -9.117188 6.007812 -9.28125 5.46875 -9.28125 L 3.4375 -9.28125 Z M 3.4375 -5.640625 "/></g></g></g><g fill="#ba2d53" fill-opacity="1"><g transform="translate(213.096173, 262.842547)"><g><path d="M 4.0625 0.15625 C 3.507812 0.15625 2.976562 0.0664062 2.46875 -0.109375 C 1.96875 -0.296875 1.539062 -0.582031 1.1875 -0.96875 C 0.84375 -1.351562 0.625 -1.859375 0.53125 -2.484375 L 2.453125 -2.484375 C 2.515625 -2.203125 2.632812 -1.976562 2.8125 -1.8125 C 2.988281 -1.65625 3.1875 -1.539062 3.40625 -1.46875 C 3.625 -1.40625 3.835938 -1.375 4.046875 -1.375 C 4.472656 -1.375 4.816406 -1.4375 5.078125 -1.5625 C 5.335938 -1.695312 5.46875 -1.90625 5.46875 -2.1875 C 5.46875 -2.40625 5.390625 -2.578125 5.234375 -2.703125 C 5.078125 -2.828125 4.820312 -2.921875 4.46875 -2.984375 L 3.09375 -3.28125 C 2.394531 -3.425781 1.832031 -3.671875 1.40625 -4.015625 C 0.988281 -4.367188 0.773438 -4.875 0.765625 -5.53125 C 0.765625 -6 0.890625 -6.421875 1.140625 -6.796875 C 1.390625 -7.171875 1.757812 -7.46875 2.25 -7.6875 C 2.75 -7.90625 3.351562 -8.015625 4.0625 -8.015625 C 5.03125 -8.015625 5.804688 -7.800781 6.390625 -7.375 C 6.972656 -6.945312 7.269531 -6.347656 7.28125 -5.578125 L 5.421875 -5.578125 C 5.367188 -5.878906 5.21875 -6.109375 4.96875 -6.265625 C 4.71875 -6.429688 4.410156 -6.515625 4.046875 -6.515625 C 3.660156 -6.515625 3.34375 -6.445312 3.09375 -6.3125 C 2.84375 -6.175781 2.71875 -5.96875 2.71875 -5.6875 C 2.71875 -5.476562 2.816406 -5.316406 3.015625 -5.203125 C 3.222656 -5.085938 3.539062 -4.984375 3.96875 -4.890625 L 5.25 -4.609375 C 5.6875 -4.503906 6.039062 -4.359375 6.3125 -4.171875 C 6.59375 -3.984375 6.804688 -3.78125 6.953125 -3.5625 C 7.109375 -3.34375 7.210938 -3.125 7.265625 -2.90625 C 7.328125 -2.6875 7.359375 -2.488281 7.359375 -2.3125 C 7.359375 -1.789062 7.21875 -1.34375 6.9375 -0.96875 C 6.664062 -0.601562 6.28125 -0.320312 5.78125 -0.125 C 5.289062 0.0625 4.71875 0.15625 4.0625 0.15625 Z M 4.0625 0.15625 "/></g></g></g><g fill="#ba2d53" fill-opacity="1"><g transform="translate(221.060551, 262.842547)"><g><path d="M 3.84375 0.15625 C 3.476562 0.15625 3.117188 0.0976562 2.765625 -0.015625 C 2.421875 -0.128906 2.101562 -0.296875 1.8125 -0.515625 C 1.519531 -0.734375 1.285156 -1 1.109375 -1.3125 C 0.929688 -1.632812 0.84375 -2.003906 0.84375 -2.421875 L 0.84375 -7.859375 L 3.078125 -7.859375 L 3.078125 -2.703125 C 3.078125 -2.335938 3.191406 -2.035156 3.421875 -1.796875 C 3.660156 -1.566406 4.015625 -1.453125 4.484375 -1.453125 C 4.910156 -1.453125 5.253906 -1.566406 5.515625 -1.796875 C 5.773438 -2.023438 5.90625 -2.34375 5.90625 -2.75 L 5.90625 -7.859375 L 8.09375 -7.859375 L 8.09375 0 L 6.421875 0 L 6.171875 -1.5625 C 6.078125 -1.09375 5.90625 -0.734375 5.65625 -0.484375 C 5.40625 -0.242188 5.117188 -0.078125 4.796875 0.015625 C 4.472656 0.109375 4.15625 0.15625 3.84375 0.15625 Z M 3.84375 0.15625 "/></g></g></g><g fill="#ba2d53" fill-opacity="1"><g transform="translate(230.005275, 262.842547)"><g><path d="M 4.3125 -8.015625 C 4.976562 -8.015625 5.550781 -7.878906 6.03125 -7.609375 C 6.507812 -7.335938 6.882812 -6.972656 7.15625 -6.515625 C 7.4375 -6.066406 7.59375 -5.5625 7.625 -5 L 5.78125 -5 C 5.75 -5.207031 5.675781 -5.410156 5.5625 -5.609375 C 5.445312 -5.816406 5.285156 -5.988281 5.078125 -6.125 C 4.878906 -6.257812 4.628906 -6.328125 4.328125 -6.328125 C 3.816406 -6.328125 3.398438 -6.125 3.078125 -5.71875 C 2.753906 -5.320312 2.59375 -4.722656 2.59375 -3.921875 C 2.59375 -3.148438 2.75 -2.539062 3.0625 -2.09375 C 3.375 -1.644531 3.8125 -1.421875 4.375 -1.421875 C 4.675781 -1.421875 4.925781 -1.492188 5.125 -1.640625 C 5.320312 -1.785156 5.476562 -1.960938 5.59375 -2.171875 C 5.707031 -2.378906 5.78125 -2.570312 5.8125 -2.75 L 7.609375 -2.75 C 7.578125 -2.207031 7.421875 -1.710938 7.140625 -1.265625 C 6.859375 -0.828125 6.476562 -0.476562 6 -0.21875 C 5.519531 0.03125 4.957031 0.15625 4.3125 0.15625 C 3.582031 0.15625 2.929688 -0.00390625 2.359375 -0.328125 C 1.785156 -0.660156 1.335938 -1.128906 1.015625 -1.734375 C 0.691406 -2.335938 0.53125 -3.0625 0.53125 -3.90625 C 0.53125 -4.707031 0.6875 -5.414062 1 -6.03125 C 1.3125 -6.65625 1.75 -7.140625 2.3125 -7.484375 C 2.882812 -7.835938 3.550781 -8.015625 4.3125 -8.015625 Z M 4.3125 -8.015625 "/></g></g></g><g fill="#ba2d53" fill-opacity="1"><g transform="translate(238.212839, 262.842547)"><g><path d="M 2.78125 -3.421875 C 2.769531 -3.015625 2.828125 -2.664062 2.953125 -2.375 C 3.085938 -2.082031 3.28125 -1.851562 3.53125 -1.6875 C 3.789062 -1.53125 4.097656 -1.453125 4.453125 -1.453125 C 4.828125 -1.453125 5.15625 -1.53125 5.4375 -1.6875 C 5.726562 -1.851562 5.929688 -2.125 6.046875 -2.5 L 8.046875 -2.5 C 7.953125 -1.9375 7.726562 -1.457031 7.375 -1.0625 C 7.019531 -0.664062 6.585938 -0.363281 6.078125 -0.15625 C 5.578125 0.0507812 5.050781 0.15625 4.5 0.15625 C 3.726562 0.15625 3.046875 -0.00390625 2.453125 -0.328125 C 1.859375 -0.660156 1.394531 -1.125 1.0625 -1.71875 C 0.738281 -2.320312 0.578125 -3.03125 0.578125 -3.84375 C 0.578125 -4.625 0.722656 -5.328125 1.015625 -5.953125 C 1.316406 -6.585938 1.753906 -7.085938 2.328125 -7.453125 C 2.898438 -7.828125 3.585938 -8.015625 4.390625 -8.015625 C 5.191406 -8.015625 5.863281 -7.84375 6.40625 -7.5 C 6.945312 -7.164062 7.351562 -6.695312 7.625 -6.09375 C 7.90625 -5.5 8.046875 -4.804688 8.046875 -4.015625 L 8.046875 -3.421875 Z M 2.765625 -4.75 L 5.96875 -4.75 C 5.96875 -5.0625 5.910156 -5.347656 5.796875 -5.609375 C 5.679688 -5.867188 5.503906 -6.078125 5.265625 -6.234375 C 5.035156 -6.390625 4.742188 -6.46875 4.390625 -6.46875 C 4.046875 -6.46875 3.75 -6.382812 3.5 -6.21875 C 3.257812 -6.050781 3.078125 -5.832031 2.953125 -5.5625 C 2.828125 -5.300781 2.765625 -5.03125 2.765625 -4.75 Z M 2.765625 -4.75 "/></g></g></g><g fill="#ba2d53" fill-opacity="1"><g transform="translate(246.853574, 262.842547)"><g><path d="M 4.0625 0.15625 C 3.507812 0.15625 2.976562 0.0664062 2.46875 -0.109375 C 1.96875 -0.296875 1.539062 -0.582031 1.1875 -0.96875 C 0.84375 -1.351562 0.625 -1.859375 0.53125 -2.484375 L 2.453125 -2.484375 C 2.515625 -2.203125 2.632812 -1.976562 2.8125 -1.8125 C 2.988281 -1.65625 3.1875 -1.539062 3.40625 -1.46875 C 3.625 -1.40625 3.835938 -1.375 4.046875 -1.375 C 4.472656 -1.375 4.816406 -1.4375 5.078125 -1.5625 C 5.335938 -1.695312 5.46875 -1.90625 5.46875 -2.1875 C 5.46875 -2.40625 5.390625 -2.578125 5.234375 -2.703125 C 5.078125 -2.828125 4.820312 -2.921875 4.46875 -2.984375 L 3.09375 -3.28125 C 2.394531 -3.425781 1.832031 -3.671875 1.40625 -4.015625 C 0.988281 -4.367188 0.773438 -4.875 0.765625 -5.53125 C 0.765625 -6 0.890625 -6.421875 1.140625 -6.796875 C 1.390625 -7.171875 1.757812 -7.46875 2.25 -7.6875 C 2.75 -7.90625 3.351562 -8.015625 4.0625 -8.015625 C 5.03125 -8.015625 5.804688 -7.800781 6.390625 -7.375 C 6.972656 -6.945312 7.269531 -6.347656 7.28125 -5.578125 L 5.421875 -5.578125 C 5.367188 -5.878906 5.21875 -6.109375 4.96875 -6.265625 C 4.71875 -6.429688 4.410156 -6.515625 4.046875 -6.515625 C 3.660156 -6.515625 3.34375 -6.445312 3.09375 -6.3125 C 2.84375 -6.175781 2.71875 -5.96875 2.71875 -5.6875 C 2.71875 -5.476562 2.816406 -5.316406 3.015625 -5.203125 C 3.222656 -5.085938 3.539062 -4.984375 3.96875 -4.890625 L 5.25 -4.609375 C 5.6875 -4.503906 6.039062 -4.359375 6.3125 -4.171875 C 6.59375 -3.984375 6.804688 -3.78125 6.953125 -3.5625 C 7.109375 -3.34375 7.210938 -3.125 7.265625 -2.90625 C 7.328125 -2.6875 7.359375 -2.488281 7.359375 -2.3125 C 7.359375 -1.789062 7.21875 -1.34375 6.9375 -0.96875 C 6.664062 -0.601562 6.28125 -0.320312 5.78125 -0.125 C 5.289062 0.0625 4.71875 0.15625 4.0625 0.15625 Z M 4.0625 0.15625 "/></g></g></g><g fill="#ba2d53" fill-opacity="1"><g transform="translate(254.817952, 262.842547)"><g><path d="M 4.0625 0.15625 C 3.507812 0.15625 2.976562 0.0664062 2.46875 -0.109375 C 1.96875 -0.296875 1.539062 -0.582031 1.1875 -0.96875 C 0.84375 -1.351562 0.625 -1.859375 0.53125 -2.484375 L 2.453125 -2.484375 C 2.515625 -2.203125 2.632812 -1.976562 2.8125 -1.8125 C 2.988281 -1.65625 3.1875 -1.539062 3.40625 -1.46875 C 3.625 -1.40625 3.835938 -1.375 4.046875 -1.375 C 4.472656 -1.375 4.816406 -1.4375 5.078125 -1.5625 C 5.335938 -1.695312 5.46875 -1.90625 5.46875 -2.1875 C 5.46875 -2.40625 5.390625 -2.578125 5.234375 -2.703125 C 5.078125 -2.828125 4.820312 -2.921875 4.46875 -2.984375 L 3.09375 -3.28125 C 2.394531 -3.425781 1.832031 -3.671875 1.40625 -4.015625 C 0.988281 -4.367188 0.773438 -4.875 0.765625 -5.53125 C 0.765625 -6 0.890625 -6.421875 1.140625 -6.796875 C 1.390625 -7.171875 1.757812 -7.46875 2.25 -7.6875 C 2.75 -7.90625 3.351562 -8.015625 4.0625 -8.015625 C 5.03125 -8.015625 5.804688 -7.800781 6.390625 -7.375 C 6.972656 -6.945312 7.269531 -6.347656 7.28125 -5.578125 L 5.421875 -5.578125 C 5.367188 -5.878906 5.21875 -6.109375 4.96875 -6.265625 C 4.71875 -6.429688 4.410156 -6.515625 4.046875 -6.515625 C 3.660156 -6.515625 3.34375 -6.445312 3.09375 -6.3125 C 2.84375 -6.175781 2.71875 -5.96875 2.71875 -5.6875 C 2.71875 -5.476562 2.816406 -5.316406 3.015625 -5.203125 C 3.222656 -5.085938 3.539062 -4.984375 3.96875 -4.890625 L 5.25 -4.609375 C 5.6875 -4.503906 6.039062 -4.359375 6.3125 -4.171875 C 6.59375 -3.984375 6.804688 -3.78125 6.953125 -3.5625 C 7.109375 -3.34375 7.210938 -3.125 7.265625 -2.90625 C 7.328125 -2.6875 7.359375 -2.488281 7.359375 -2.3125 C 7.359375 -1.789062 7.21875 -1.34375 6.9375 -0.96875 C 6.664062 -0.601562 6.28125 -0.320312 5.78125 -0.125 C 5.289062 0.0625 4.71875 0.15625 4.0625 0.15625 Z M 4.0625 0.15625 "/></g></g></g><g fill="#ba2d53" fill-opacity="1"><g transform="translate(262.78233, 262.842547)"><g><path d="M 4.328125 0.15625 C 3.554688 0.15625 2.882812 -0.0078125 2.3125 -0.34375 C 1.738281 -0.675781 1.296875 -1.140625 0.984375 -1.734375 C 0.679688 -2.335938 0.53125 -3.054688 0.53125 -3.890625 C 0.53125 -4.710938 0.679688 -5.429688 0.984375 -6.046875 C 1.296875 -6.671875 1.738281 -7.15625 2.3125 -7.5 C 2.882812 -7.84375 3.554688 -8.015625 4.328125 -8.015625 C 5.109375 -8.015625 5.78125 -7.84375 6.34375 -7.5 C 6.914062 -7.164062 7.351562 -6.6875 7.65625 -6.0625 C 7.96875 -5.445312 8.125 -4.722656 8.125 -3.890625 C 8.125 -3.097656 7.972656 -2.394531 7.671875 -1.78125 C 7.367188 -1.175781 6.9375 -0.703125 6.375 -0.359375 C 5.8125 -0.015625 5.128906 0.15625 4.328125 0.15625 Z M 4.328125 -1.5 C 4.722656 -1.5 5.035156 -1.613281 5.265625 -1.84375 C 5.503906 -2.070312 5.675781 -2.367188 5.78125 -2.734375 C 5.894531 -3.109375 5.953125 -3.515625 5.953125 -3.953125 C 5.953125 -4.367188 5.898438 -4.757812 5.796875 -5.125 C 5.703125 -5.5 5.535156 -5.800781 5.296875 -6.03125 C 5.066406 -6.257812 4.742188 -6.375 4.328125 -6.375 C 3.941406 -6.375 3.628906 -6.265625 3.390625 -6.046875 C 3.148438 -5.835938 2.972656 -5.546875 2.859375 -5.171875 C 2.742188 -4.804688 2.6875 -4.398438 2.6875 -3.953125 C 2.6875 -3.546875 2.738281 -3.15625 2.84375 -2.78125 C 2.945312 -2.40625 3.113281 -2.097656 3.34375 -1.859375 C 3.582031 -1.617188 3.910156 -1.5 4.328125 -1.5 Z M 4.328125 -1.5 "/></g></g></g><g fill="#ba2d53" fill-opacity="1"><g transform="translate(401.027058, 226.491603)"><g><path d="M 7.703125 -7.859375 L 4.765625 0 L 3.15625 0 L 0.203125 -7.859375 L 2.203125 -7.859375 L 3.921875 -2.84375 L 3.984375 -2.84375 L 5.671875 -7.859375 Z M 7.703125 -7.859375 "/></g></g></g><g fill="#ba2d53" fill-opacity="1"><g transform="translate(408.930633, 226.491603)"><g><path d="M 3.234375 0.15625 C 2.734375 0.15625 2.28125 0.0625 1.875 -0.125 C 1.476562 -0.3125 1.160156 -0.582031 0.921875 -0.9375 C 0.691406 -1.300781 0.578125 -1.738281 0.578125 -2.25 C 0.578125 -3.113281 0.898438 -3.769531 1.546875 -4.21875 C 2.191406 -4.664062 3.207031 -4.894531 4.59375 -4.90625 L 5.578125 -4.921875 L 5.578125 -5.390625 C 5.578125 -5.753906 5.46875 -6.03125 5.25 -6.21875 C 5.039062 -6.414062 4.71875 -6.515625 4.28125 -6.515625 C 3.957031 -6.503906 3.648438 -6.425781 3.359375 -6.28125 C 3.066406 -6.132812 2.867188 -5.878906 2.765625 -5.515625 L 0.90625 -5.515625 C 0.9375 -6.085938 1.101562 -6.554688 1.40625 -6.921875 C 1.707031 -7.285156 2.113281 -7.554688 2.625 -7.734375 C 3.132812 -7.921875 3.71875 -8.015625 4.375 -8.015625 C 5.1875 -8.015625 5.832031 -7.910156 6.3125 -7.703125 C 6.800781 -7.503906 7.15625 -7.21875 7.375 -6.84375 C 7.59375 -6.476562 7.703125 -6.039062 7.703125 -5.53125 L 7.703125 0 L 5.84375 0 L 5.65625 -1.359375 C 5.394531 -0.785156 5.0625 -0.390625 4.65625 -0.171875 C 4.25 0.046875 3.773438 0.15625 3.234375 0.15625 Z M 3.96875 -1.3125 C 4.175781 -1.3125 4.375 -1.347656 4.5625 -1.421875 C 4.75 -1.492188 4.914062 -1.59375 5.0625 -1.71875 C 5.21875 -1.84375 5.34375 -1.984375 5.4375 -2.140625 C 5.53125 -2.296875 5.578125 -2.457031 5.578125 -2.625 L 5.578125 -3.78125 L 4.78125 -3.765625 C 4.40625 -3.765625 4.054688 -3.722656 3.734375 -3.640625 C 3.421875 -3.554688 3.164062 -3.421875 2.96875 -3.234375 C 2.769531 -3.046875 2.671875 -2.789062 2.671875 -2.46875 C 2.671875 -2.101562 2.796875 -1.816406 3.046875 -1.609375 C 3.304688 -1.410156 3.613281 -1.3125 3.96875 -1.3125 Z M 3.96875 -1.3125 "/></g></g></g><g fill="#ba2d53" fill-opacity="1"><g transform="translate(417.647368, 226.491603)"><g><path d="M 3.453125 0.140625 C 2.878906 0.140625 2.421875 0.0703125 2.078125 -0.0625 C 1.742188 -0.207031 1.492188 -0.390625 1.328125 -0.609375 C 1.171875 -0.835938 1.066406 -1.085938 1.015625 -1.359375 C 0.972656 -1.640625 0.953125 -1.921875 0.953125 -2.203125 L 0.953125 -11.296875 L 3.125 -11.296875 L 3.125 -2.484375 C 3.125 -2.191406 3.1875 -1.953125 3.3125 -1.765625 C 3.4375 -1.585938 3.671875 -1.476562 4.015625 -1.4375 L 4.390625 -1.421875 L 4.390625 -0.046875 C 4.234375 -0.00390625 4.078125 0.0351562 3.921875 0.078125 C 3.765625 0.117188 3.609375 0.140625 3.453125 0.140625 Z M 3.453125 0.140625 "/></g></g></g><g fill="#ba2d53" fill-opacity="1"><g transform="translate(422.587107, 226.491603)"><g><path d="M 3.1875 -7.859375 L 3.1875 0 L 1.0625 0 L 1.0625 -7.859375 Z M 3.203125 -10.984375 L 3.203125 -8.984375 L 1.046875 -8.984375 L 1.046875 -10.984375 Z M 3.203125 -10.984375 "/></g></g></g><g fill="#ba2d53" fill-opacity="1"><g transform="translate(426.83528, 226.491603)"><g><path d="M 3.875 0.15625 C 2.8125 0.15625 1.988281 -0.207031 1.40625 -0.9375 C 0.820312 -1.664062 0.53125 -2.675781 0.53125 -3.96875 C 0.53125 -4.789062 0.644531 -5.503906 0.875 -6.109375 C 1.113281 -6.710938 1.46875 -7.179688 1.9375 -7.515625 C 2.40625 -7.847656 2.976562 -8.015625 3.65625 -8.015625 C 3.9375 -8.015625 4.195312 -7.984375 4.4375 -7.921875 C 4.6875 -7.859375 4.910156 -7.769531 5.109375 -7.65625 C 5.316406 -7.539062 5.492188 -7.410156 5.640625 -7.265625 C 5.796875 -7.117188 5.921875 -6.960938 6.015625 -6.796875 L 6.015625 -11.296875 L 8.25 -11.296875 L 8.25 0 L 6.640625 0 L 6.390625 -1.609375 C 6.316406 -1.390625 6.21875 -1.175781 6.09375 -0.96875 C 5.96875 -0.757812 5.804688 -0.570312 5.609375 -0.40625 C 5.410156 -0.238281 5.164062 -0.101562 4.875 0 C 4.59375 0.101562 4.257812 0.15625 3.875 0.15625 Z M 4.359375 -1.4375 C 4.910156 -1.4375 5.320312 -1.628906 5.59375 -2.015625 C 5.875 -2.410156 6.015625 -3.070312 6.015625 -4 C 6.015625 -4.539062 5.953125 -4.988281 5.828125 -5.34375 C 5.703125 -5.695312 5.519531 -5.960938 5.28125 -6.140625 C 5.039062 -6.316406 4.738281 -6.40625 4.375 -6.40625 C 3.894531 -6.40625 3.492188 -6.21875 3.171875 -5.84375 C 2.847656 -5.476562 2.6875 -4.863281 2.6875 -4 C 2.6875 -3.125 2.835938 -2.476562 3.140625 -2.0625 C 3.441406 -1.644531 3.847656 -1.4375 4.359375 -1.4375 Z M 4.359375 -1.4375 "/></g></g></g><g fill="#ba2d53" fill-opacity="1"><g transform="translate(436.03079, 226.491603)"><g><path d="M 3.234375 0.15625 C 2.734375 0.15625 2.28125 0.0625 1.875 -0.125 C 1.476562 -0.3125 1.160156 -0.582031 0.921875 -0.9375 C 0.691406 -1.300781 0.578125 -1.738281 0.578125 -2.25 C 0.578125 -3.113281 0.898438 -3.769531 1.546875 -4.21875 C 2.191406 -4.664062 3.207031 -4.894531 4.59375 -4.90625 L 5.578125 -4.921875 L 5.578125 -5.390625 C 5.578125 -5.753906 5.46875 -6.03125 5.25 -6.21875 C 5.039062 -6.414062 4.71875 -6.515625 4.28125 -6.515625 C 3.957031 -6.503906 3.648438 -6.425781 3.359375 -6.28125 C 3.066406 -6.132812 2.867188 -5.878906 2.765625 -5.515625 L 0.90625 -5.515625 C 0.9375 -6.085938 1.101562 -6.554688 1.40625 -6.921875 C 1.707031 -7.285156 2.113281 -7.554688 2.625 -7.734375 C 3.132812 -7.921875 3.71875 -8.015625 4.375 -8.015625 C 5.1875 -8.015625 5.832031 -7.910156 6.3125 -7.703125 C 6.800781 -7.503906 7.15625 -7.21875 7.375 -6.84375 C 7.59375 -6.476562 7.703125 -6.039062 7.703125 -5.53125 L 7.703125 0 L 5.84375 0 L 5.65625 -1.359375 C 5.394531 -0.785156 5.0625 -0.390625 4.65625 -0.171875 C 4.25 0.046875 3.773438 0.15625 3.234375 0.15625 Z M 3.96875 -1.3125 C 4.175781 -1.3125 4.375 -1.347656 4.5625 -1.421875 C 4.75 -1.492188 4.914062 -1.59375 5.0625 -1.71875 C 5.21875 -1.84375 5.34375 -1.984375 5.4375 -2.140625 C 5.53125 -2.296875 5.578125 -2.457031 5.578125 -2.625 L 5.578125 -3.78125 L 4.78125 -3.765625 C 4.40625 -3.765625 4.054688 -3.722656 3.734375 -3.640625 C 3.421875 -3.554688 3.164062 -3.421875 2.96875 -3.234375 C 2.769531 -3.046875 2.671875 -2.789062 2.671875 -2.46875 C 2.671875 -2.101562 2.796875 -1.816406 3.046875 -1.609375 C 3.304688 -1.410156 3.613281 -1.3125 3.96875 -1.3125 Z M 3.96875 -1.3125 "/></g></g></g><g fill="#ba2d53" fill-opacity="1"><g transform="translate(444.747525, 226.491603)"><g><path d="M 4.640625 -11.265625 C 4.109375 -10.273438 3.679688 -9.195312 3.359375 -8.03125 C 3.046875 -6.875 2.890625 -5.691406 2.890625 -4.484375 C 2.890625 -3.335938 3.03125 -2.226562 3.3125 -1.15625 C 3.601562 -0.0820312 4.023438 1.023438 4.578125 2.171875 L 3.015625 2.171875 C 2.597656 1.460938 2.226562 0.757812 1.90625 0.0625 C 1.582031 -0.625 1.332031 -1.335938 1.15625 -2.078125 C 0.988281 -2.828125 0.90625 -3.632812 0.90625 -4.5 C 0.90625 -5.757812 1.101562 -6.960938 1.5 -8.109375 C 1.894531 -9.265625 2.414062 -10.316406 3.0625 -11.265625 Z M 4.640625 -11.265625 "/></g></g></g><g fill="#ba2d53" fill-opacity="1"><g transform="translate(449.808857, 226.491603)"><g><path d="M 0.171875 -11.265625 C 0.703125 -10.273438 1.125 -9.195312 1.4375 -8.03125 C 1.757812 -6.875 1.921875 -5.691406 1.921875 -4.484375 C 1.921875 -3.335938 1.773438 -2.226562 1.484375 -1.15625 C 1.203125 -0.0820312 0.785156 1.023438 0.234375 2.171875 L 1.796875 2.171875 C 2.210938 1.460938 2.582031 0.757812 2.90625 0.0625 C 3.226562 -0.625 3.472656 -1.335938 3.640625 -2.078125 C 3.816406 -2.828125 3.90625 -3.632812 3.90625 -4.5 C 3.90625 -5.757812 3.707031 -6.960938 3.3125 -8.109375 C 2.914062 -9.265625 2.394531 -10.316406 1.75 -11.265625 Z M 0.171875 -11.265625 "/></g></g></g><g fill="#404040" fill-opacity="1"><g transform="translate(131.177416, 35.391445)"><g><path d="M 10.890625 -21.25 C 12.460938 -21.25 13.863281 -20.929688 15.09375 -20.296875 C 16.332031 -19.671875 17.332031 -18.8125 18.09375 -17.71875 C 18.851562 -16.625 19.300781 -15.390625 19.4375 -14.015625 L 15 -14.015625 C 14.863281 -14.742188 14.613281 -15.390625 14.25 -15.953125 C 13.894531 -16.523438 13.425781 -16.972656 12.84375 -17.296875 C 12.269531 -17.617188 11.578125 -17.78125 10.765625 -17.78125 C 9.785156 -17.78125 8.941406 -17.539062 8.234375 -17.0625 C 7.523438 -16.59375 6.984375 -15.828125 6.609375 -14.765625 C 6.234375 -13.710938 6.046875 -12.320312 6.046875 -10.59375 C 6.046875 -7.988281 6.460938 -6.101562 7.296875 -4.9375 C 8.140625 -3.769531 9.296875 -3.1875 10.765625 -3.1875 C 11.578125 -3.1875 12.269531 -3.375 12.84375 -3.75 C 13.425781 -4.125 13.894531 -4.613281 14.25 -5.21875 C 14.613281 -5.832031 14.863281 -6.507812 15 -7.25 L 19.4375 -7.25 C 19.300781 -6.25 19.054688 -5.296875 18.703125 -4.390625 C 18.347656 -3.492188 17.84375 -2.691406 17.1875 -1.984375 C 16.53125 -1.273438 15.679688 -0.71875 14.640625 -0.3125 C 13.609375 0.09375 12.359375 0.296875 10.890625 0.296875 C 8.929688 0.296875 7.242188 -0.15625 5.828125 -1.0625 C 4.410156 -1.976562 3.316406 -3.253906 2.546875 -4.890625 C 1.773438 -6.535156 1.390625 -8.457031 1.390625 -10.65625 C 1.390625 -12.863281 1.769531 -14.753906 2.53125 -16.328125 C 3.300781 -17.910156 4.394531 -19.125 5.8125 -19.96875 C 7.238281 -20.820312 8.929688 -21.25 10.890625 -21.25 Z M 10.890625 -21.25 "/></g></g></g><g fill="#404040" fill-opacity="1"><g transform="translate(154.893774, 35.391445)"><g><path d="M 18.625 0 L 14.21875 0 L 10.8125 -8.078125 L 6.5625 -8.078125 L 6.5625 0 L 2.34375 0 L 2.34375 -20.96875 L 11.1875 -20.96875 C 12.863281 -20.96875 14.234375 -20.703125 15.296875 -20.171875 C 16.359375 -19.640625 17.140625 -18.898438 17.640625 -17.953125 C 18.148438 -17.015625 18.40625 -15.929688 18.40625 -14.703125 C 18.40625 -13.597656 18.234375 -12.664062 17.890625 -11.90625 C 17.546875 -11.144531 17.09375 -10.515625 16.53125 -10.015625 C 15.976562 -9.515625 15.375 -9.101562 14.71875 -8.78125 Z M 10.4375 -11.34375 C 11.570312 -11.34375 12.46875 -11.644531 13.125 -12.25 C 13.789062 -12.863281 14.125 -13.644531 14.125 -14.59375 C 14.125 -15.5625 13.800781 -16.328125 13.15625 -16.890625 C 12.519531 -17.453125 11.71875 -17.734375 10.75 -17.734375 L 6.5625 -17.734375 L 6.5625 -11.34375 Z M 10.4375 -11.34375 "/></g></g></g><g fill="#404040" fill-opacity="1"><g transform="translate(177.972306, 35.391445)"><g><path d="M 2.34375 -20.96875 L 6.5625 -20.96875 L 6.5625 0 L 2.34375 0 Z M 2.34375 -20.96875 "/></g></g></g><g fill="#404040" fill-opacity="1"><g transform="translate(189.787383, 35.391445)"><g><path d="M 0.796875 0 L 8.3125 -20.96875 L 12.78125 -20.96875 L 20.265625 0 L 16.046875 0 L 14.34375 -4.859375 L 6.796875 -4.859375 L 5.046875 0 Z M 7.75 -8.5625 L 13.328125 -8.5625 L 10.5625 -16.875 Z M 7.75 -8.5625 "/></g></g></g><g fill="#404040" fill-opacity="1"><g transform="translate(213.750176, 35.391445)"><g><path d="M 18.625 0 L 14.21875 0 L 10.8125 -8.078125 L 6.5625 -8.078125 L 6.5625 0 L 2.34375 0 L 2.34375 -20.96875 L 11.1875 -20.96875 C 12.863281 -20.96875 14.234375 -20.703125 15.296875 -20.171875 C 16.359375 -19.640625 17.140625 -18.898438 17.640625 -17.953125 C 18.148438 -17.015625 18.40625 -15.929688 18.40625 -14.703125 C 18.40625 -13.597656 18.234375 -12.664062 17.890625 -11.90625 C 17.546875 -11.144531 17.09375 -10.515625 16.53125 -10.015625 C 15.976562 -9.515625 15.375 -9.101562 14.71875 -8.78125 Z M 10.4375 -11.34375 C 11.570312 -11.34375 12.46875 -11.644531 13.125 -12.25 C 13.789062 -12.863281 14.125 -13.644531 14.125 -14.59375 C 14.125 -15.5625 13.800781 -16.328125 13.15625 -16.890625 C 12.519531 -17.453125 11.71875 -17.734375 10.75 -17.734375 L 6.5625 -17.734375 L 6.5625 -11.34375 Z M 10.4375 -11.34375 "/></g></g></g><g fill="#404040" fill-opacity="1"><g transform="translate(236.828713, 35.391445)"><g/></g></g><g fill="#404040" fill-opacity="1"><g transform="translate(245.875038, 35.391445)"><g><path d="M 10.890625 -21.25 C 12.460938 -21.25 13.863281 -20.929688 15.09375 -20.296875 C 16.332031 -19.671875 17.332031 -18.8125 18.09375 -17.71875 C 18.851562 -16.625 19.300781 -15.390625 19.4375 -14.015625 L 15 -14.015625 C 14.863281 -14.742188 14.613281 -15.390625 14.25 -15.953125 C 13.894531 -16.523438 13.425781 -16.972656 12.84375 -17.296875 C 12.269531 -17.617188 11.578125 -17.78125 10.765625 -17.78125 C 9.785156 -17.78125 8.941406 -17.539062 8.234375 -17.0625 C 7.523438 -16.59375 6.984375 -15.828125 6.609375 -14.765625 C 6.234375 -13.710938 6.046875 -12.320312 6.046875 -10.59375 C 6.046875 -7.988281 6.460938 -6.101562 7.296875 -4.9375 C 8.140625 -3.769531 9.296875 -3.1875 10.765625 -3.1875 C 11.578125 -3.1875 12.269531 -3.375 12.84375 -3.75 C 13.425781 -4.125 13.894531 -4.613281 14.25 -5.21875 C 14.613281 -5.832031 14.863281 -6.507812 15 -7.25 L 19.4375 -7.25 C 19.300781 -6.25 19.054688 -5.296875 18.703125 -4.390625 C 18.347656 -3.492188 17.84375 -2.691406 17.1875 -1.984375 C 16.53125 -1.273438 15.679688 -0.71875 14.640625 -0.3125 C 13.609375 0.09375 12.359375 0.296875 10.890625 0.296875 C 8.929688 0.296875 7.242188 -0.15625 5.828125 -1.0625 C 4.410156 -1.976562 3.316406 -3.253906 2.546875 -4.890625 C 1.773438 -6.535156 1.390625 -8.457031 1.390625 -10.65625 C 1.390625 -12.863281 1.769531 -14.753906 2.53125 -16.328125 C 3.300781 -17.910156 4.394531 -19.125 5.8125 -19.96875 C 7.238281 -20.820312 8.929688 -21.25 10.890625 -21.25 Z M 10.890625 -21.25 "/></g></g></g><g fill="#404040" fill-opacity="1"><g transform="translate(269.591395, 35.391445)"><g><path d="M 11.0625 0.296875 C 9.082031 0.296875 7.367188 -0.132812 5.921875 -1 C 4.472656 -1.875 3.351562 -3.109375 2.5625 -4.703125 C 1.78125 -6.304688 1.390625 -8.21875 1.390625 -10.4375 C 1.390625 -12.675781 1.785156 -14.597656 2.578125 -16.203125 C 3.378906 -17.816406 4.503906 -19.0625 5.953125 -19.9375 C 7.410156 -20.8125 9.113281 -21.25 11.0625 -21.25 C 13.007812 -21.25 14.703125 -20.8125 16.140625 -19.9375 C 17.578125 -19.070312 18.6875 -17.832031 19.46875 -16.21875 C 20.257812 -14.601562 20.65625 -12.675781 20.65625 -10.4375 C 20.65625 -8.226562 20.265625 -6.320312 19.484375 -4.71875 C 18.710938 -3.113281 17.601562 -1.875 16.15625 -1 C 14.71875 -0.132812 13.019531 0.296875 11.0625 0.296875 Z M 11.0625 -3.1875 C 12.082031 -3.1875 12.96875 -3.429688 13.71875 -3.921875 C 14.46875 -4.410156 15.046875 -5.179688 15.453125 -6.234375 C 15.859375 -7.296875 16.0625 -8.675781 16.0625 -10.375 C 16.0625 -12.125 15.851562 -13.539062 15.4375 -14.625 C 15.03125 -15.707031 14.453125 -16.503906 13.703125 -17.015625 C 12.953125 -17.523438 12.070312 -17.78125 11.0625 -17.78125 C 10.050781 -17.78125 9.164062 -17.523438 8.40625 -17.015625 C 7.65625 -16.503906 7.070312 -15.703125 6.65625 -14.609375 C 6.238281 -13.523438 6.03125 -12.113281 6.03125 -10.375 C 6.03125 -8.664062 6.238281 -7.285156 6.65625 -6.234375 C 7.070312 -5.179688 7.65625 -4.410156 8.40625 -3.921875 C 9.164062 -3.429688 10.050781 -3.1875 11.0625 -3.1875 Z M 11.0625 -3.1875 "/></g></g></g><g fill="#404040" fill-opacity="1"><g transform="translate(294.539924, 35.391445)"><g><path d="M 16.109375 -20.96875 L 20.34375 -20.96875 L 20.34375 0 L 16.53125 0 L 6.5625 -14.421875 L 6.5625 0 L 2.34375 0 L 2.34375 -20.96875 L 6.546875 -20.96875 L 16.109375 -7.09375 Z M 16.109375 -20.96875 "/></g></g></g><g fill="#404040" fill-opacity="1"><g transform="translate(320.11178, 35.391445)"><g><path d="M 0.546875 -17.203125 L 0.546875 -20.96875 L 17.328125 -20.96875 L 17.328125 -17.203125 L 11.140625 -17.203125 L 11.140625 0 L 6.890625 0 L 6.890625 -17.203125 Z M 0.546875 -17.203125 "/></g></g></g><g fill="#404040" fill-opacity="1"><g transform="translate(340.870948, 35.391445)"><g><path d="M 0.796875 0 L 8.3125 -20.96875 L 12.78125 -20.96875 L 20.265625 0 L 16.046875 0 L 14.34375 -4.859375 L 6.796875 -4.859375 L 5.046875 0 Z M 7.75 -8.5625 L 13.328125 -8.5625 L 10.5625 -16.875 Z M 7.75 -8.5625 "/></g></g></g></svg>