<svg xmlns="http://www.w3.org/2000/svg" xmlns:xlink="http://www.w3.org/1999/xlink" width="500" zoomAndPan="magnify" viewBox="0 0 375 374.999991" height="500" preserveAspectRatio="xMidYMid meet" version="1.0"><defs><clipPath id="98a84e55c9"><path d="M 37.5 31 L 343 31 L 343 337 L 37.5 337 Z M 37.5 31 " clip-rule="nonzero"/></clipPath></defs><g clip-path="url(#98a84e55c9)"><path fill="#dd2590" d="M 60.355469 298.703125 L 157.789062 298.703125 C 159.953125 298.675781 161.710938 300.40625 161.710938 302.570312 C 161.710938 304.734375 159.953125 306.464844 157.789062 306.4375 L 60.355469 306.4375 C 58.21875 306.464844 56.460938 304.734375 56.460938 302.570312 C 56.460938 300.40625 58.21875 298.675781 60.355469 298.703125 Z M 60.355469 280.851562 L 167.472656 280.851562 C 169.636719 280.824219 171.394531 282.582031 171.394531 284.71875 C 171.394531 286.855469 169.636719 288.613281 167.472656 288.585938 L 60.355469 288.585938 C 58.21875 288.613281 56.460938 286.855469 56.460938 284.71875 C 56.460938 282.582031 58.21875 280.824219 60.355469 280.851562 Z M 240.070312 275.117188 C 243.507812 275.117188 246.886719 276.007812 249.890625 277.632812 C 252.8125 276.035156 256.195312 275.117188 259.738281 275.117188 C 271.070312 275.117188 280.347656 284.394531 280.347656 295.726562 C 280.347656 307.0625 271.070312 316.339844 259.738281 316.339844 C 256.167969 316.339844 252.8125 315.445312 249.890625 313.824219 C 246.886719 315.472656 243.507812 316.339844 240.070312 316.339844 C 228.710938 316.339844 219.433594 307.0625 219.433594 295.726562 C 219.433594 284.394531 228.710938 275.117188 240.070312 275.117188 Z M 60.085938 214.28125 L 95.792969 214.28125 C 97.929688 214.28125 99.660156 216.011719 99.660156 218.175781 L 99.660156 253.855469 C 99.660156 255.992188 97.929688 257.722656 95.792969 257.722656 L 60.085938 257.722656 C 57.976562 257.722656 56.246094 255.992188 56.246094 253.855469 L 56.246094 218.175781 C 56.246094 216.011719 57.976562 214.28125 60.085938 214.28125 Z M 56.679688 176.519531 C 46.101562 176.519531 37.5 185.121094 37.5 195.671875 L 37.5 316.933594 C 37.5 327.511719 46.101562 336.113281 56.679688 336.113281 L 282.105469 336.113281 C 292.65625 336.113281 301.285156 327.511719 301.285156 316.933594 L 301.285156 195.671875 C 301.285156 185.121094 292.65625 176.519531 282.105469 176.519531 Z M 303.394531 79.710938 L 136.742188 167.675781 L 285.054688 167.675781 C 295.605469 167.675781 308.210938 178.226562 308.210938 186.3125 L 308.210938 186.882812 L 331.984375 174.761719 C 341.371094 169.949219 344.886719 158.183594 339.9375 148.875 Z M 266.527344 31.429688 C 263.414062 31.375 260.277344 32.105469 257.382812 33.648438 L 58.03125 138.867188 C 48.699219 143.792969 45.101562 155.421875 50.023438 164.753906 L 51.539062 167.59375 L 70.257812 167.59375 L 288.84375 52.203125 L 283.269531 41.652344 C 279.890625 35.214844 273.316406 31.535156 266.527344 31.429688 " fill-opacity="1" fill-rule="nonzero"/></g></svg>