<svg xmlns="http://www.w3.org/2000/svg" xmlns:xlink="http://www.w3.org/1999/xlink" width="500" zoomAndPan="magnify" viewBox="0 0 375 374.999991" height="500" preserveAspectRatio="xMidYMid meet" version="1.0"><defs><clipPath id="cd92deb8cb"><path d="M 13.265625 201 L 144 201 L 144 288 L 13.265625 288 Z M 13.265625 201 " clip-rule="nonzero"/></clipPath><clipPath id="69c9332282"><path d="M 88 213 L 287 213 L 287 315.652344 L 88 315.652344 Z M 88 213 " clip-rule="nonzero"/></clipPath><clipPath id="191e468067"><path d="M 125 73.402344 L 250 73.402344 L 250 198 L 125 198 Z M 125 73.402344 " clip-rule="nonzero"/></clipPath></defs><path fill="#dd2590" d="M 288.105469 287.5625 L 361.566406 287.5625 C 352.808594 219.933594 319.019531 201.617188 278.640625 201.617188 C 261.003906 201.617188 244.632812 205.09375 231.042969 214.667969 C 259.449219 225.902344 278.328125 250.0625 288.105469 287.5625 " fill-opacity="1" fill-rule="nonzero"/><path fill="#dd2590" d="M 278.640625 84.300781 C 265.605469 84.300781 253.726562 89.132812 244.617188 97.085938 C 252.078125 108 256.433594 121.203125 256.433594 135.402344 C 256.433594 150.023438 251.769531 163.566406 243.898438 174.671875 C 253.097656 183 265.25 188.121094 278.640625 188.121094 C 307.292969 188.121094 330.550781 164.875 330.550781 136.1875 C 330.550781 107.535156 307.292969 84.300781 278.640625 84.300781 " fill-opacity="1" fill-rule="nonzero"/><g clip-path="url(#cd92deb8cb)"><path fill="#dd2590" d="M 86.871094 287.5625 L 13.421875 287.5625 C 22.164062 219.933594 55.96875 201.617188 96.355469 201.617188 C 113.972656 201.617188 130.347656 205.09375 143.929688 214.667969 C 115.539062 225.902344 96.65625 250.0625 86.871094 287.5625 " fill-opacity="1" fill-rule="nonzero"/></g><path fill="#dd2590" d="M 96.355469 84.300781 C 109.390625 84.300781 121.246094 89.132812 130.371094 97.085938 C 122.914062 108 118.539062 121.203125 118.539062 135.402344 C 118.539062 150.023438 123.214844 163.566406 131.097656 174.671875 C 121.882812 183 109.722656 188.121094 96.355469 188.121094 C 67.6875 188.121094 44.433594 164.875 44.433594 136.1875 C 44.433594 107.535156 67.6875 84.300781 96.355469 84.300781 " fill-opacity="1" fill-rule="nonzero"/><g clip-path="url(#69c9332282)"><path fill="#dd2590" d="M 286.46875 316.078125 C 276.042969 235.363281 235.691406 213.46875 187.496094 213.46875 C 139.289062 213.46875 98.953125 235.363281 88.5 316.078125 L 286.46875 316.078125 " fill-opacity="1" fill-rule="nonzero"/></g><g clip-path="url(#191e468067)"><path fill="#dd2590" d="M 249.449219 135.402344 C 249.449219 169.609375 221.703125 197.359375 187.496094 197.359375 C 153.269531 197.359375 125.546875 169.609375 125.546875 135.402344 C 125.546875 101.195312 153.269531 73.453125 187.496094 73.453125 C 221.703125 73.453125 249.449219 101.195312 249.449219 135.402344 " fill-opacity="1" fill-rule="nonzero"/></g></svg>