<svg xmlns="http://www.w3.org/2000/svg" xmlns:xlink="http://www.w3.org/1999/xlink" width="466" zoomAndPan="magnify" viewBox="0 0 349.5 257.250001" height="343" preserveAspectRatio="xMidYMid meet" version="1.0"><defs><clipPath id="93d7151a04"><path d="M 0.257812 34.996094 L 335 34.996094 L 335 256.351562 L 0.257812 256.351562 Z M 0.257812 34.996094 " clip-rule="nonzero"/></clipPath><clipPath id="e6a338f542"><path d="M 13.4375 0 L 348 0 L 348 221.355469 L 13.4375 221.355469 Z M 13.4375 0 " clip-rule="nonzero"/></clipPath></defs><path fill="#c11574" d="M 308.414062 255.101562 C 322.058594 255.101562 333.167969 244 333.167969 230.34375 L 333.167969 61.136719 C 333.164062 47.484375 322.058594 36.378906 308.414062 36.378906 L 116.730469 36.378906 C 116.351562 36.378906 116.039062 36.070312 116.039062 35.6875 L 34.179688 35.6875 C 21.015625 35.6875 10.347656 46.355469 10.347656 59.519531 L 10.347656 231.960938 C 10.347656 245.125 21.015625 255.792969 34.179688 255.792969 L 307.714844 255.792969 C 307.71875 255.414062 308.03125 255.101562 308.414062 255.101562 Z M 295.289062 54.890625 C 306.183594 54.890625 315.019531 63.726562 315.019531 74.621094 C 315.019531 85.515625 306.191406 94.355469 295.289062 94.355469 C 284.386719 94.355469 275.5625 85.523438 275.5625 74.625 C 275.5625 63.730469 284.394531 54.890625 295.289062 54.890625 Z M 315.027344 184.101562 L 315.027344 199.152344 C 315.027344 200.910156 313.601562 202.335938 311.84375 202.335938 L 307.410156 202.335938 C 305.652344 202.335938 304.226562 200.910156 304.226562 199.152344 L 304.226562 184.101562 C 304.226562 182.34375 305.652344 180.917969 307.410156 180.917969 L 311.84375 180.917969 C 313.601562 180.917969 315.027344 182.34375 315.027344 184.101562 Z M 29.425781 54.199219 L 125.578125 54.199219 C 125.960938 54.199219 126.269531 54.511719 126.269531 54.890625 C 126.269531 55.273438 125.960938 55.582031 125.578125 55.582031 L 29.425781 55.582031 C 29.046875 55.582031 28.734375 55.273438 28.734375 54.890625 C 28.734375 54.511719 29.046875 54.199219 29.425781 54.199219 Z M 29.425781 64.492188 L 86.640625 64.492188 C 87.019531 64.492188 87.332031 64.804688 87.332031 65.183594 C 87.332031 65.566406 87.019531 65.875 86.640625 65.875 L 29.425781 65.875 C 29.046875 65.875 28.734375 65.566406 28.734375 65.183594 C 28.734375 64.804688 29.046875 64.492188 29.425781 64.492188 Z M 39.988281 230.28125 C 39.988281 232.039062 38.566406 233.464844 36.808594 233.464844 L 32.375 233.464844 C 30.617188 233.464844 29.191406 232.039062 29.191406 230.28125 L 29.191406 217.628906 C 29.191406 215.871094 30.617188 214.449219 32.375 214.449219 L 36.808594 214.449219 C 38.566406 214.449219 39.988281 215.871094 39.988281 217.628906 Z M 29.183594 199.152344 L 29.183594 184.101562 C 29.183594 182.34375 30.609375 180.917969 32.367188 180.917969 L 36.800781 180.917969 C 38.558594 180.917969 39.984375 182.34375 39.984375 184.101562 L 39.984375 199.152344 C 39.984375 200.910156 38.558594 202.335938 36.800781 202.335938 L 32.367188 202.335938 C 30.609375 202.34375 29.183594 200.910156 29.183594 199.152344 Z M 29.183594 147.660156 L 29.183594 145.929688 L 28.964844 145.929688 C 28.582031 145.929688 28.273438 145.621094 28.273438 145.238281 C 28.273438 144.859375 28.582031 144.546875 28.964844 144.546875 L 29.183594 144.546875 L 29.183594 123.402344 L 28.964844 123.402344 C 28.582031 123.402344 28.273438 123.089844 28.273438 122.710938 C 28.273438 122.328125 28.582031 122.019531 28.964844 122.019531 L 29.183594 122.019531 L 29.183594 120.289062 C 29.183594 114.320312 34.027344 109.476562 39.996094 109.476562 L 52.988281 109.476562 C 52.988281 109.097656 53.300781 108.785156 53.679688 108.785156 C 54.058594 108.785156 54.371094 109.097656 54.371094 109.476562 L 67.363281 109.476562 C 73.332031 109.476562 78.175781 114.320312 78.175781 120.289062 L 78.175781 122.019531 L 78.394531 122.019531 C 78.777344 122.019531 79.085938 122.328125 79.085938 122.710938 C 79.085938 123.089844 78.777344 123.402344 78.394531 123.402344 L 78.175781 123.402344 L 78.175781 144.546875 L 78.394531 144.546875 C 78.777344 144.546875 79.085938 144.859375 79.085938 145.238281 C 79.085938 145.621094 78.777344 145.929688 78.394531 145.929688 L 78.175781 145.929688 L 78.175781 147.660156 C 78.175781 153.628906 73.332031 158.472656 67.363281 158.472656 L 54.363281 158.472656 L 54.363281 158.527344 C 54.363281 158.910156 54.054688 159.21875 53.671875 159.21875 C 53.292969 159.21875 52.980469 158.910156 52.980469 158.527344 L 52.980469 158.472656 L 39.988281 158.472656 C 34.019531 158.472656 29.183594 153.628906 29.183594 147.660156 Z M 55.4375 184.101562 L 55.4375 199.152344 C 55.4375 200.910156 54.011719 202.335938 52.253906 202.335938 L 47.820312 202.335938 C 46.0625 202.335938 44.636719 200.910156 44.636719 199.152344 L 44.636719 184.101562 C 44.636719 182.34375 46.0625 180.917969 47.820312 180.917969 L 52.253906 180.917969 C 54.011719 180.917969 55.4375 182.34375 55.4375 184.101562 Z M 55.4375 230.28125 C 55.4375 232.039062 54.011719 233.464844 52.253906 233.464844 L 47.820312 233.464844 C 46.0625 233.464844 44.636719 232.039062 44.636719 230.28125 L 44.636719 217.628906 C 44.636719 215.871094 46.0625 214.449219 47.820312 214.449219 L 52.253906 214.449219 C 54.011719 214.449219 55.4375 215.871094 55.4375 217.628906 Z M 67.976562 215.699219 L 60.203125 232.835938 C 60.085938 233.089844 59.835938 233.242188 59.574219 233.242188 C 59.476562 233.242188 59.378906 233.222656 59.289062 233.179688 C 58.945312 233.019531 58.785156 232.613281 58.945312 232.265625 L 66.71875 215.132812 C 66.878906 214.785156 67.285156 214.628906 67.632812 214.785156 C 67.976562 214.9375 68.136719 215.355469 67.976562 215.699219 Z M 70.882812 199.152344 C 70.882812 200.910156 69.457031 202.335938 67.699219 202.335938 L 63.265625 202.335938 C 61.511719 202.335938 60.085938 200.910156 60.085938 199.152344 L 60.085938 184.101562 C 60.085938 182.34375 61.511719 180.917969 63.265625 180.917969 L 67.699219 180.917969 C 69.457031 180.917969 70.882812 182.34375 70.882812 184.101562 Z M 82 230.28125 C 82 232.039062 80.574219 233.464844 78.816406 233.464844 L 74.382812 233.464844 C 72.625 233.464844 71.203125 232.039062 71.203125 230.28125 L 71.203125 217.628906 C 71.203125 215.871094 72.625 214.449219 74.382812 214.449219 L 78.816406 214.449219 C 80.574219 214.449219 82 215.871094 82 217.628906 Z M 86.328125 199.152344 C 86.328125 200.910156 84.90625 202.335938 83.148438 202.335938 L 78.714844 202.335938 C 76.957031 202.335938 75.53125 200.910156 75.53125 199.152344 L 75.53125 184.101562 C 75.53125 182.34375 76.957031 180.917969 78.714844 180.917969 L 83.148438 180.917969 C 84.90625 180.917969 86.328125 182.34375 86.328125 184.101562 Z M 97.445312 230.28125 C 97.445312 232.039062 96.019531 233.464844 94.265625 233.464844 L 89.828125 233.464844 C 88.074219 233.464844 86.648438 232.039062 86.648438 230.28125 L 86.648438 217.628906 C 86.648438 215.871094 88.074219 214.449219 89.828125 214.449219 L 94.265625 214.449219 C 96.019531 214.449219 97.445312 215.871094 97.445312 217.628906 Z M 116.21875 199.152344 C 116.21875 200.910156 114.792969 202.335938 113.039062 202.335938 L 108.605469 202.335938 C 106.847656 202.335938 105.421875 200.910156 105.421875 199.152344 L 105.421875 184.101562 C 105.421875 182.34375 106.847656 180.917969 108.605469 180.917969 L 113.039062 180.917969 C 114.792969 180.917969 116.21875 182.34375 116.21875 184.101562 Z M 131.667969 199.152344 C 131.667969 200.910156 130.242188 202.335938 128.484375 202.335938 L 124.050781 202.335938 C 122.292969 202.335938 120.867188 200.910156 120.867188 199.152344 L 120.867188 184.101562 C 120.867188 182.34375 122.292969 180.917969 124.050781 180.917969 L 128.484375 180.917969 C 130.242188 180.917969 131.667969 182.34375 131.667969 184.101562 Z M 147.113281 199.152344 C 147.113281 200.910156 145.6875 202.335938 143.929688 202.335938 L 139.496094 202.335938 C 137.738281 202.335938 136.316406 200.910156 136.316406 199.152344 L 136.316406 184.101562 C 136.316406 182.34375 137.738281 180.917969 139.496094 180.917969 L 143.929688 180.917969 C 145.6875 180.917969 147.113281 182.34375 147.113281 184.101562 Z M 162.558594 199.152344 C 162.558594 200.910156 161.132812 202.335938 159.378906 202.335938 L 154.941406 202.335938 C 153.1875 202.335938 151.761719 200.910156 151.761719 199.152344 L 151.761719 184.101562 C 151.761719 182.34375 153.1875 180.917969 154.941406 180.917969 L 159.378906 180.917969 C 161.132812 180.917969 162.558594 182.34375 162.558594 184.101562 Z M 192.449219 199.152344 C 192.449219 200.910156 191.023438 202.335938 189.265625 202.335938 L 184.832031 202.335938 C 183.078125 202.335938 181.652344 200.910156 181.652344 199.152344 L 181.652344 184.101562 C 181.652344 182.34375 183.078125 180.917969 184.832031 180.917969 L 189.265625 180.917969 C 191.023438 180.917969 192.449219 182.34375 192.449219 184.101562 Z M 207.894531 199.152344 C 207.894531 200.910156 206.472656 202.335938 204.714844 202.335938 L 200.28125 202.335938 C 198.523438 202.335938 197.097656 200.910156 197.097656 199.152344 L 197.097656 184.101562 C 197.097656 182.34375 198.523438 180.917969 200.28125 180.917969 L 204.714844 180.917969 C 206.472656 180.917969 207.894531 182.34375 207.894531 184.101562 Z M 223.34375 199.152344 C 223.34375 200.910156 221.917969 202.335938 220.160156 202.335938 L 215.726562 202.335938 C 213.96875 202.335938 212.542969 200.910156 212.542969 199.152344 L 212.542969 184.101562 C 212.542969 182.34375 213.96875 180.917969 215.726562 180.917969 L 220.160156 180.917969 C 221.917969 180.917969 223.34375 182.34375 223.34375 184.101562 Z M 238.789062 199.152344 C 238.789062 200.910156 237.363281 202.335938 235.605469 202.335938 L 231.171875 202.335938 C 229.414062 202.335938 227.992188 200.910156 227.992188 199.152344 L 227.992188 184.101562 C 227.992188 182.34375 229.414062 180.917969 231.171875 180.917969 L 235.605469 180.917969 C 237.363281 180.917969 238.789062 182.34375 238.789062 184.101562 Z M 217.101562 94.355469 C 206.933594 94.355469 198.6875 86.109375 198.6875 75.941406 L 198.6875 73.304688 C 198.6875 63.136719 206.933594 54.890625 217.101562 54.890625 L 249.339844 54.890625 C 259.507812 54.890625 267.753906 63.136719 267.753906 73.304688 L 267.753906 75.941406 C 267.753906 86.109375 259.507812 94.355469 249.339844 94.355469 Z M 268.679688 199.152344 C 268.679688 200.910156 267.253906 202.335938 265.496094 202.335938 L 261.0625 202.335938 C 259.304688 202.335938 257.882812 200.910156 257.882812 199.152344 L 257.882812 184.101562 C 257.882812 182.34375 259.304688 180.917969 261.0625 180.917969 L 265.496094 180.917969 C 267.253906 180.917969 268.679688 182.34375 268.679688 184.101562 Z M 284.125 199.152344 C 284.125 200.910156 282.699219 202.335938 280.945312 202.335938 L 276.507812 202.335938 C 274.753906 202.335938 273.328125 200.910156 273.328125 199.152344 L 273.328125 184.101562 C 273.328125 182.34375 274.753906 180.917969 276.507812 180.917969 L 280.945312 180.917969 C 282.699219 180.917969 284.125 182.34375 284.125 184.101562 Z M 284.015625 140.917969 C 283.875 141.101562 283.667969 141.207031 283.453125 141.207031 C 283.316406 141.207031 283.171875 141.164062 283.054688 141.074219 C 282.742188 140.855469 282.671875 140.417969 282.894531 140.105469 C 284.179688 138.316406 284.859375 136.207031 284.859375 134 C 284.859375 131.792969 284.179688 129.683594 282.894531 127.890625 C 282.671875 127.578125 282.742188 127.152344 283.054688 126.921875 C 283.363281 126.699219 283.792969 126.769531 284.023438 127.082031 C 285.472656 129.109375 286.25 131.5 286.25 134 C 286.25 136.496094 285.46875 138.890625 284.015625 140.917969 Z M 288.351562 143.316406 C 290.308594 140.585938 291.347656 137.367188 291.347656 134.003906 C 291.347656 130.644531 290.308594 127.421875 288.351562 124.695312 C 288.128906 124.382812 288.199219 123.953125 288.511719 123.726562 C 288.824219 123.503906 289.25 123.574219 289.480469 123.886719 C 291.609375 126.851562 292.738281 130.351562 292.738281 134.003906 C 292.738281 137.65625 291.609375 141.160156 289.480469 144.125 C 289.339844 144.3125 289.132812 144.417969 288.917969 144.417969 C 288.78125 144.417969 288.636719 144.375 288.519531 144.285156 C 288.199219 144.058594 288.128906 143.628906 288.351562 143.316406 Z M 299.570312 199.152344 C 299.570312 200.910156 298.148438 202.335938 296.390625 202.335938 L 291.957031 202.335938 C 290.199219 202.335938 288.773438 200.910156 288.773438 199.152344 L 288.773438 184.101562 C 288.773438 182.34375 290.199219 180.917969 291.957031 180.917969 L 296.390625 180.917969 C 298.148438 180.917969 299.570312 182.34375 299.570312 184.101562 Z M 295.160156 148.539062 C 295.019531 148.726562 294.8125 148.828125 294.597656 148.828125 C 294.460938 148.828125 294.316406 148.789062 294.195312 148.699219 C 293.886719 148.476562 293.816406 148.042969 294.039062 147.730469 C 296.929688 143.703125 298.457031 138.957031 298.457031 134 C 298.457031 129.039062 296.929688 124.292969 294.039062 120.269531 C 293.816406 119.957031 293.886719 119.527344 294.195312 119.300781 C 294.507812 119.078125 294.9375 119.148438 295.164062 119.457031 C 298.222656 123.71875 299.84375 128.75 299.84375 133.992188 C 299.84375 139.234375 298.214844 144.277344 295.160156 148.539062 Z M 300.230469 151.796875 C 303.972656 146.582031 305.957031 140.433594 305.957031 134.003906 C 305.957031 127.578125 303.976562 121.429688 300.230469 116.214844 C 300.007812 115.902344 300.078125 115.472656 300.386719 115.246094 C 300.699219 115.023438 301.128906 115.09375 301.355469 115.40625 C 305.273438 120.855469 307.339844 127.289062 307.339844 134.003906 C 307.339844 140.722656 305.273438 147.15625 301.355469 152.605469 C 301.21875 152.792969 301.011719 152.898438 300.796875 152.898438 C 300.65625 152.898438 300.511719 152.855469 300.394531 152.765625 C 300.078125 152.539062 300.007812 152.109375 300.230469 151.796875 Z M 96.0625 217.628906 L 96.0625 230.28125 C 96.0625 231.277344 95.253906 232.082031 94.265625 232.082031 L 89.828125 232.082031 C 88.832031 232.082031 88.03125 231.269531 88.03125 230.28125 L 88.03125 217.628906 C 88.03125 216.632812 88.839844 215.832031 89.828125 215.832031 L 94.265625 215.832031 C 95.253906 215.832031 96.0625 216.632812 96.0625 217.628906 Z M 295.289062 92.972656 C 305.410156 92.972656 313.636719 84.738281 313.636719 74.625 C 313.636719 64.507812 305.402344 56.28125 295.289062 56.28125 C 285.175781 56.28125 276.945312 64.511719 276.945312 74.625 C 276.945312 84.738281 285.175781 92.972656 295.289062 92.972656 Z M 295.289062 62.976562 C 301.722656 62.976562 306.933594 68.195312 306.933594 74.621094 C 306.933594 81.054688 301.714844 86.261719 295.289062 86.261719 C 288.855469 86.261719 283.648438 81.046875 283.648438 74.621094 C 283.648438 68.195312 288.863281 62.976562 295.289062 62.976562 Z M 38.605469 217.628906 L 38.605469 230.28125 C 38.605469 231.277344 37.796875 232.082031 36.808594 232.082031 L 32.375 232.082031 C 31.378906 232.082031 30.574219 231.269531 30.574219 230.28125 L 30.574219 217.628906 C 30.574219 216.632812 31.382812 215.832031 32.375 215.832031 L 36.808594 215.832031 C 37.796875 215.832031 38.605469 216.632812 38.605469 217.628906 Z M 54.054688 217.628906 L 54.054688 230.28125 C 54.054688 231.277344 53.242188 232.082031 52.253906 232.082031 L 47.820312 232.082031 C 46.824219 232.082031 46.023438 231.269531 46.023438 230.28125 L 46.023438 217.628906 C 46.023438 216.632812 46.832031 215.832031 47.820312 215.832031 L 52.253906 215.832031 C 53.242188 215.832031 54.054688 216.632812 54.054688 217.628906 Z M 80.617188 217.628906 L 80.617188 230.28125 C 80.617188 231.277344 79.804688 232.082031 78.816406 232.082031 L 74.382812 232.082031 C 73.386719 232.082031 72.585938 231.269531 72.585938 230.28125 L 72.585938 217.628906 C 72.585938 216.632812 73.394531 215.832031 74.382812 215.832031 L 78.816406 215.832031 C 79.804688 215.832031 80.617188 216.632812 80.617188 217.628906 Z M 80.617188 217.628906 " fill-opacity="1" fill-rule="nonzero"/><path fill="#f5ba01" d="M 43.378906 144.546875 L 29.183594 144.546875 L 29.183594 123.402344 L 43.386719 123.402344 L 43.386719 144.546875 Z M 53.035156 153.78125 L 54.316406 153.78125 C 58.875 153.78125 62.582031 150.074219 62.582031 145.515625 L 62.582031 122.445312 C 62.582031 117.886719 58.875 114.179688 54.316406 114.179688 L 53.035156 114.179688 C 48.476562 114.179688 44.769531 117.886719 44.769531 122.445312 L 44.769531 145.515625 C 44.761719 150.074219 48.476562 153.78125 53.035156 153.78125 Z M 52.980469 155.164062 C 47.820312 155.136719 43.621094 151.042969 43.398438 145.9375 L 29.183594 145.9375 L 29.183594 147.667969 C 29.183594 153.636719 34.027344 158.480469 39.996094 158.480469 L 52.988281 158.480469 L 52.988281 155.164062 Z M 54.363281 155.164062 L 54.363281 158.472656 L 67.355469 158.472656 C 73.324219 158.472656 78.167969 153.628906 78.167969 147.660156 L 78.167969 145.929688 L 63.945312 145.929688 C 63.722656 151.042969 59.523438 155.136719 54.363281 155.164062 Z M 63.945312 122.023438 L 78.167969 122.023438 L 78.167969 120.296875 C 78.167969 114.324219 73.324219 109.484375 67.355469 109.484375 L 54.363281 109.484375 L 54.363281 112.789062 C 59.523438 112.816406 63.722656 116.914062 63.945312 122.023438 Z M 52.980469 112.789062 L 52.980469 109.484375 L 39.988281 109.484375 C 34.019531 109.484375 29.179688 114.324219 29.179688 120.296875 L 29.179688 122.023438 L 43.398438 122.023438 C 43.628906 116.914062 47.828125 112.816406 52.980469 112.789062 Z M 63.972656 144.546875 L 78.175781 144.546875 L 78.175781 123.402344 L 63.972656 123.402344 Z M 295.289062 86.269531 C 301.722656 86.269531 306.933594 81.054688 306.933594 74.625 C 306.933594 68.195312 301.714844 62.984375 295.289062 62.984375 C 288.855469 62.984375 283.648438 68.199219 283.648438 74.625 C 283.648438 81.054688 288.863281 86.269531 295.289062 86.269531 Z M 267.753906 75.941406 L 267.753906 73.304688 C 267.753906 63.136719 259.507812 54.890625 249.339844 54.890625 L 217.101562 54.890625 C 206.933594 54.890625 198.6875 63.136719 198.6875 73.304688 L 198.6875 75.941406 C 198.6875 86.109375 206.933594 94.355469 217.101562 94.355469 L 249.339844 94.355469 C 259.507812 94.355469 267.753906 86.109375 267.753906 75.941406 Z M 267.753906 75.941406 " fill-opacity="1" fill-rule="nonzero"/><path fill="#ffffff" d="M 300.386719 152.757812 C 300.078125 152.539062 300.007812 152.101562 300.230469 151.789062 C 303.972656 146.574219 305.957031 140.425781 305.957031 134 C 305.957031 127.574219 303.976562 121.421875 300.230469 116.207031 C 300.007812 115.894531 300.078125 115.46875 300.386719 115.238281 C 300.699219 115.015625 301.128906 115.085938 301.355469 115.398438 C 305.273438 120.847656 307.339844 127.28125 307.339844 134 C 307.339844 140.714844 305.273438 147.148438 301.355469 152.601562 C 301.21875 152.785156 301.011719 152.890625 300.796875 152.890625 C 300.652344 152.890625 300.511719 152.847656 300.386719 152.757812 Z M 294.191406 119.304688 C 293.878906 119.527344 293.808594 119.964844 294.03125 120.273438 C 296.921875 124.300781 298.453125 129.046875 298.453125 134.003906 C 298.453125 138.964844 296.921875 143.710938 294.03125 147.738281 C 293.808594 148.046875 293.878906 148.476562 294.191406 148.707031 C 294.316406 148.796875 294.453125 148.835938 294.589844 148.835938 C 294.804688 148.835938 295.019531 148.738281 295.152344 148.546875 C 298.210938 144.285156 299.828125 139.257812 299.828125 134.011719 C 299.828125 128.769531 298.210938 123.742188 295.152344 119.480469 C 294.9375 119.152344 294.5 119.085938 294.191406 119.304688 Z M 289.480469 144.125 C 291.609375 141.160156 292.738281 137.65625 292.738281 134.003906 C 292.738281 130.351562 291.609375 126.851562 289.480469 123.886719 C 289.257812 123.574219 288.824219 123.503906 288.511719 123.726562 C 288.199219 123.949219 288.128906 124.382812 288.351562 124.695312 C 290.308594 127.425781 291.347656 130.644531 291.347656 134.003906 C 291.347656 137.367188 290.308594 140.589844 288.351562 143.316406 C 288.128906 143.628906 288.199219 144.058594 288.511719 144.285156 C 288.636719 144.375 288.773438 144.417969 288.914062 144.417969 C 289.132812 144.410156 289.339844 144.3125 289.480469 144.125 Z M 283.046875 126.929688 C 282.734375 127.152344 282.664062 127.585938 282.886719 127.898438 C 284.175781 129.6875 284.851562 131.800781 284.851562 134.003906 C 284.851562 136.210938 284.175781 138.320312 282.886719 140.113281 C 282.664062 140.425781 282.734375 140.855469 283.046875 141.082031 C 283.171875 141.171875 283.308594 141.214844 283.449219 141.214844 C 283.660156 141.214844 283.875 141.117188 284.007812 140.921875 C 285.460938 138.894531 286.234375 136.503906 286.234375 134.003906 C 286.234375 131.507812 285.46875 129.113281 284.007812 127.089844 C 283.792969 126.777344 283.359375 126.707031 283.046875 126.929688 Z M 32.367188 202.34375 L 36.800781 202.34375 C 38.558594 202.34375 39.984375 200.917969 39.984375 199.160156 L 39.984375 184.109375 C 39.984375 182.351562 38.558594 180.925781 36.800781 180.925781 L 32.367188 180.925781 C 30.609375 180.925781 29.183594 182.351562 29.183594 184.109375 L 29.183594 199.160156 C 29.183594 200.910156 30.609375 202.34375 32.367188 202.34375 Z M 47.8125 180.917969 C 46.054688 180.917969 44.632812 182.34375 44.632812 184.101562 L 44.632812 199.152344 C 44.632812 200.910156 46.054688 202.335938 47.8125 202.335938 L 52.246094 202.335938 C 54.003906 202.335938 55.429688 200.910156 55.429688 199.152344 L 55.429688 184.101562 C 55.429688 182.34375 54.003906 180.917969 52.246094 180.917969 Z M 67.699219 180.917969 L 63.265625 180.917969 C 61.511719 180.917969 60.085938 182.34375 60.085938 184.101562 L 60.085938 199.152344 C 60.085938 200.910156 61.511719 202.335938 63.265625 202.335938 L 67.699219 202.335938 C 69.457031 202.335938 70.882812 200.910156 70.882812 199.152344 L 70.882812 184.101562 C 70.882812 182.34375 69.457031 180.917969 67.699219 180.917969 Z M 83.148438 180.917969 L 78.714844 180.917969 C 76.957031 180.917969 75.53125 182.34375 75.53125 184.101562 L 75.53125 199.152344 C 75.53125 200.910156 76.957031 202.335938 78.714844 202.335938 L 83.148438 202.335938 C 84.90625 202.335938 86.328125 200.910156 86.328125 199.152344 L 86.328125 184.101562 C 86.328125 182.34375 84.90625 180.917969 83.148438 180.917969 Z M 113.03125 180.917969 L 108.597656 180.917969 C 106.839844 180.917969 105.414062 182.34375 105.414062 184.101562 L 105.414062 199.152344 C 105.414062 200.910156 106.839844 202.335938 108.597656 202.335938 L 113.03125 202.335938 C 114.789062 202.335938 116.210938 200.910156 116.210938 199.152344 L 116.210938 184.101562 C 116.21875 182.34375 114.792969 180.917969 113.03125 180.917969 Z M 128.484375 180.917969 L 124.050781 180.917969 C 122.292969 180.917969 120.867188 182.34375 120.867188 184.101562 L 120.867188 199.152344 C 120.867188 200.910156 122.292969 202.335938 124.050781 202.335938 L 128.484375 202.335938 C 130.242188 202.335938 131.667969 200.910156 131.667969 199.152344 L 131.667969 184.101562 C 131.667969 182.34375 130.242188 180.917969 128.484375 180.917969 Z M 143.929688 180.917969 L 139.496094 180.917969 C 137.738281 180.917969 136.316406 182.34375 136.316406 184.101562 L 136.316406 199.152344 C 136.316406 200.910156 137.738281 202.335938 139.496094 202.335938 L 143.929688 202.335938 C 145.6875 202.335938 147.113281 200.910156 147.113281 199.152344 L 147.113281 184.101562 C 147.113281 182.34375 145.6875 180.917969 143.929688 180.917969 Z M 159.378906 180.917969 L 154.941406 180.917969 C 153.1875 180.917969 151.761719 182.34375 151.761719 184.101562 L 151.761719 199.152344 C 151.761719 200.910156 153.1875 202.335938 154.941406 202.335938 L 159.378906 202.335938 C 161.132812 202.335938 162.558594 200.910156 162.558594 199.152344 L 162.558594 184.101562 C 162.558594 182.34375 161.132812 180.917969 159.378906 180.917969 Z M 189.265625 180.917969 L 184.832031 180.917969 C 183.078125 180.917969 181.652344 182.34375 181.652344 184.101562 L 181.652344 199.152344 C 181.652344 200.910156 183.078125 202.335938 184.832031 202.335938 L 189.265625 202.335938 C 191.023438 202.335938 192.449219 200.910156 192.449219 199.152344 L 192.449219 184.101562 C 192.449219 182.34375 191.023438 180.917969 189.265625 180.917969 Z M 204.714844 180.917969 L 200.28125 180.917969 C 198.523438 180.917969 197.097656 182.34375 197.097656 184.101562 L 197.097656 199.152344 C 197.097656 200.910156 198.523438 202.335938 200.28125 202.335938 L 204.714844 202.335938 C 206.472656 202.335938 207.894531 200.910156 207.894531 199.152344 L 207.894531 184.101562 C 207.894531 182.34375 206.472656 180.917969 204.714844 180.917969 Z M 220.160156 180.917969 L 215.726562 180.917969 C 213.96875 180.917969 212.542969 182.34375 212.542969 184.101562 L 212.542969 199.152344 C 212.542969 200.910156 213.96875 202.335938 215.726562 202.335938 L 220.160156 202.335938 C 221.917969 202.335938 223.34375 200.910156 223.34375 199.152344 L 223.34375 184.101562 C 223.34375 182.34375 221.917969 180.917969 220.160156 180.917969 Z M 235.605469 180.917969 L 231.171875 180.917969 C 229.414062 180.917969 227.992188 182.34375 227.992188 184.101562 L 227.992188 199.152344 C 227.992188 200.910156 229.414062 202.335938 231.171875 202.335938 L 235.605469 202.335938 C 237.363281 202.335938 238.789062 200.910156 238.789062 199.152344 L 238.789062 184.101562 C 238.789062 182.34375 237.363281 180.917969 235.605469 180.917969 Z M 265.496094 180.917969 L 261.0625 180.917969 C 259.304688 180.917969 257.882812 182.34375 257.882812 184.101562 L 257.882812 199.152344 C 257.882812 200.910156 259.304688 202.335938 261.0625 202.335938 L 265.496094 202.335938 C 267.253906 202.335938 268.679688 200.910156 268.679688 199.152344 L 268.679688 184.101562 C 268.679688 182.34375 267.253906 180.917969 265.496094 180.917969 Z M 280.945312 180.917969 L 276.507812 180.917969 C 274.753906 180.917969 273.328125 182.34375 273.328125 184.101562 L 273.328125 199.152344 C 273.328125 200.910156 274.753906 202.335938 276.507812 202.335938 L 280.945312 202.335938 C 282.699219 202.335938 284.125 200.910156 284.125 199.152344 L 284.125 184.101562 C 284.125 182.34375 282.699219 180.917969 280.945312 180.917969 Z M 296.390625 180.917969 L 291.957031 180.917969 C 290.199219 180.917969 288.773438 182.34375 288.773438 184.101562 L 288.773438 199.152344 C 288.773438 200.910156 290.199219 202.335938 291.957031 202.335938 L 296.390625 202.335938 C 298.148438 202.335938 299.570312 200.910156 299.570312 199.152344 L 299.570312 184.101562 C 299.570312 182.34375 298.148438 180.917969 296.390625 180.917969 Z M 307.402344 180.917969 C 305.644531 180.917969 304.21875 182.34375 304.21875 184.101562 L 304.21875 199.152344 C 304.21875 200.910156 305.644531 202.335938 307.402344 202.335938 L 311.835938 202.335938 C 313.59375 202.335938 315.019531 200.910156 315.019531 199.152344 L 315.019531 184.101562 C 315.019531 182.34375 313.59375 180.917969 311.835938 180.917969 Z M 307.402344 180.917969 " fill-opacity="1" fill-rule="nonzero"/><g clip-path="url(#93d7151a04)"><path fill="#000000" d="M 34.179688 255.792969 L 24.441406 255.792969 C 11.277344 255.792969 0.609375 245.125 0.609375 231.960938 L 0.609375 59.519531 C 0.609375 46.355469 11.277344 35.6875 24.441406 35.6875 L 34.179688 35.6875 C 21.015625 35.6875 10.347656 46.355469 10.347656 59.519531 L 10.347656 231.960938 C 10.347656 245.125 21.015625 255.792969 34.179688 255.792969 Z M 308.414062 34.996094 L 116.730469 34.996094 C 116.351562 34.996094 116.039062 35.308594 116.039062 35.6875 C 116.039062 36.070312 116.351562 36.378906 116.730469 36.378906 L 308.414062 36.378906 C 322.058594 36.378906 333.167969 47.484375 333.167969 61.136719 L 333.167969 230.34375 C 333.167969 243.992188 322.066406 255.101562 308.414062 255.101562 C 308.03125 255.101562 307.71875 255.414062 307.71875 255.792969 C 307.71875 256.171875 308.03125 256.484375 308.414062 256.484375 C 322.828125 256.484375 334.554688 244.761719 334.554688 230.34375 L 334.554688 61.136719 C 334.546875 46.722656 322.820312 34.996094 308.414062 34.996094 Z M 43.40625 145.929688 L 28.964844 145.929688 C 28.582031 145.929688 28.273438 145.621094 28.273438 145.238281 C 28.273438 144.859375 28.582031 144.546875 28.964844 144.546875 L 43.386719 144.546875 L 43.386719 123.402344 L 28.964844 123.402344 C 28.582031 123.402344 28.273438 123.089844 28.273438 122.710938 C 28.273438 122.328125 28.582031 122.019531 28.964844 122.019531 L 43.40625 122.019531 C 43.628906 116.90625 47.828125 112.816406 52.988281 112.789062 L 52.988281 109.484375 C 52.988281 109.101562 53.300781 108.792969 53.679688 108.792969 C 54.058594 108.792969 54.371094 109.101562 54.371094 109.484375 L 54.371094 112.789062 C 59.53125 112.816406 63.730469 116.914062 63.953125 122.019531 L 78.394531 122.019531 C 78.777344 122.019531 79.085938 122.328125 79.085938 122.710938 C 79.085938 123.089844 78.777344 123.402344 78.394531 123.402344 L 63.972656 123.402344 L 63.972656 144.546875 L 78.394531 144.546875 C 78.777344 144.546875 79.085938 144.859375 79.085938 145.238281 C 79.085938 145.621094 78.777344 145.929688 78.394531 145.929688 L 63.945312 145.929688 C 63.722656 151.042969 59.523438 155.132812 54.363281 155.160156 L 54.363281 158.519531 C 54.363281 158.902344 54.054688 159.210938 53.671875 159.210938 C 53.292969 159.210938 52.980469 158.902344 52.980469 158.519531 L 52.980469 155.160156 C 47.828125 155.136719 43.628906 151.042969 43.40625 145.929688 Z M 44.761719 145.515625 C 44.761719 150.074219 48.46875 153.78125 53.027344 153.78125 L 54.308594 153.78125 C 58.867188 153.78125 62.574219 150.074219 62.574219 145.515625 L 62.574219 122.445312 C 62.574219 117.886719 58.867188 114.179688 54.308594 114.179688 L 53.027344 114.179688 C 48.46875 114.179688 44.761719 117.886719 44.761719 122.445312 Z M 275.5625 74.625 C 275.5625 63.730469 284.394531 54.898438 295.289062 54.898438 C 306.183594 54.898438 315.019531 63.730469 315.019531 74.625 C 315.019531 85.523438 306.191406 94.355469 295.289062 94.355469 C 284.386719 94.355469 275.5625 85.523438 275.5625 74.625 Z M 276.945312 74.625 C 276.945312 84.746094 285.175781 92.972656 295.289062 92.972656 C 305.402344 92.972656 313.636719 84.738281 313.636719 74.625 C 313.636719 64.507812 305.402344 56.28125 295.289062 56.28125 C 285.175781 56.28125 276.945312 64.507812 276.945312 74.625 Z M 39.988281 217.628906 L 39.988281 230.28125 C 39.988281 232.039062 38.566406 233.464844 36.808594 233.464844 L 32.375 233.464844 C 30.617188 233.464844 29.191406 232.039062 29.191406 230.28125 L 29.191406 217.628906 C 29.191406 215.871094 30.617188 214.449219 32.375 214.449219 L 36.808594 214.449219 C 38.558594 214.449219 39.988281 215.871094 39.988281 217.628906 Z M 38.605469 217.628906 C 38.605469 216.632812 37.796875 215.832031 36.808594 215.832031 L 32.375 215.832031 C 31.378906 215.832031 30.574219 216.640625 30.574219 217.628906 L 30.574219 230.28125 C 30.574219 231.277344 31.382812 232.082031 32.375 232.082031 L 36.808594 232.082031 C 37.804688 232.082031 38.605469 231.269531 38.605469 230.28125 Z M 55.4375 217.628906 L 55.4375 230.28125 C 55.4375 232.039062 54.011719 233.464844 52.253906 233.464844 L 47.820312 233.464844 C 46.0625 233.464844 44.636719 232.039062 44.636719 230.28125 L 44.636719 217.628906 C 44.636719 215.871094 46.0625 214.449219 47.820312 214.449219 L 52.253906 214.449219 C 54.011719 214.449219 55.4375 215.871094 55.4375 217.628906 Z M 54.054688 217.628906 C 54.054688 216.632812 53.242188 215.832031 52.253906 215.832031 L 47.820312 215.832031 C 46.824219 215.832031 46.023438 216.640625 46.023438 217.628906 L 46.023438 230.28125 C 46.023438 231.277344 46.832031 232.082031 47.820312 232.082031 L 52.253906 232.082031 C 53.25 232.082031 54.054688 231.269531 54.054688 230.28125 Z M 82 217.628906 L 82 230.28125 C 82 232.039062 80.574219 233.464844 78.816406 233.464844 L 74.382812 233.464844 C 72.625 233.464844 71.203125 232.039062 71.203125 230.28125 L 71.203125 217.628906 C 71.203125 215.871094 72.625 214.449219 74.382812 214.449219 L 78.816406 214.449219 C 80.574219 214.449219 82 215.871094 82 217.628906 Z M 80.617188 217.628906 C 80.617188 216.632812 79.804688 215.832031 78.816406 215.832031 L 74.382812 215.832031 C 73.386719 215.832031 72.585938 216.640625 72.585938 217.628906 L 72.585938 230.28125 C 72.585938 231.277344 73.394531 232.082031 74.382812 232.082031 L 78.816406 232.082031 C 79.8125 232.082031 80.617188 231.269531 80.617188 230.28125 Z M 97.445312 217.628906 L 97.445312 230.28125 C 97.445312 232.039062 96.019531 233.464844 94.265625 233.464844 L 89.828125 233.464844 C 88.074219 233.464844 86.648438 232.039062 86.648438 230.28125 L 86.648438 217.628906 C 86.648438 215.871094 88.074219 214.449219 89.828125 214.449219 L 94.265625 214.449219 C 96.019531 214.449219 97.445312 215.871094 97.445312 217.628906 Z M 96.0625 217.628906 C 96.0625 216.632812 95.253906 215.832031 94.265625 215.832031 L 89.828125 215.832031 C 88.832031 215.832031 88.03125 216.640625 88.03125 217.628906 L 88.03125 230.28125 C 88.03125 231.277344 88.839844 232.082031 89.828125 232.082031 L 94.265625 232.082031 C 95.261719 232.082031 96.0625 231.269531 96.0625 230.28125 Z M 67.632812 214.785156 C 67.285156 214.628906 66.871094 214.78125 66.71875 215.132812 L 58.945312 232.265625 C 58.785156 232.613281 58.9375 233.027344 59.289062 233.179688 C 59.378906 233.222656 59.476562 233.242188 59.574219 233.242188 C 59.835938 233.242188 60.085938 233.089844 60.203125 232.835938 L 67.976562 215.699219 C 68.136719 215.355469 67.976562 214.9375 67.632812 214.785156 Z M 29.425781 55.582031 L 125.578125 55.582031 C 125.960938 55.582031 126.269531 55.273438 126.269531 54.890625 C 126.269531 54.511719 125.960938 54.199219 125.578125 54.199219 L 29.425781 54.199219 C 29.046875 54.199219 28.734375 54.511719 28.734375 54.890625 C 28.734375 55.273438 29.046875 55.582031 29.425781 55.582031 Z M 29.425781 65.875 L 86.640625 65.875 C 87.019531 65.875 87.332031 65.566406 87.332031 65.183594 C 87.332031 64.804688 87.019531 64.492188 86.640625 64.492188 L 29.425781 64.492188 C 29.046875 64.492188 28.734375 64.804688 28.734375 65.183594 C 28.734375 65.566406 29.046875 65.875 29.425781 65.875 Z M 29.425781 65.875 " fill-opacity="1" fill-rule="nonzero"/></g><path fill="#c11574" d="M 321.59375 220.105469 C 335.242188 220.105469 346.351562 209.003906 346.351562 195.347656 L 346.351562 26.140625 C 346.34375 12.484375 335.242188 1.382812 321.59375 1.382812 L 129.910156 1.382812 C 129.53125 1.382812 129.21875 1.070312 129.21875 0.691406 L 47.359375 0.691406 C 34.195312 0.691406 23.527344 11.359375 23.527344 24.523438 L 23.527344 196.964844 C 23.527344 210.128906 34.195312 220.796875 47.359375 220.796875 L 320.894531 220.796875 C 320.902344 220.414062 321.210938 220.105469 321.59375 220.105469 Z M 308.46875 19.894531 C 319.363281 19.894531 328.199219 28.726562 328.199219 39.621094 C 328.199219 50.519531 319.371094 59.359375 308.46875 59.359375 C 297.570312 59.359375 288.742188 50.523438 288.742188 39.628906 C 288.742188 28.734375 297.574219 19.894531 308.46875 19.894531 Z M 328.207031 149.105469 L 328.207031 164.15625 C 328.207031 165.914062 326.78125 167.339844 325.023438 167.339844 L 320.589844 167.339844 C 318.832031 167.339844 317.40625 165.914062 317.40625 164.15625 L 317.40625 149.105469 C 317.40625 147.347656 318.832031 145.921875 320.589844 145.921875 L 325.023438 145.921875 C 326.78125 145.921875 328.207031 147.347656 328.207031 149.105469 Z M 42.605469 19.203125 L 138.757812 19.203125 C 139.140625 19.203125 139.449219 19.515625 139.449219 19.894531 C 139.449219 20.273438 139.140625 20.585938 138.757812 20.585938 L 42.605469 20.585938 C 42.226562 20.585938 41.914062 20.273438 41.914062 19.894531 C 41.914062 19.515625 42.226562 19.203125 42.605469 19.203125 Z M 42.605469 29.496094 L 99.820312 29.496094 C 100.203125 29.496094 100.511719 29.808594 100.511719 30.1875 C 100.511719 30.566406 100.203125 30.878906 99.820312 30.878906 L 42.605469 30.878906 C 42.226562 30.878906 41.914062 30.566406 41.914062 30.1875 C 41.914062 29.808594 42.226562 29.496094 42.605469 29.496094 Z M 53.171875 195.285156 C 53.171875 197.042969 51.746094 198.46875 49.988281 198.46875 L 45.554688 198.46875 C 43.796875 198.46875 42.371094 197.042969 42.371094 195.285156 L 42.371094 182.632812 C 42.371094 180.875 43.796875 179.449219 45.554688 179.449219 L 49.988281 179.449219 C 51.746094 179.449219 53.171875 180.875 53.171875 182.632812 Z M 42.363281 164.15625 L 42.363281 149.105469 C 42.363281 147.347656 43.789062 145.921875 45.546875 145.921875 L 49.980469 145.921875 C 51.738281 145.921875 53.164062 147.347656 53.164062 149.105469 L 53.164062 164.15625 C 53.164062 165.914062 51.738281 167.339844 49.980469 167.339844 L 45.546875 167.339844 C 43.789062 167.34375 42.363281 165.914062 42.363281 164.15625 Z M 42.363281 112.664062 L 42.363281 110.933594 L 42.144531 110.933594 C 41.761719 110.933594 41.453125 110.621094 41.453125 110.242188 C 41.453125 109.863281 41.761719 109.550781 42.144531 109.550781 L 42.363281 109.550781 L 42.363281 88.402344 L 42.144531 88.402344 C 41.761719 88.402344 41.453125 88.09375 41.453125 87.710938 C 41.453125 87.332031 41.761719 87.019531 42.144531 87.019531 L 42.363281 87.019531 L 42.363281 85.292969 C 42.363281 79.320312 47.207031 74.480469 53.175781 74.480469 L 66.167969 74.480469 C 66.167969 74.097656 66.480469 73.789062 66.859375 73.789062 C 67.238281 73.789062 67.550781 74.097656 67.550781 74.480469 L 80.542969 74.480469 C 86.511719 74.480469 91.355469 79.320312 91.355469 85.292969 L 91.355469 87.019531 L 91.574219 87.019531 C 91.957031 87.019531 92.265625 87.332031 92.265625 87.710938 C 92.265625 88.09375 91.957031 88.402344 91.574219 88.402344 L 91.355469 88.402344 L 91.355469 109.550781 L 91.574219 109.550781 C 91.957031 109.550781 92.265625 109.863281 92.265625 110.242188 C 92.265625 110.621094 91.957031 110.933594 91.574219 110.933594 L 91.355469 110.933594 L 91.355469 112.664062 C 91.355469 118.632812 86.511719 123.476562 80.542969 123.476562 L 67.542969 123.476562 L 67.542969 123.53125 C 67.542969 123.910156 67.234375 124.222656 66.851562 124.222656 C 66.472656 124.222656 66.160156 123.910156 66.160156 123.53125 L 66.160156 123.476562 L 53.171875 123.476562 C 47.199219 123.476562 42.363281 118.632812 42.363281 112.664062 Z M 68.617188 149.105469 L 68.617188 164.15625 C 68.617188 165.914062 67.191406 167.339844 65.433594 167.339844 L 61 167.339844 C 59.242188 167.339844 57.820312 165.914062 57.820312 164.15625 L 57.820312 149.105469 C 57.820312 147.347656 59.242188 145.921875 61 145.921875 L 65.433594 145.921875 C 67.191406 145.921875 68.617188 147.347656 68.617188 149.105469 Z M 68.617188 195.285156 C 68.617188 197.042969 67.191406 198.46875 65.433594 198.46875 L 61 198.46875 C 59.242188 198.46875 57.820312 197.042969 57.820312 195.285156 L 57.820312 182.632812 C 57.820312 180.875 59.242188 179.449219 61 179.449219 L 65.433594 179.449219 C 67.191406 179.449219 68.617188 180.875 68.617188 182.632812 Z M 81.15625 180.703125 L 73.382812 197.835938 C 73.265625 198.09375 73.015625 198.246094 72.753906 198.246094 C 72.65625 198.246094 72.558594 198.226562 72.46875 198.183594 C 72.125 198.023438 71.964844 197.617188 72.125 197.269531 L 79.898438 180.136719 C 80.058594 179.789062 80.464844 179.628906 80.8125 179.789062 C 81.15625 179.941406 81.316406 180.355469 81.15625 180.703125 Z M 84.0625 164.15625 C 84.0625 165.914062 82.636719 167.339844 80.882812 167.339844 L 76.445312 167.339844 C 74.691406 167.339844 73.265625 165.914062 73.265625 164.15625 L 73.265625 149.105469 C 73.265625 147.347656 74.691406 145.921875 76.445312 145.921875 L 80.882812 145.921875 C 82.636719 145.921875 84.0625 147.347656 84.0625 149.105469 Z M 95.179688 195.285156 C 95.179688 197.042969 93.753906 198.46875 91.996094 198.46875 L 87.5625 198.46875 C 85.804688 198.46875 84.382812 197.042969 84.382812 195.285156 L 84.382812 182.632812 C 84.382812 180.875 85.804688 179.449219 87.5625 179.449219 L 91.996094 179.449219 C 93.753906 179.449219 95.179688 180.875 95.179688 182.632812 Z M 99.507812 164.15625 C 99.507812 165.914062 98.085938 167.339844 96.328125 167.339844 L 91.894531 167.339844 C 90.136719 167.339844 88.710938 165.914062 88.710938 164.15625 L 88.710938 149.105469 C 88.710938 147.347656 90.136719 145.921875 91.894531 145.921875 L 96.328125 145.921875 C 98.085938 145.921875 99.507812 147.347656 99.507812 149.105469 Z M 110.625 195.285156 C 110.625 197.042969 109.199219 198.46875 107.445312 198.46875 L 103.011719 198.46875 C 101.253906 198.46875 99.828125 197.042969 99.828125 195.285156 L 99.828125 182.632812 C 99.828125 180.875 101.253906 179.449219 103.011719 179.449219 L 107.445312 179.449219 C 109.199219 179.449219 110.625 180.875 110.625 182.632812 Z M 129.398438 164.15625 C 129.398438 165.914062 127.976562 167.339844 126.21875 167.339844 L 121.785156 167.339844 C 120.027344 167.339844 118.601562 165.914062 118.601562 164.15625 L 118.601562 149.105469 C 118.601562 147.347656 120.027344 145.921875 121.785156 145.921875 L 126.21875 145.921875 C 127.976562 145.921875 129.398438 147.347656 129.398438 149.105469 Z M 144.847656 164.15625 C 144.847656 165.914062 143.421875 167.339844 141.664062 167.339844 L 137.230469 167.339844 C 135.472656 167.339844 134.046875 165.914062 134.046875 164.15625 L 134.046875 149.105469 C 134.046875 147.347656 135.472656 145.921875 137.230469 145.921875 L 141.664062 145.921875 C 143.421875 145.921875 144.847656 147.347656 144.847656 149.105469 Z M 160.292969 164.15625 C 160.292969 165.914062 158.867188 167.339844 157.109375 167.339844 L 152.675781 167.339844 C 150.917969 167.339844 149.496094 165.914062 149.496094 164.15625 L 149.496094 149.105469 C 149.496094 147.347656 150.917969 145.921875 152.675781 145.921875 L 157.109375 145.921875 C 158.867188 145.921875 160.292969 147.347656 160.292969 149.105469 Z M 175.738281 164.15625 C 175.738281 165.914062 174.3125 167.339844 172.558594 167.339844 L 168.125 167.339844 C 166.367188 167.339844 164.941406 165.914062 164.941406 164.15625 L 164.941406 149.105469 C 164.941406 147.347656 166.367188 145.921875 168.125 145.921875 L 172.558594 145.921875 C 174.3125 145.921875 175.738281 147.347656 175.738281 149.105469 Z M 205.628906 164.15625 C 205.628906 165.914062 204.203125 167.339844 202.449219 167.339844 L 198.011719 167.339844 C 196.257812 167.339844 194.832031 165.914062 194.832031 164.15625 L 194.832031 149.105469 C 194.832031 147.347656 196.257812 145.921875 198.011719 145.921875 L 202.449219 145.921875 C 204.203125 145.921875 205.628906 147.347656 205.628906 149.105469 Z M 221.074219 164.15625 C 221.074219 165.914062 219.652344 167.339844 217.894531 167.339844 L 213.460938 167.339844 C 211.703125 167.339844 210.277344 165.914062 210.277344 164.15625 L 210.277344 149.105469 C 210.277344 147.347656 211.703125 145.921875 213.460938 145.921875 L 217.894531 145.921875 C 219.652344 145.921875 221.074219 147.347656 221.074219 149.105469 Z M 236.523438 164.15625 C 236.523438 165.914062 235.097656 167.339844 233.339844 167.339844 L 228.90625 167.339844 C 227.148438 167.339844 225.722656 165.914062 225.722656 164.15625 L 225.722656 149.105469 C 225.722656 147.347656 227.148438 145.921875 228.90625 145.921875 L 233.339844 145.921875 C 235.097656 145.921875 236.523438 147.347656 236.523438 149.105469 Z M 251.96875 164.15625 C 251.96875 165.914062 250.542969 167.339844 248.785156 167.339844 L 244.351562 167.339844 C 242.597656 167.339844 241.171875 165.914062 241.171875 164.15625 L 241.171875 149.105469 C 241.171875 147.347656 242.597656 145.921875 244.351562 145.921875 L 248.785156 145.921875 C 250.542969 145.921875 251.96875 147.347656 251.96875 149.105469 Z M 230.28125 59.359375 C 220.113281 59.359375 211.867188 51.113281 211.867188 40.945312 L 211.867188 38.308594 C 211.867188 28.140625 220.113281 19.894531 230.28125 19.894531 L 262.519531 19.894531 C 272.6875 19.894531 280.933594 28.140625 280.933594 38.308594 L 280.933594 40.945312 C 280.933594 51.113281 272.6875 59.359375 262.519531 59.359375 Z M 281.859375 164.15625 C 281.859375 165.914062 280.433594 167.339844 278.675781 167.339844 L 274.242188 167.339844 C 272.484375 167.339844 271.0625 165.914062 271.0625 164.15625 L 271.0625 149.105469 C 271.0625 147.347656 272.484375 145.921875 274.242188 145.921875 L 278.675781 145.921875 C 280.433594 145.921875 281.859375 147.347656 281.859375 149.105469 Z M 297.304688 164.15625 C 297.304688 165.914062 295.878906 167.339844 294.125 167.339844 L 289.691406 167.339844 C 287.933594 167.339844 286.507812 165.914062 286.507812 164.15625 L 286.507812 149.105469 C 286.507812 147.347656 287.933594 145.921875 289.691406 145.921875 L 294.125 145.921875 C 295.878906 145.921875 297.304688 147.347656 297.304688 149.105469 Z M 297.195312 105.917969 C 297.054688 106.105469 296.847656 106.210938 296.632812 106.210938 C 296.496094 106.210938 296.351562 106.167969 296.234375 106.078125 C 295.921875 105.855469 295.851562 105.421875 296.074219 105.109375 C 297.359375 103.316406 298.039062 101.207031 298.039062 99 C 298.039062 96.796875 297.359375 94.683594 296.074219 92.894531 C 295.851562 92.582031 295.921875 92.152344 296.234375 91.925781 C 296.542969 91.703125 296.972656 91.773438 297.203125 92.085938 C 298.65625 94.109375 299.429688 96.503906 299.429688 99 C 299.429688 101.5 298.648438 103.890625 297.195312 105.917969 Z M 301.53125 108.320312 C 303.488281 105.585938 304.527344 102.371094 304.527344 99.007812 C 304.527344 95.648438 303.488281 92.421875 301.53125 89.699219 C 301.3125 89.386719 301.378906 88.957031 301.691406 88.730469 C 302.003906 88.507812 302.429688 88.578125 302.660156 88.886719 C 304.789062 91.855469 305.917969 95.355469 305.917969 99.007812 C 305.917969 102.660156 304.789062 106.160156 302.660156 109.128906 C 302.519531 109.316406 302.3125 109.417969 302.097656 109.417969 C 301.960938 109.417969 301.816406 109.378906 301.699219 109.289062 C 301.378906 109.058594 301.3125 108.628906 301.53125 108.320312 Z M 312.753906 164.15625 C 312.753906 165.914062 311.328125 167.339844 309.570312 167.339844 L 305.136719 167.339844 C 303.378906 167.339844 301.953125 165.914062 301.953125 164.15625 L 301.953125 149.105469 C 301.953125 147.347656 303.378906 145.921875 305.136719 145.921875 L 309.570312 145.921875 C 311.328125 145.921875 312.753906 147.347656 312.753906 149.105469 Z M 308.339844 113.542969 C 308.199219 113.730469 307.992188 113.832031 307.777344 113.832031 C 307.640625 113.832031 307.496094 113.792969 307.378906 113.699219 C 307.066406 113.480469 306.996094 113.042969 307.21875 112.734375 C 310.109375 108.707031 311.636719 103.960938 311.636719 99 C 311.636719 94.042969 310.109375 89.296875 307.21875 85.269531 C 306.996094 84.960938 307.066406 84.53125 307.378906 84.300781 C 307.6875 84.082031 308.117188 84.148438 308.347656 84.460938 C 311.402344 88.722656 313.023438 93.75 313.023438 98.996094 C 313.023438 104.238281 311.394531 109.28125 308.339844 113.542969 Z M 313.410156 116.800781 C 317.152344 111.585938 319.136719 105.433594 319.136719 99.007812 C 319.136719 92.582031 317.160156 86.433594 313.410156 81.21875 C 313.1875 80.90625 313.257812 80.476562 313.570312 80.25 C 313.878906 80.027344 314.308594 80.097656 314.535156 80.40625 C 318.453125 85.859375 320.519531 92.292969 320.519531 99.007812 C 320.519531 105.726562 318.453125 112.160156 314.535156 117.609375 C 314.398438 117.796875 314.191406 117.898438 313.976562 117.898438 C 313.839844 117.898438 313.691406 117.859375 313.574219 117.769531 C 313.257812 117.539062 313.1875 117.113281 313.410156 116.800781 Z M 109.242188 182.632812 L 109.242188 195.285156 C 109.242188 196.28125 108.433594 197.082031 107.445312 197.082031 L 103.011719 197.082031 C 102.015625 197.082031 101.210938 196.273438 101.210938 195.285156 L 101.210938 182.632812 C 101.210938 181.636719 102.019531 180.835938 103.011719 180.835938 L 107.445312 180.835938 C 108.433594 180.835938 109.242188 181.636719 109.242188 182.632812 Z M 308.46875 57.976562 C 318.589844 57.976562 326.816406 49.742188 326.816406 39.628906 C 326.816406 29.507812 318.582031 21.285156 308.46875 21.285156 C 298.355469 21.285156 290.125 29.515625 290.125 39.628906 C 290.125 49.742188 298.355469 57.976562 308.46875 57.976562 Z M 308.46875 27.980469 C 314.902344 27.980469 320.113281 33.195312 320.113281 39.621094 C 320.113281 46.054688 314.898438 51.265625 308.46875 51.265625 C 302.039062 51.265625 296.828125 46.050781 296.828125 39.621094 C 296.828125 33.195312 302.042969 27.980469 308.46875 27.980469 Z M 51.785156 182.632812 L 51.785156 195.285156 C 51.785156 196.28125 50.976562 197.082031 49.988281 197.082031 L 45.554688 197.082031 C 44.558594 197.082031 43.753906 196.273438 43.753906 195.285156 L 43.753906 182.632812 C 43.753906 181.636719 44.566406 180.835938 45.554688 180.835938 L 49.988281 180.835938 C 50.976562 180.835938 51.785156 181.636719 51.785156 182.632812 Z M 67.234375 182.632812 L 67.234375 195.285156 C 67.234375 196.28125 66.425781 197.082031 65.433594 197.082031 L 61 197.082031 C 60.003906 197.082031 59.203125 196.273438 59.203125 195.285156 L 59.203125 182.632812 C 59.203125 181.636719 60.011719 180.835938 61 180.835938 L 65.433594 180.835938 C 66.425781 180.835938 67.234375 181.636719 67.234375 182.632812 Z M 93.796875 182.632812 L 93.796875 195.285156 C 93.796875 196.28125 92.988281 197.082031 91.996094 197.082031 L 87.5625 197.082031 C 86.566406 197.082031 85.765625 196.273438 85.765625 195.285156 L 85.765625 182.632812 C 85.765625 181.636719 86.574219 180.835938 87.5625 180.835938 L 91.996094 180.835938 C 92.988281 180.835938 93.796875 181.636719 93.796875 182.632812 Z M 93.796875 182.632812 " fill-opacity="1" fill-rule="nonzero"/><path fill="#ffffff" d="M 56.558594 109.550781 L 42.363281 109.550781 L 42.363281 88.402344 L 56.566406 88.402344 L 56.566406 109.550781 Z M 66.214844 118.785156 L 67.496094 118.785156 C 72.054688 118.785156 75.761719 115.078125 75.761719 110.519531 L 75.761719 87.449219 C 75.761719 82.890625 72.054688 79.183594 67.496094 79.183594 L 66.214844 79.183594 C 61.65625 79.183594 57.949219 82.890625 57.949219 87.449219 L 57.949219 110.519531 C 57.941406 115.078125 61.65625 118.785156 66.214844 118.785156 Z M 66.160156 120.167969 C 61 120.140625 56.800781 116.046875 56.582031 110.941406 L 42.363281 110.941406 L 42.363281 112.671875 C 42.363281 118.640625 47.207031 123.480469 53.175781 123.480469 L 66.167969 123.480469 L 66.167969 120.167969 Z M 67.542969 120.167969 L 67.542969 123.476562 L 80.535156 123.476562 C 86.503906 123.476562 91.347656 118.632812 91.347656 112.664062 L 91.347656 110.933594 L 77.125 110.933594 C 76.902344 116.046875 72.703125 120.140625 67.542969 120.167969 Z M 77.125 87.027344 L 91.347656 87.027344 L 91.347656 85.296875 C 91.347656 79.328125 86.503906 74.488281 80.535156 74.488281 L 67.542969 74.488281 L 67.542969 77.792969 C 72.703125 77.820312 76.902344 81.914062 77.125 87.027344 Z M 66.160156 77.792969 L 66.160156 74.488281 L 53.171875 74.488281 C 47.199219 74.488281 42.359375 79.328125 42.359375 85.296875 L 42.359375 87.027344 L 56.582031 87.027344 C 56.808594 81.914062 61.007812 77.820312 66.160156 77.792969 Z M 77.152344 109.550781 L 91.355469 109.550781 L 91.355469 88.402344 L 77.152344 88.402344 Z M 308.46875 51.273438 C 314.902344 51.273438 320.113281 46.054688 320.113281 39.628906 C 320.113281 33.195312 314.898438 27.988281 308.46875 27.988281 C 302.039062 27.988281 296.828125 33.203125 296.828125 39.628906 C 296.828125 46.054688 302.042969 51.273438 308.46875 51.273438 Z M 280.933594 40.945312 L 280.933594 38.308594 C 280.933594 28.140625 272.6875 19.894531 262.519531 19.894531 L 230.28125 19.894531 C 220.113281 19.894531 211.867188 28.140625 211.867188 38.308594 L 211.867188 40.945312 C 211.867188 51.113281 220.113281 59.359375 230.28125 59.359375 L 262.519531 59.359375 C 272.6875 59.359375 280.933594 51.113281 280.933594 40.945312 Z M 280.933594 40.945312 " fill-opacity="1" fill-rule="nonzero"/><path fill="#ffffff" d="M 313.570312 117.761719 C 313.257812 117.539062 313.1875 117.105469 313.410156 116.792969 C 317.152344 111.578125 319.136719 105.429688 319.136719 99 C 319.136719 92.574219 317.160156 86.425781 313.410156 81.210938 C 313.1875 80.898438 313.257812 80.46875 313.570312 80.242188 C 313.878906 80.019531 314.308594 80.089844 314.535156 80.402344 C 318.453125 85.851562 320.519531 92.285156 320.519531 99 C 320.519531 105.71875 318.453125 112.152344 314.535156 117.601562 C 314.398438 117.789062 314.191406 117.894531 313.976562 117.894531 C 313.832031 117.894531 313.691406 117.851562 313.570312 117.761719 Z M 307.371094 84.308594 C 307.058594 84.53125 306.988281 84.964844 307.210938 85.277344 C 310.101562 89.304688 311.632812 94.050781 311.632812 99.007812 C 311.632812 103.96875 310.101562 108.714844 307.210938 112.738281 C 306.988281 113.050781 307.058594 113.480469 307.371094 113.707031 C 307.496094 113.796875 307.632812 113.839844 307.773438 113.839844 C 307.984375 113.839844 308.199219 113.742188 308.332031 113.550781 C 311.390625 109.289062 313.007812 104.257812 313.007812 99.015625 C 313.007812 93.773438 311.390625 88.742188 308.332031 84.480469 C 308.117188 84.15625 307.683594 84.085938 307.371094 84.308594 Z M 302.660156 109.128906 C 304.789062 106.160156 305.917969 102.660156 305.917969 99.007812 C 305.917969 95.355469 304.789062 91.855469 302.660156 88.886719 C 302.4375 88.578125 302.003906 88.507812 301.691406 88.730469 C 301.378906 88.949219 301.3125 89.386719 301.53125 89.699219 C 303.488281 92.429688 304.527344 95.648438 304.527344 99.007812 C 304.527344 102.371094 303.488281 105.59375 301.53125 108.320312 C 301.3125 108.628906 301.378906 109.058594 301.691406 109.289062 C 301.816406 109.378906 301.953125 109.417969 302.09375 109.417969 C 302.3125 109.414062 302.519531 109.316406 302.660156 109.128906 Z M 296.226562 91.933594 C 295.914062 92.152344 295.847656 92.589844 296.066406 92.902344 C 297.355469 94.691406 298.03125 96.800781 298.03125 99.007812 C 298.03125 101.214844 297.355469 103.324219 296.066406 105.117188 C 295.847656 105.429688 295.914062 105.855469 296.226562 106.085938 C 296.351562 106.175781 296.488281 106.214844 296.628906 106.214844 C 296.84375 106.214844 297.054688 106.121094 297.1875 105.925781 C 298.640625 103.898438 299.414062 101.503906 299.414062 99.007812 C 299.414062 96.511719 298.648438 94.117188 297.1875 92.089844 C 296.972656 91.78125 296.539062 91.710938 296.226562 91.933594 Z M 45.546875 167.34375 L 49.980469 167.34375 C 51.738281 167.34375 53.164062 165.921875 53.164062 164.164062 L 53.164062 149.109375 C 53.164062 147.355469 51.738281 145.929688 49.980469 145.929688 L 45.546875 145.929688 C 43.789062 145.929688 42.363281 147.355469 42.363281 149.109375 L 42.363281 164.164062 C 42.363281 165.914062 43.789062 167.34375 45.546875 167.34375 Z M 60.992188 145.921875 C 59.238281 145.921875 57.8125 147.347656 57.8125 149.105469 L 57.8125 164.15625 C 57.8125 165.914062 59.238281 167.339844 60.992188 167.339844 L 65.425781 167.339844 C 67.183594 167.339844 68.609375 165.914062 68.609375 164.15625 L 68.609375 149.105469 C 68.609375 147.347656 67.183594 145.921875 65.425781 145.921875 Z M 80.882812 145.921875 L 76.445312 145.921875 C 74.691406 145.921875 73.265625 147.347656 73.265625 149.105469 L 73.265625 164.15625 C 73.265625 165.914062 74.691406 167.339844 76.445312 167.339844 L 80.882812 167.339844 C 82.636719 167.339844 84.0625 165.914062 84.0625 164.15625 L 84.0625 149.105469 C 84.0625 147.347656 82.636719 145.921875 80.882812 145.921875 Z M 96.328125 145.921875 L 91.894531 145.921875 C 90.136719 145.921875 88.710938 147.347656 88.710938 149.105469 L 88.710938 164.15625 C 88.710938 165.914062 90.136719 167.339844 91.894531 167.339844 L 96.328125 167.339844 C 98.085938 167.339844 99.507812 165.914062 99.507812 164.15625 L 99.507812 149.105469 C 99.507812 147.347656 98.085938 145.921875 96.328125 145.921875 Z M 126.210938 145.921875 L 121.777344 145.921875 C 120.019531 145.921875 118.59375 147.347656 118.59375 149.105469 L 118.59375 164.15625 C 118.59375 165.914062 120.019531 167.339844 121.777344 167.339844 L 126.210938 167.339844 C 127.96875 167.339844 129.394531 165.914062 129.394531 164.15625 L 129.394531 149.105469 C 129.398438 147.347656 127.976562 145.921875 126.210938 145.921875 Z M 141.664062 145.921875 L 137.230469 145.921875 C 135.472656 145.921875 134.046875 147.347656 134.046875 149.105469 L 134.046875 164.15625 C 134.046875 165.914062 135.472656 167.339844 137.230469 167.339844 L 141.664062 167.339844 C 143.421875 167.339844 144.847656 165.914062 144.847656 164.15625 L 144.847656 149.105469 C 144.847656 147.347656 143.421875 145.921875 141.664062 145.921875 Z M 157.109375 145.921875 L 152.675781 145.921875 C 150.917969 145.921875 149.496094 147.347656 149.496094 149.105469 L 149.496094 164.15625 C 149.496094 165.914062 150.917969 167.339844 152.675781 167.339844 L 157.109375 167.339844 C 158.867188 167.339844 160.292969 165.914062 160.292969 164.15625 L 160.292969 149.105469 C 160.292969 147.347656 158.867188 145.921875 157.109375 145.921875 Z M 172.558594 145.921875 L 168.125 145.921875 C 166.367188 145.921875 164.941406 147.347656 164.941406 149.105469 L 164.941406 164.15625 C 164.941406 165.914062 166.367188 167.339844 168.125 167.339844 L 172.558594 167.339844 C 174.3125 167.339844 175.738281 165.914062 175.738281 164.15625 L 175.738281 149.105469 C 175.738281 147.347656 174.3125 145.921875 172.558594 145.921875 Z M 202.449219 145.921875 L 198.011719 145.921875 C 196.257812 145.921875 194.832031 147.347656 194.832031 149.105469 L 194.832031 164.15625 C 194.832031 165.914062 196.257812 167.339844 198.011719 167.339844 L 202.449219 167.339844 C 204.203125 167.339844 205.628906 165.914062 205.628906 164.15625 L 205.628906 149.105469 C 205.628906 147.347656 204.203125 145.921875 202.449219 145.921875 Z M 217.894531 145.921875 L 213.460938 145.921875 C 211.703125 145.921875 210.277344 147.347656 210.277344 149.105469 L 210.277344 164.15625 C 210.277344 165.914062 211.703125 167.339844 213.460938 167.339844 L 217.894531 167.339844 C 219.652344 167.339844 221.074219 165.914062 221.074219 164.15625 L 221.074219 149.105469 C 221.074219 147.347656 219.652344 145.921875 217.894531 145.921875 Z M 233.339844 145.921875 L 228.90625 145.921875 C 227.148438 145.921875 225.722656 147.347656 225.722656 149.105469 L 225.722656 164.15625 C 225.722656 165.914062 227.148438 167.339844 228.90625 167.339844 L 233.339844 167.339844 C 235.097656 167.339844 236.523438 165.914062 236.523438 164.15625 L 236.523438 149.105469 C 236.523438 147.347656 235.097656 145.921875 233.339844 145.921875 Z M 248.785156 145.921875 L 244.351562 145.921875 C 242.597656 145.921875 241.171875 147.347656 241.171875 149.105469 L 241.171875 164.15625 C 241.171875 165.914062 242.597656 167.339844 244.351562 167.339844 L 248.785156 167.339844 C 250.542969 167.339844 251.96875 165.914062 251.96875 164.15625 L 251.96875 149.105469 C 251.96875 147.347656 250.542969 145.921875 248.785156 145.921875 Z M 278.675781 145.921875 L 274.242188 145.921875 C 272.484375 145.921875 271.0625 147.347656 271.0625 149.105469 L 271.0625 164.15625 C 271.0625 165.914062 272.484375 167.339844 274.242188 167.339844 L 278.675781 167.339844 C 280.433594 167.339844 281.859375 165.914062 281.859375 164.15625 L 281.859375 149.105469 C 281.859375 147.347656 280.433594 145.921875 278.675781 145.921875 Z M 294.125 145.921875 L 289.691406 145.921875 C 287.933594 145.921875 286.507812 147.347656 286.507812 149.105469 L 286.507812 164.15625 C 286.507812 165.914062 287.933594 167.339844 289.691406 167.339844 L 294.125 167.339844 C 295.878906 167.339844 297.304688 165.914062 297.304688 164.15625 L 297.304688 149.105469 C 297.304688 147.347656 295.878906 145.921875 294.125 145.921875 Z M 309.570312 145.921875 L 305.136719 145.921875 C 303.378906 145.921875 301.953125 147.347656 301.953125 149.105469 L 301.953125 164.15625 C 301.953125 165.914062 303.378906 167.339844 305.136719 167.339844 L 309.570312 167.339844 C 311.328125 167.339844 312.753906 165.914062 312.753906 164.15625 L 312.753906 149.105469 C 312.753906 147.347656 311.328125 145.921875 309.570312 145.921875 Z M 320.582031 145.921875 C 318.824219 145.921875 317.402344 147.347656 317.402344 149.105469 L 317.402344 164.15625 C 317.402344 165.914062 318.824219 167.339844 320.582031 167.339844 L 325.015625 167.339844 C 326.773438 167.339844 328.199219 165.914062 328.199219 164.15625 L 328.199219 149.105469 C 328.199219 147.347656 326.773438 145.921875 325.015625 145.921875 Z M 320.582031 145.921875 " fill-opacity="1" fill-rule="nonzero"/><g clip-path="url(#e6a338f542)"><path fill="#000000" d="M 47.359375 220.796875 L 37.621094 220.796875 C 24.457031 220.796875 13.789062 210.128906 13.789062 196.964844 L 13.789062 24.523438 C 13.789062 11.359375 24.457031 0.691406 37.621094 0.691406 L 47.359375 0.691406 C 34.195312 0.691406 23.527344 11.359375 23.527344 24.523438 L 23.527344 196.964844 C 23.527344 210.128906 34.195312 220.796875 47.359375 220.796875 Z M 321.59375 0 L 129.910156 0 C 129.53125 0 129.21875 0.3125 129.21875 0.691406 C 129.21875 1.070312 129.53125 1.382812 129.910156 1.382812 L 321.59375 1.382812 C 335.242188 1.382812 346.351562 12.484375 346.351562 26.140625 L 346.351562 195.347656 C 346.351562 208.996094 335.246094 220.105469 321.59375 220.105469 C 321.210938 220.105469 320.902344 220.414062 320.902344 220.796875 C 320.902344 221.175781 321.210938 221.488281 321.59375 221.488281 C 336.007812 221.488281 347.734375 209.761719 347.734375 195.347656 L 347.734375 26.140625 C 347.726562 11.726562 336 0 321.59375 0 Z M 56.585938 110.933594 L 42.144531 110.933594 C 41.761719 110.933594 41.453125 110.621094 41.453125 110.242188 C 41.453125 109.863281 41.761719 109.550781 42.144531 109.550781 L 56.566406 109.550781 L 56.566406 88.402344 L 42.144531 88.402344 C 41.761719 88.402344 41.453125 88.09375 41.453125 87.710938 C 41.453125 87.332031 41.761719 87.019531 42.144531 87.019531 L 56.585938 87.019531 C 56.808594 81.910156 61.007812 77.820312 66.167969 77.792969 L 66.167969 74.488281 C 66.167969 74.105469 66.480469 73.792969 66.859375 73.792969 C 67.238281 73.792969 67.550781 74.105469 67.550781 74.488281 L 67.550781 77.792969 C 72.710938 77.820312 76.910156 81.914062 77.132812 87.019531 L 91.574219 87.019531 C 91.957031 87.019531 92.265625 87.332031 92.265625 87.710938 C 92.265625 88.09375 91.957031 88.402344 91.574219 88.402344 L 77.152344 88.402344 L 77.152344 109.550781 L 91.574219 109.550781 C 91.957031 109.550781 92.265625 109.863281 92.265625 110.242188 C 92.265625 110.621094 91.957031 110.933594 91.574219 110.933594 L 77.125 110.933594 C 76.902344 116.046875 72.703125 120.132812 67.542969 120.160156 L 67.542969 123.523438 C 67.542969 123.90625 67.234375 124.214844 66.851562 124.214844 C 66.472656 124.214844 66.160156 123.90625 66.160156 123.523438 L 66.160156 120.160156 C 61.007812 120.140625 56.808594 116.046875 56.585938 110.933594 Z M 57.941406 110.519531 C 57.941406 115.078125 61.652344 118.785156 66.210938 118.785156 L 67.488281 118.785156 C 72.046875 118.785156 75.753906 115.078125 75.753906 110.519531 L 75.753906 87.449219 C 75.753906 82.890625 72.046875 79.183594 67.488281 79.183594 L 66.210938 79.183594 C 61.652344 79.183594 57.941406 82.890625 57.941406 87.449219 Z M 288.742188 39.628906 C 288.742188 28.734375 297.574219 19.902344 308.46875 19.902344 C 319.363281 19.902344 328.199219 28.734375 328.199219 39.628906 C 328.199219 50.523438 319.371094 59.359375 308.46875 59.359375 C 297.570312 59.359375 288.742188 50.523438 288.742188 39.628906 Z M 290.125 39.628906 C 290.125 49.75 298.355469 57.976562 308.46875 57.976562 C 318.582031 57.976562 326.816406 49.742188 326.816406 39.628906 C 326.816406 29.507812 318.582031 21.285156 308.46875 21.285156 C 298.355469 21.285156 290.125 29.507812 290.125 39.628906 Z M 53.171875 182.632812 L 53.171875 195.285156 C 53.171875 197.042969 51.746094 198.46875 49.988281 198.46875 L 45.554688 198.46875 C 43.796875 198.46875 42.371094 197.042969 42.371094 195.285156 L 42.371094 182.632812 C 42.371094 180.875 43.796875 179.449219 45.554688 179.449219 L 49.988281 179.449219 C 51.738281 179.449219 53.171875 180.875 53.171875 182.632812 Z M 51.785156 182.632812 C 51.785156 181.636719 50.976562 180.835938 49.988281 180.835938 L 45.554688 180.835938 C 44.558594 180.835938 43.753906 181.644531 43.753906 182.632812 L 43.753906 195.285156 C 43.753906 196.28125 44.566406 197.082031 45.554688 197.082031 L 49.988281 197.082031 C 50.984375 197.082031 51.785156 196.273438 51.785156 195.285156 Z M 68.617188 182.632812 L 68.617188 195.285156 C 68.617188 197.042969 67.191406 198.46875 65.433594 198.46875 L 61 198.46875 C 59.242188 198.46875 57.820312 197.042969 57.820312 195.285156 L 57.820312 182.632812 C 57.820312 180.875 59.242188 179.449219 61 179.449219 L 65.433594 179.449219 C 67.191406 179.449219 68.617188 180.875 68.617188 182.632812 Z M 67.234375 182.632812 C 67.234375 181.636719 66.425781 180.835938 65.433594 180.835938 L 61 180.835938 C 60.003906 180.835938 59.203125 181.644531 59.203125 182.632812 L 59.203125 195.285156 C 59.203125 196.28125 60.011719 197.082031 61 197.082031 L 65.433594 197.082031 C 66.429688 197.082031 67.234375 196.273438 67.234375 195.285156 Z M 95.179688 182.632812 L 95.179688 195.285156 C 95.179688 197.042969 93.753906 198.46875 91.996094 198.46875 L 87.5625 198.46875 C 85.804688 198.46875 84.382812 197.042969 84.382812 195.285156 L 84.382812 182.632812 C 84.382812 180.875 85.804688 179.449219 87.5625 179.449219 L 91.996094 179.449219 C 93.753906 179.449219 95.179688 180.875 95.179688 182.632812 Z M 93.796875 182.632812 C 93.796875 181.636719 92.988281 180.835938 91.996094 180.835938 L 87.5625 180.835938 C 86.566406 180.835938 85.765625 181.644531 85.765625 182.632812 L 85.765625 195.285156 C 85.765625 196.28125 86.574219 197.082031 87.5625 197.082031 L 91.996094 197.082031 C 92.992188 197.082031 93.796875 196.273438 93.796875 195.285156 Z M 110.625 182.632812 L 110.625 195.285156 C 110.625 197.042969 109.199219 198.46875 107.445312 198.46875 L 103.011719 198.46875 C 101.253906 198.46875 99.828125 197.042969 99.828125 195.285156 L 99.828125 182.632812 C 99.828125 180.875 101.253906 179.449219 103.011719 179.449219 L 107.445312 179.449219 C 109.199219 179.449219 110.625 180.875 110.625 182.632812 Z M 109.242188 182.632812 C 109.242188 181.636719 108.433594 180.835938 107.445312 180.835938 L 103.011719 180.835938 C 102.015625 180.835938 101.210938 181.644531 101.210938 182.632812 L 101.210938 195.285156 C 101.210938 196.28125 102.019531 197.082031 103.011719 197.082031 L 107.445312 197.082031 C 108.441406 197.082031 109.242188 196.273438 109.242188 195.285156 Z M 80.8125 179.789062 C 80.464844 179.628906 80.050781 179.78125 79.898438 180.136719 L 72.125 197.269531 C 71.964844 197.617188 72.117188 198.03125 72.46875 198.183594 C 72.558594 198.226562 72.65625 198.246094 72.753906 198.246094 C 73.015625 198.246094 73.265625 198.09375 73.382812 197.835938 L 81.15625 180.703125 C 81.316406 180.355469 81.15625 179.941406 80.8125 179.789062 Z M 42.605469 20.585938 L 138.757812 20.585938 C 139.140625 20.585938 139.449219 20.273438 139.449219 19.894531 C 139.449219 19.515625 139.140625 19.203125 138.757812 19.203125 L 42.605469 19.203125 C 42.226562 19.203125 41.914062 19.515625 41.914062 19.894531 C 41.914062 20.273438 42.226562 20.585938 42.605469 20.585938 Z M 42.605469 30.878906 L 99.820312 30.878906 C 100.203125 30.878906 100.511719 30.566406 100.511719 30.1875 C 100.511719 29.808594 100.203125 29.496094 99.820312 29.496094 L 42.605469 29.496094 C 42.226562 29.496094 41.914062 29.808594 41.914062 30.1875 C 41.914062 30.566406 42.226562 30.878906 42.605469 30.878906 Z M 42.605469 30.878906 " fill-opacity="1" fill-rule="nonzero"/></g></svg>