<svg xmlns="http://www.w3.org/2000/svg" xmlns:xlink="http://www.w3.org/1999/xlink" width="500" zoomAndPan="magnify" viewBox="0 0 375 374.999991" height="500" preserveAspectRatio="xMidYMid meet" version="1.0"><defs><clipPath id="b662a19559"><path d="M 121 23.355469 L 315 23.355469 L 315 217 L 121 217 Z M 121 23.355469 " clip-rule="nonzero"/></clipPath><clipPath id="e1f3c956b4"><path d="M 90.027344 193.035156 L 334.113281 193.035156 L 334.113281 300 L 90.027344 300 Z M 90.027344 193.035156 " clip-rule="nonzero"/></clipPath></defs><g clip-path="url(#b662a19559)"><path fill="#dd2590" d="M 299.082031 119.820312 C 299.082031 164.328125 262.875 200.535156 218.367188 200.535156 C 173.859375 200.535156 137.652344 164.328125 137.652344 119.820312 C 137.652344 75.3125 173.859375 39.105469 218.367188 39.105469 C 262.875 39.105469 299.082031 75.3125 299.082031 119.820312 Z M 121.902344 119.820312 C 121.902344 173.097656 165.089844 216.285156 218.367188 216.285156 C 271.644531 216.285156 314.832031 173.097656 314.832031 119.820312 C 314.832031 66.546875 271.644531 23.355469 218.367188 23.355469 C 165.089844 23.355469 121.902344 66.546875 121.902344 119.820312 " fill-opacity="1" fill-rule="nonzero"/></g><path fill="#dd2590" d="M 211.90625 58.53125 L 211.90625 73.460938 C 197.984375 76.476562 189.804688 86.523438 189.804688 101.019531 C 189.804688 126.136719 226.832031 127.714844 226.832031 139.195312 C 226.832031 144.796875 223.964844 147.234375 216.785156 147.234375 C 210.761719 147.234375 204.734375 144.941406 196.980469 139.195312 L 186.359375 155.847656 C 193.535156 162.304688 203.726562 165.75 211.90625 166.757812 L 211.90625 181.109375 L 227.984375 181.109375 L 227.984375 165.894531 C 243.054688 162.304688 250.375 151.394531 250.375 137.472656 C 250.375 111.351562 213.34375 110.777344 213.34375 99.871094 C 213.34375 94.128906 216.355469 92.410156 222.53125 92.410156 C 227.839844 92.410156 232.289062 94.703125 237.457031 99.292969 L 249.65625 85.230469 C 243.917969 79.203125 237.027344 74.609375 227.984375 73.175781 L 227.984375 58.53125 L 211.90625 58.53125 " fill-opacity="1" fill-rule="nonzero"/><path fill="#dd2590" d="M 122.085938 348.867188 L 142.019531 328.757812 C 144.667969 326.082031 144.703125 321.78125 142.097656 319.066406 L 134.617188 311.273438 L 76.03125 255.027344 L 69.210938 248.957031 C 66.410156 246.464844 62.136719 246.648438 59.558594 249.371094 L 40.171875 269.832031 C 37.554688 272.597656 37.652344 276.953125 40.394531 279.597656 L 112.339844 348.980469 C 115.074219 351.613281 119.414062 351.566406 122.085938 348.867188 " fill-opacity="1" fill-rule="nonzero"/><g clip-path="url(#e1f3c956b4)"><path fill="#dd2590" d="M 275.054688 264.636719 L 274.996094 264.636719 C 275.0625 264.617188 275.082031 264.617188 275.054688 264.636719 Z M 246.222656 298.570312 C 250.398438 297.042969 253.761719 293.917969 256.988281 290.859375 C 286.890625 262.527344 343.789062 202.515625 332.699219 194.339844 C 332.105469 194.109375 331.511719 193.917969 330.90625 193.773438 C 323.84375 192.039062 316.292969 196 309.867188 199.847656 C 295.148438 208.652344 280.433594 217.457031 265.71875 226.261719 C 263.804688 227.410156 263.03125 229.816406 263.949219 231.851562 C 266.207031 236.875 266.578125 241.691406 265.707031 246.203125 C 263.460938 257.867188 253.023438 266.160156 241.144531 266.160156 L 181.128906 266.160156 C 179.007812 266.160156 177.292969 264.441406 177.292969 262.324219 L 177.292969 259.5 C 177.292969 257.371094 179.023438 255.648438 181.152344 255.664062 C 197.023438 255.746094 212.894531 255.835938 228.765625 255.917969 C 238.96875 255.976562 252.5625 253.03125 252.984375 242.832031 C 253.207031 237.453125 248.949219 232.703125 243.980469 230.617188 C 239.015625 228.535156 233.457031 228.542969 228.070312 228.585938 C 212.691406 228.703125 194.839844 229.929688 179.085938 225.820312 C 162.054688 221.378906 149.0625 215.257812 131.1875 221.417969 C 115.324219 226.890625 102.046875 238.042969 90.46875 250.1875 C 104.308594 263.589844 118.148438 276.992188 131.988281 290.394531 C 135.300781 293.601562 138.75 296.898438 143.078125 298.5 C 146.777344 299.867188 150.820312 299.886719 154.765625 299.890625 C 181.453125 299.890625 208.140625 299.898438 234.832031 299.898438 C 238.675781 299.902344 242.609375 299.886719 246.222656 298.570312 " fill-opacity="1" fill-rule="nonzero"/></g></svg>