<svg xmlns="http://www.w3.org/2000/svg" xmlns:xlink="http://www.w3.org/1999/xlink" width="469" zoomAndPan="magnify" viewBox="0 0 351.75 326.250004" height="435" preserveAspectRatio="xMidYMid meet" version="1.0"><defs><clipPath id="6e008b5b60"><path d="M 0.277344 301 L 349 301 L 349 325.5 L 0.277344 325.5 Z M 0.277344 301 " clip-rule="nonzero"/></clipPath><clipPath id="9df9efd222"><path d="M 118.078125 147.777344 L 233.3125 147.777344 L 233.3125 263 L 118.078125 263 Z M 118.078125 147.777344 " clip-rule="nonzero"/></clipPath></defs><path fill="#ba2d53" d="M 6.582031 86.113281 C 102.859375 86.296875 199.175781 86.066406 295.464844 86.253906 C 298.542969 86.253906 301.617188 86.335938 304.695312 86.40625 C 305.75 86.429688 305.898438 86.714844 305.375 87.5625 C 302.886719 90.929688 299.746094 95.007812 295.152344 94.972656 C 201.4375 94.773438 107.667969 95.289062 13.980469 94.714844 C 13.585938 95.289062 14.847656 95.585938 15.121094 95.941406 C 18.492188 97.996094 22.0625 100.886719 21.824219 105.214844 C 21.804688 107.707031 21.886719 110.199219 21.941406 112.691406 C 22.132812 113.742188 21.519531 115.96875 22.90625 116.15625 C 73.90625 116.453125 124.917969 115.9375 175.925781 116.121094 C 175.925781 116.101562 175.925781 116.078125 175.925781 116.0625 C 226.703125 114.992188 280.078125 118.113281 329.617188 115.039062 C 331.679688 98.246094 332.230469 98.445312 345.382812 88.324219 C 346.542969 87.429688 352.765625 81.71875 350.308594 80.917969 C 294.457031 55.960938 239.613281 28.609375 184.070312 2.894531 C 181.710938 2.167969 178.039062 -0.933594 175.769531 0.363281 C 164.082031 6.125 152.167969 11.425781 140.402344 17.027344 C 94.410156 38.632812 48.421875 60.246094 2.191406 81.328125 C 1.761719 81.429688 1.347656 81.738281 1.402344 82.140625 C 2.628906 84.117188 4.058594 85.921875 6.582031 86.113281 Z M 45.605469 78.214844 C 45.617188 78.171875 45.730469 78.148438 45.796875 78.125 C 58.753906 72.6875 71.339844 66.394531 84.207031 60.742188 C 113.769531 47.40625 143.355469 34.121094 172.90625 20.757812 C 175.125 19.992188 176.511719 18.011719 178.898438 19.503906 C 220.050781 38.496094 261.496094 56.851562 302.40625 76.375 C 304.417969 77.476562 308.832031 78.25 306.699219 79.402344 C 302.101562 80.113281 292.582031 73.832031 287.609375 72.113281 C 251.140625 55.890625 215.105469 38.707031 178.527344 22.75 C 177.515625 22.296875 176.660156 22.269531 175.617188 22.75 C 170.703125 25.027344 165.746094 27.214844 160.808594 29.441406 C 135.792969 40.757812 110.730469 51.972656 85.628906 63.078125 C 73.789062 68.34375 61.914062 73.535156 50.105469 78.867188 C 48.703125 79.503906 47.3125 79.726562 45.878906 78.996094 C 45.5 78.875 45.484375 78.542969 45.605469 78.214844 Z M 45.605469 78.214844 " fill-opacity="1" fill-rule="nonzero"/><g clip-path="url(#6e008b5b60)"><path fill="#ba2d53" d="M 348.5625 315.257812 C 348.546875 314.140625 348.46875 314.046875 347.335938 313.824219 C 282.101562 304.621094 216.234375 299.796875 150.335938 301.976562 C 102.574219 303.191406 55.050781 309.105469 7.90625 316.613281 C 5.804688 316.945312 3.707031 317.292969 1.628906 317.699219 C 0.332031 317.957031 0.289062 318.035156 0.285156 319.265625 C 0.265625 320.949219 0.289062 322.636719 0.332031 324.320312 C 0.355469 325.289062 0.488281 325.414062 1.539062 325.417969 C 59.152344 325.382812 116.761719 325.414062 174.371094 325.40625 C 174.371094 325.394531 174.371094 325.390625 174.371094 325.378906 C 232.203125 325.347656 290.03125 325.449219 347.863281 325.308594 C 348.714844 325.332031 348.703125 324.460938 348.667969 323.824219 C 348.632812 320.972656 348.609375 318.113281 348.5625 315.257812 Z M 348.5625 315.257812 " fill-opacity="1" fill-rule="nonzero"/></g><path fill="#ba2d53" d="M 13.789062 311.738281 C 49.503906 305.277344 85.371094 299.054688 121.621094 296.613281 C 178.757812 292.539062 236.28125 294.46875 293.207031 300.492188 C 309.0625 302.328125 324.898438 304.367188 340.679688 306.742188 C 341.21875 306.8125 342.054688 306.976562 342.066406 306.210938 C 342.09375 305.703125 342.082031 305.191406 342.070312 304.675781 C 341.90625 297.421875 341.742188 290.171875 341.5625 282.921875 C 341.5 280.273438 341.824219 280.464844 339.015625 280.453125 C 285.085938 280.335938 231.15625 280.121094 177.230469 280.210938 C 177.230469 280.214844 177.230469 280.222656 177.230469 280.226562 C 122.722656 280.238281 68.191406 280.164062 13.695312 280.53125 C 13.035156 280.746094 13.0625 281.589844 13.085938 282.171875 C 12.980469 291.695312 12.878906 301.222656 12.773438 310.746094 C 12.765625 311.605469 12.96875 311.816406 13.789062 311.738281 Z M 13.789062 311.738281 " fill-opacity="1" fill-rule="nonzero"/><path fill="#ba2d53" d="M 110.695312 257.015625 C 112.152344 257.015625 112.230469 256.957031 112.253906 255.597656 C 112.253906 247.683594 111.707031 239.785156 111.472656 231.878906 C 110.46875 211.320312 109.761719 190.753906 108.808594 170.191406 C 108.695312 164.625 108.277344 159.070312 108.03125 153.507812 C 107.988281 152.804688 107.804688 152.640625 107.078125 152.601562 C 96.824219 152.566406 86.5625 152.558594 76.308594 152.601562 C 75.476562 152.589844 75.519531 153.496094 75.476562 154.109375 C 75.144531 159.957031 74.804688 165.808594 74.496094 171.65625 C 74.074219 182.34375 73.398438 193.019531 72.820312 203.695312 C 71.8125 221.179688 71.03125 238.667969 70.242188 256.152344 C 70.230469 256.882812 70.410156 257.050781 71.128906 257.09375 C 77.796875 257.109375 84.464844 257.09375 91.132812 257.097656 C 91.132812 257.058594 91.132812 257.015625 91.132812 256.976562 C 97.652344 256.980469 104.175781 256.953125 110.695312 257.015625 Z M 110.695312 257.015625 " fill-opacity="1" fill-rule="nonzero"/><path fill="#ba2d53" d="M 241.273438 257.039062 C 253.871094 256.859375 266.476562 257.003906 279.078125 257.046875 C 281.007812 257.050781 281.023438 257.046875 280.964844 255.125 C 280.738281 241.199219 279.726562 227.320312 279.347656 213.402344 C 278.761719 193.777344 277.558594 174.179688 276.882812 154.558594 C 276.804688 152.554688 276.777344 152.582031 274.925781 152.589844 C 265.03125 152.582031 255.136719 152.566406 245.25 152.589844 C 244.71875 152.59375 244.449219 152.871094 244.421875 153.394531 C 243.277344 172.480469 242.808594 191.601562 242.113281 210.707031 C 242.097656 210.707031 242.074219 210.707031 242.054688 210.707031 C 241.390625 224.824219 240.996094 238.972656 240.695312 253.101562 C 240.914062 254.128906 239.824219 256.882812 241.273438 257.039062 Z M 241.273438 257.039062 " fill-opacity="1" fill-rule="nonzero"/><path fill="#ba2d53" d="M 157.945312 233.398438 C 157.699219 240.503906 157.484375 247.601562 157.238281 254.707031 C 157.15625 257.140625 156.910156 257.082031 159.5625 257.0625 C 170.992188 257.023438 182.429688 256.859375 193.859375 256.96875 C 194.917969 256.976562 195.046875 256.886719 195.039062 255.882812 C 194.953125 247.601562 194.40625 239.335938 194.015625 231.066406 C 192.714844 205.835938 191.574219 180.578125 190.28125 155.339844 C 190.128906 152.226562 190.054688 152.605469 187.382812 152.59375 C 178.667969 152.566406 169.941406 152.519531 161.222656 152.558594 C 160.816406 152.578125 160.523438 152.757812 160.492188 153.203125 C 160.21875 160.449219 160.054688 167.699219 159.820312 174.953125 C 159.492188 184.910156 158.957031 194.867188 159.089844 204.835938 C 159.050781 204.835938 159.003906 204.835938 158.960938 204.835938 C 158.617188 214.359375 158.285156 223.878906 157.945312 233.398438 Z M 157.945312 233.398438 " fill-opacity="1" fill-rule="nonzero"/><path fill="#ba2d53" d="M 57.414062 205.296875 C 57.046875 188.019531 56.277344 170.75 55.925781 153.476562 C 55.859375 152.640625 55.726562 152.535156 54.816406 152.496094 C 48.300781 152.496094 41.777344 152.5 35.261719 152.507812 C 34.242188 152.507812 33.210938 152.507812 32.191406 152.542969 C 31.253906 152.570312 31.160156 152.652344 31.113281 153.535156 C 29.34375 187.46875 28.179688 221.425781 27.125 255.378906 C 27.03125 258.144531 26.691406 257.957031 29.640625 257.953125 C 38.945312 257.933594 48.242188 257.90625 57.542969 257.882812 C 58.550781 257.953125 59.039062 257.488281 58.90625 256.457031 C 58.769531 239.386719 57.726562 222.355469 57.53125 205.289062 C 57.492188 205.289062 57.457031 205.296875 57.414062 205.296875 Z M 57.414062 205.296875 " fill-opacity="1" fill-rule="nonzero"/><path fill="#ba2d53" d="M 16.816406 264.871094 C 16.691406 267.285156 16.65625 269.703125 16.597656 272.117188 C 16.585938 272.53125 16.832031 272.804688 17.265625 272.824219 C 70.539062 272.980469 123.820312 272.828125 177.09375 272.882812 C 177.09375 272.882812 177.09375 272.875 177.09375 272.875 C 230.445312 272.792969 283.792969 273.027344 337.144531 272.804688 C 337.851562 272.777344 338.078125 272.507812 338 271.828125 C 337.695312 269.585938 337.460938 267.320312 337.070312 265.085938 C 232.511719 261.171875 123.953125 265.230469 18.082031 263.828125 C 17.039062 263.828125 16.863281 263.90625 16.816406 264.871094 Z M 16.816406 264.871094 " fill-opacity="1" fill-rule="nonzero"/><path fill="#ba2d53" d="M 322.15625 154.582031 C 322.09375 152.472656 322.074219 152.464844 319.871094 152.464844 C 312.472656 152.488281 305.070312 152.441406 297.671875 152.511719 C 296.917969 152.554688 296.761719 152.671875 296.71875 153.402344 C 295.867188 170.59375 296.230469 187.832031 295.894531 205.039062 C 295.871094 205.039062 295.855469 205.039062 295.832031 205.039062 C 295.160156 221.875 295.195312 238.734375 294.875 255.578125 C 294.792969 256.152344 294.851562 256.777344 295.453125 257.015625 C 304.949219 257.191406 314.5 257.015625 324.015625 257.0625 C 325.199219 257.0625 325.328125 256.957031 325.3125 255.84375 C 325.015625 235.332031 323.921875 214.84375 323.4375 194.339844 C 322.933594 181.09375 322.5 167.839844 322.15625 154.582031 Z M 322.15625 154.582031 " fill-opacity="1" fill-rule="nonzero"/><path fill="#ba2d53" d="M 327.449219 124.160156 C 303.421875 124.21875 279.402344 124.277344 255.371094 124.332031 C 248.851562 124.34375 242.335938 124.335938 235.816406 124.359375 C 233.785156 124.367188 233.875 124.332031 233.878906 126.289062 C 233.890625 132.515625 233.9375 138.742188 233.925781 144.96875 C 233.921875 146.9375 233.949219 146.855469 235.855469 146.851562 C 266.546875 146.816406 297.242188 146.855469 327.929688 146.972656 C 328.648438 146.960938 328.703125 146.21875 328.667969 145.648438 C 328.679688 138.910156 328.695312 132.167969 328.695312 125.429688 C 328.695312 124.265625 328.578125 124.160156 327.449219 124.160156 Z M 327.449219 124.160156 " fill-opacity="1" fill-rule="nonzero"/><path fill="#ba2d53" d="M 118.625 124.308594 C 95.046875 124.03125 71.457031 124.34375 47.878906 124.324219 C 40.847656 124.34375 33.8125 124.324219 26.785156 124.371094 C 24.296875 124.390625 24.457031 124.109375 24.457031 126.808594 C 24.457031 132.667969 24.5 138.523438 24.527344 144.386719 C 24.539062 147.121094 24.273438 146.851562 27 146.851562 C 41.941406 146.851562 56.882812 146.851562 71.824219 146.851562 C 71.824219 146.867188 71.824219 146.886719 71.824219 146.902344 C 87.351562 146.972656 102.882812 146.761719 118.402344 146.996094 C 119.546875 146.9375 119.085938 145.355469 119.226562 144.589844 C 119.269531 138.367188 119.296875 132.136719 119.328125 125.914062 C 119.304688 125.324219 119.429688 124.359375 118.625 124.308594 Z M 118.625 124.308594 " fill-opacity="1" fill-rule="nonzero"/><path fill="#ba2d53" d="M 214.164062 146.898438 C 215.269531 146.644531 218.710938 147.726562 218.832031 146.390625 C 218.914062 139.429688 218.863281 132.46875 218.855469 125.511719 C 218.804688 124.476562 218.710938 124.347656 217.746094 124.300781 C 190.714844 124.21875 163.675781 124.378906 136.640625 124.285156 C 135.695312 124.394531 133.875 123.828125 134.046875 125.28125 C 134.082031 132.019531 134.085938 138.765625 134.109375 145.5 C 134.085938 146.0625 134.070312 146.84375 134.816406 146.84375 C 148.734375 146.945312 162.65625 146.851562 176.574219 146.878906 C 176.574219 146.878906 176.574219 146.886719 176.574219 146.886719 C 189.109375 146.890625 201.636719 146.886719 214.164062 146.898438 Z M 214.164062 146.898438 " fill-opacity="1" fill-rule="nonzero"/><g clip-path="url(#9df9efd222)"><path fill="#ffffff" d="M 233.089844 205.28125 C 233.089844 237.042969 207.34375 262.789062 175.582031 262.789062 C 143.824219 262.789062 118.078125 237.042969 118.078125 205.28125 C 118.078125 173.523438 143.824219 147.777344 175.582031 147.777344 C 207.34375 147.777344 233.089844 173.523438 233.089844 205.28125 " fill-opacity="1" fill-rule="nonzero"/></g><path fill="#ffffff" d="M 232.089844 205.722656 C 232.089844 236.6875 206.988281 261.789062 176.023438 261.789062 C 145.0625 261.789062 119.960938 236.6875 119.960938 205.722656 C 119.960938 174.757812 145.0625 149.660156 176.023438 149.660156 C 206.988281 149.660156 232.089844 174.757812 232.089844 205.722656 " fill-opacity="1" fill-rule="nonzero"/><path fill="#ba2d53" d="M 218.828125 204.878906 C 218.828125 229.03125 199.246094 248.613281 175.089844 248.613281 C 150.9375 248.613281 131.355469 229.03125 131.355469 204.878906 C 131.355469 180.722656 150.9375 161.140625 175.089844 161.140625 C 199.246094 161.140625 218.828125 180.722656 218.828125 204.878906 " fill-opacity="1" fill-rule="nonzero"/><path fill="#ba2d53" d="M 217.964844 205.800781 C 217.964844 228.921875 199.222656 247.664062 176.101562 247.664062 C 152.980469 247.664062 134.238281 228.921875 134.238281 205.800781 C 134.238281 182.683594 152.980469 163.941406 176.101562 163.941406 C 199.222656 163.941406 217.964844 182.683594 217.964844 205.800781 " fill-opacity="1" fill-rule="nonzero"/><path fill="#ba2d53" d="M 191.527344 209.234375 C 187.226562 204.582031 180.109375 201.941406 176.261719 201.941406 C 174.484375 201.941406 171.003906 200.570312 168.597656 198.464844 C 167.664062 197.382812 167.054688 196.164062 167.054688 194.867188 C 167.054688 189.816406 173.269531 187.023438 177.566406 187.023438 C 180.003906 187.023438 182.839844 188.214844 184.863281 189.972656 C 185.871094 191.140625 186.125 192.089844 186.125 193.445312 C 186.125 193.445312 187.542969 194.519531 187.542969 194.867188 L 195.347656 194.867188 C 195.347656 190.835938 193.34375 187.222656 190.386719 184.484375 C 186.84375 180.632812 181.449219 178.183594 176.53125 178.183594 C 167.722656 178.183594 158.214844 184.167969 158.214844 193.828125 C 158.214844 197.953125 160.257812 201.40625 163.09375 204.03125 C 167.074219 208.339844 173.257812 210.78125 177.300781 210.78125 C 179.230469 210.78125 183.429688 212.480469 186.054688 214.773438 C 186.824219 215.671875 187.308594 216.625 187.308594 217.585938 C 187.308594 222.496094 183.378906 225.425781 176.796875 225.425781 C 173.238281 225.425781 170.496094 224.363281 168.632812 222.796875 C 167.421875 221.382812 166.789062 219.71875 166.789062 218.085938 C 166.789062 218.085938 165.367188 217.011719 165.367188 216.667969 L 157.949219 217.050781 C 157.949219 221.097656 159.777344 225.214844 163.125 228.28125 C 166.363281 231.808594 171.386719 234.265625 177.832031 234.265625 C 188.789062 234.265625 196.148438 227.980469 196.148438 218.621094 C 196.148438 214.890625 194.222656 211.726562 191.527344 209.234375 " fill-opacity="1" fill-rule="nonzero"/><path fill="#ba2d53" d="M 179.074219 172.140625 L 173.605469 172.523438 L 173.21875 238.683594 L 174.640625 240.101562 L 180.492188 240.101562 L 180.492188 173.558594 L 179.074219 172.140625 " fill-opacity="1" fill-rule="nonzero"/><path fill="#ffffff" d="M 189.726562 207.433594 C 185.421875 202.777344 178.304688 200.136719 174.460938 200.136719 C 172.679688 200.136719 169.199219 198.769531 166.792969 196.660156 C 165.859375 195.578125 165.25 194.359375 165.25 193.0625 C 165.25 188.015625 171.46875 185.222656 175.761719 185.222656 C 178.203125 185.222656 181.035156 186.414062 183.058594 188.171875 C 184.066406 189.339844 184.703125 190.671875 184.703125 192.027344 C 184.703125 192.027344 186.125 193.097656 186.125 193.445312 L 193.542969 193.0625 C 193.542969 189.035156 191.539062 185.417969 188.582031 182.679688 C 185.042969 178.828125 179.644531 176.382812 174.726562 176.382812 C 165.917969 176.382812 156.410156 182.363281 156.410156 192.027344 C 156.410156 196.152344 158.453125 199.601562 161.292969 202.226562 C 165.269531 206.535156 171.453125 208.976562 175.496094 208.976562 C 177.429688 208.976562 181.625 210.679688 184.253906 212.96875 C 185.023438 213.867188 185.503906 214.824219 185.503906 215.78125 C 185.503906 220.691406 181.574219 223.625 174.992188 223.625 C 171.433594 223.625 168.691406 222.5625 166.828125 220.996094 C 165.617188 219.578125 165.367188 218.296875 165.367188 216.667969 C 165.367188 216.667969 163.949219 215.59375 163.949219 215.25 L 156.144531 215.25 C 156.144531 219.296875 157.972656 223.410156 161.324219 226.480469 C 164.558594 230.003906 169.582031 232.464844 176.03125 232.464844 C 186.984375 232.464844 194.34375 226.175781 194.34375 216.820312 C 194.34375 213.089844 192.421875 209.921875 189.726562 207.433594 " fill-opacity="1" fill-rule="nonzero"/><path fill="#ffffff" d="M 177.652344 170.722656 L 171.800781 170.722656 L 171.800781 237.261719 L 173.21875 238.683594 L 178.691406 238.300781 L 179.074219 172.140625 L 177.652344 170.722656 " fill-opacity="1" fill-rule="nonzero"/><path fill="#ffffff" d="M 176.414062 232.847656 C 164.617188 232.847656 157.566406 224.621094 157.566406 216.667969 L 165.367188 216.667969 C 165.367188 220.726562 169.238281 225.042969 176.414062 225.042969 C 182.996094 225.042969 186.925781 222.113281 186.925781 217.203125 C 186.925781 213.261719 178.804688 209.359375 175.878906 209.359375 C 169.515625 209.359375 157.832031 203.320312 157.832031 193.445312 C 157.832031 183.785156 167.339844 177.800781 176.148438 177.800781 C 184.371094 177.800781 193.925781 184.636719 193.925781 193.445312 L 186.125 193.445312 C 186.125 189.40625 180.503906 185.605469 176.148438 185.605469 C 171.851562 185.605469 165.636719 188.398438 165.636719 193.445312 C 165.636719 197.960938 172.992188 201.554688 175.878906 201.554688 C 181.636719 201.554688 194.730469 207.464844 194.730469 217.203125 C 194.730469 226.558594 187.367188 232.847656 176.414062 232.847656 " fill-opacity="1" fill-rule="nonzero"/><path fill="#ffffff" d="M 179.074219 238.683594 L 173.21875 238.683594 L 173.21875 172.140625 L 179.074219 172.140625 L 179.074219 238.683594 " fill-opacity="1" fill-rule="nonzero"/></svg>